<svg width="62" height="62" viewBox="0 0 62 62" fill="none" xmlns="http://www.w3.org/2000/svg">
<path fill-rule="evenodd" clip-rule="evenodd" d="M30.9999 2.98077C31.4459 2.98077 31.8893 2.99119 32.3301 3.01179C32.0466 3.94515 31.8942 4.93554 31.8942 5.96154C31.8942 7.95075 32.4673 9.80611 33.4574 11.3715C32.4601 13.2212 31.8942 15.3378 31.8942 17.5865C31.8942 24.83 37.7661 30.7019 45.0096 30.7019C47.3519 30.7019 49.5507 30.0879 51.454 29.0121C52.8307 29.7115 54.3885 30.1058 56.0384 30.1058C57.0644 30.1058 58.0548 29.9533 58.9882 29.6698C59.0088 30.1106 59.0192 30.5541 59.0192 31C59.0192 46.4746 46.4745 59.0192 30.9999 59.0192C15.5254 59.0192 2.98071 46.4746 2.98071 31C2.98071 15.5254 15.5254 2.98077 30.9999 2.98077Z" fill="url(#paint0_radial_716_174571)"/>
<path d="M12.5193 30.9401L18.4209 25.0385L25.3764 31.9939L19.4748 37.8956L12.5193 30.9401Z" fill="url(#paint1_linear_716_174571)"/>
<path opacity="0.5" d="M33.0864 49.1228L38.988 43.2212L45.9435 50.1766L40.0419 56.0783L33.0864 49.1228Z" fill="url(#paint2_linear_716_174571)"/>
<g opacity="0.5">
<path d="M44.1821 36.9797L47.0546 34.1072L50.44 37.4926L47.5675 40.3651L44.1821 36.9797Z" fill="url(#paint3_linear_716_174571)"/>
<path d="M44.1821 36.9797L47.0546 34.1072L50.44 37.4926L47.5675 40.3651L44.1821 36.9797Z" fill="url(#paint4_linear_716_174571)"/>
</g>
<path d="M27.125 32.6801L29.9975 29.8077L33.3829 33.1931L30.5104 36.0655L27.125 32.6801Z" fill="url(#paint5_linear_716_174571)"/>
<path d="M21.1636 16.8821L24.036 14.0096L27.4214 17.395L24.549 20.2675L21.1636 16.8821Z" fill="url(#paint6_linear_716_174571)"/>
<path d="M17.7737 47.175L22.3397 42.609L27.7211 47.9904L23.1551 52.5564L17.7737 47.175Z" fill="url(#paint7_linear_716_174571)"/>
<path d="M19.9712 28.3173C19.9712 30.622 18.1028 32.4904 15.7981 32.4904C13.4934 32.4904 11.625 30.622 11.625 28.3173C11.625 26.0126 13.4934 24.1442 15.7981 24.1442C18.1028 24.1442 19.9712 26.0126 19.9712 28.3173Z" fill="url(#paint8_radial_716_174571)"/>
<path d="M40.5385 46.5C40.5385 48.8047 38.6702 50.6731 36.3655 50.6731C34.0607 50.6731 32.1924 48.8047 32.1924 46.5C32.1924 44.1953 34.0607 42.3269 36.3655 42.3269C38.6702 42.3269 40.5385 44.1953 40.5385 46.5Z" fill="#875F3A"/>
<path d="M40.5385 46.5C40.5385 48.8047 38.6702 50.6731 36.3655 50.6731C34.0607 50.6731 32.1924 48.8047 32.1924 46.5C32.1924 44.1953 34.0607 42.3269 36.3655 42.3269C38.6702 42.3269 40.5385 44.1953 40.5385 46.5Z" fill="url(#paint9_radial_716_174571)"/>
<path d="M23.2501 44.7115C23.2501 46.5224 21.7821 47.9904 19.9712 47.9904C18.1604 47.9904 16.6924 46.5224 16.6924 44.7115C16.6924 42.9007 18.1604 41.4327 19.9712 41.4327C21.7821 41.4327 23.2501 42.9007 23.2501 44.7115Z" fill="#875F3A"/>
<path d="M23.2501 44.7115C23.2501 46.5224 21.7821 47.9904 19.9712 47.9904C18.1604 47.9904 16.6924 46.5224 16.6924 44.7115C16.6924 42.9007 18.1604 41.4327 19.9712 41.4327C21.7821 41.4327 23.2501 42.9007 23.2501 44.7115Z" fill="url(#paint10_radial_716_174571)"/>
<path d="M51.2691 6.25962C51.2691 8.07048 49.8011 9.53847 47.9903 9.53847C46.1794 9.53847 44.7114 8.07048 44.7114 6.25962C44.7114 4.44876 46.1794 2.98077 47.9903 2.98077C49.8011 2.98077 51.2691 4.44876 51.2691 6.25962Z" fill="#FEB83F"/>
<path d="M51.2691 6.25962C51.2691 8.07048 49.8011 9.53847 47.9903 9.53847C46.1794 9.53847 44.7114 8.07048 44.7114 6.25962C44.7114 4.44876 46.1794 2.98077 47.9903 2.98077C49.8011 2.98077 51.2691 4.44876 51.2691 6.25962Z" fill="url(#paint11_radial_716_174571)"/>
<path d="M31 31.5962C31 32.7485 30.0658 33.6827 28.9134 33.6827C27.7611 33.6827 26.8269 32.7485 26.8269 31.5962C26.8269 30.4438 27.7611 29.5096 28.9134 29.5096C30.0658 29.5096 31 30.4438 31 31.5962Z" fill="#875F3A"/>
<path d="M31 31.5962C31 32.7485 30.0658 33.6827 28.9134 33.6827C27.7611 33.6827 26.8269 32.7485 26.8269 31.5962C26.8269 30.4438 27.7611 29.5096 28.9134 29.5096C30.0658 29.5096 31 30.4438 31 31.5962Z" fill="url(#paint12_radial_716_174571)"/>
<path d="M47.9905 15.7981C47.9905 16.9504 47.0563 17.8846 45.9039 17.8846C44.7516 17.8846 43.8174 16.9504 43.8174 15.7981C43.8174 14.6457 44.7516 13.7115 45.9039 13.7115C47.0563 13.7115 47.9905 14.6457 47.9905 15.7981Z" fill="#FEB83F"/>
<path d="M47.9905 15.7981C47.9905 16.9504 47.0563 17.8846 45.9039 17.8846C44.7516 17.8846 43.8174 16.9504 43.8174 15.7981C43.8174 14.6457 44.7516 13.7115 45.9039 13.7115C47.0563 13.7115 47.9905 14.6457 47.9905 15.7981Z" fill="url(#paint13_radial_716_174571)"/>
<path d="M59.0193 19.9712C59.0193 21.1235 58.0851 22.0577 56.9327 22.0577C55.7804 22.0577 54.8462 21.1235 54.8462 19.9712C54.8462 18.8188 55.7804 17.8846 56.9327 17.8846C58.0851 17.8846 59.0193 18.8188 59.0193 19.9712Z" fill="#FEB83F"/>
<path d="M59.0193 19.9712C59.0193 21.1235 58.0851 22.0577 56.9327 22.0577C55.7804 22.0577 54.8462 21.1235 54.8462 19.9712C54.8462 18.8188 55.7804 17.8846 56.9327 17.8846C58.0851 17.8846 59.0193 18.8188 59.0193 19.9712Z" fill="url(#paint14_radial_716_174571)"/>
<path d="M25.3367 16.0962C25.3367 17.2485 24.4025 18.1827 23.2501 18.1827C22.0977 18.1827 21.1636 17.2485 21.1636 16.0962C21.1636 14.9438 22.0977 14.0096 23.2501 14.0096C24.4025 14.0096 25.3367 14.9438 25.3367 16.0962Z" fill="#875F3A"/>
<path d="M25.3367 16.0962C25.3367 17.2485 24.4025 18.1827 23.2501 18.1827C22.0977 18.1827 21.1636 17.2485 21.1636 16.0962C21.1636 14.9438 22.0977 14.0096 23.2501 14.0096C24.4025 14.0096 25.3367 14.9438 25.3367 16.0962Z" fill="url(#paint15_radial_716_174571)"/>
<path d="M47.9905 35.7692C47.9905 36.9216 47.0563 37.8558 45.9039 37.8558C44.7516 37.8558 43.8174 36.9216 43.8174 35.7692C43.8174 34.6169 44.7516 33.6827 45.9039 33.6827C47.0563 33.6827 47.9905 34.6169 47.9905 35.7692Z" fill="#875F3A"/>
<path d="M47.9905 35.7692C47.9905 36.9216 47.0563 37.8558 45.9039 37.8558C44.7516 37.8558 43.8174 36.9216 43.8174 35.7692C43.8174 34.6169 44.7516 33.6827 45.9039 33.6827C47.0563 33.6827 47.9905 34.6169 47.9905 35.7692Z" fill="url(#paint16_radial_716_174571)"/>
<defs>
<radialGradient id="paint0_radial_716_174571" cx="0" cy="0" r="1" gradientUnits="userSpaceOnUse" gradientTransform="translate(10.4326 14.1587) rotate(47.0293) scale(53.5697)">
<stop offset="0.371791" stop-color="#FBC363"/>
<stop offset="1" stop-color="#EA990D"/>
</radialGradient>
<linearGradient id="paint1_linear_716_174571" x1="15.4701" y1="27.9893" x2="22.4256" y2="34.9448" gradientUnits="userSpaceOnUse">
<stop stop-color="#C88E2B"/>
<stop offset="1" stop-color="#E4AF53" stop-opacity="0"/>
</linearGradient>
<linearGradient id="paint2_linear_716_174571" x1="36.0372" y1="46.172" x2="42.9927" y2="53.1274" gradientUnits="userSpaceOnUse">
<stop stop-color="#A97315"/>
<stop offset="1" stop-color="#A97315" stop-opacity="0"/>
</linearGradient>
<linearGradient id="paint3_linear_716_174571" x1="45.6184" y1="35.5435" x2="49.0038" y2="38.9289" gradientUnits="userSpaceOnUse">
<stop stop-color="#C88E2B"/>
<stop offset="1" stop-color="#E4AF53" stop-opacity="0"/>
</linearGradient>
<linearGradient id="paint4_linear_716_174571" x1="45.6184" y1="35.5435" x2="49.0038" y2="38.9289" gradientUnits="userSpaceOnUse">
<stop stop-color="#A97315"/>
<stop offset="1" stop-color="#A97315" stop-opacity="0"/>
</linearGradient>
<linearGradient id="paint5_linear_716_174571" x1="28.5612" y1="31.2439" x2="31.9466" y2="34.6293" gradientUnits="userSpaceOnUse">
<stop stop-color="#AE7C25"/>
<stop offset="1" stop-color="#E4AF53" stop-opacity="0"/>
</linearGradient>
<linearGradient id="paint6_linear_716_174571" x1="22.5998" y1="15.4458" x2="25.9852" y2="18.8312" gradientUnits="userSpaceOnUse">
<stop stop-color="#9F7326"/>
<stop offset="1" stop-color="#E4AF53" stop-opacity="0"/>
</linearGradient>
<linearGradient id="paint7_linear_716_174571" x1="20.0567" y1="44.892" x2="25.4381" y2="50.2734" gradientUnits="userSpaceOnUse">
<stop stop-color="#C88E2B"/>
<stop offset="1" stop-color="#E4AF53" stop-opacity="0"/>
</linearGradient>
<radialGradient id="paint8_radial_716_174571" cx="0" cy="0" r="1" gradientUnits="userSpaceOnUse" gradientTransform="translate(13.2644 25.1875) rotate(45) scale(9.27398)">
<stop offset="0.216156" stop-color="#A0764F"/>
<stop offset="1" stop-color="#674424"/>
</radialGradient>
<radialGradient id="paint9_radial_716_174571" cx="0" cy="0" r="1" gradientUnits="userSpaceOnUse" gradientTransform="translate(33.8318 43.3702) rotate(45) scale(9.27398)">
<stop offset="0.216156" stop-color="#A0764F"/>
<stop offset="1" stop-color="#674424"/>
</radialGradient>
<radialGradient id="paint10_radial_716_174571" cx="0" cy="0" r="1" gradientUnits="userSpaceOnUse" gradientTransform="translate(17.9805 42.2524) rotate(45) scale(7.2867)">
<stop offset="0.216156" stop-color="#A0764F"/>
<stop offset="1" stop-color="#674424"/>
</radialGradient>
<radialGradient id="paint11_radial_716_174571" cx="0" cy="0" r="1" gradientUnits="userSpaceOnUse" gradientTransform="translate(45.5835 4.28882) rotate(47.0293) scale(6.2688)">
<stop offset="0.371791" stop-color="#FBC363"/>
<stop offset="1" stop-color="#FDB333"/>
</radialGradient>
<radialGradient id="paint12_radial_716_174571" cx="0" cy="0" r="1" gradientUnits="userSpaceOnUse" gradientTransform="translate(27.6466 30.0312) rotate(45) scale(4.63699)">
<stop offset="0.216156" stop-color="#A0764F"/>
<stop offset="1" stop-color="#674424"/>
</radialGradient>
<radialGradient id="paint13_radial_716_174571" cx="0" cy="0" r="1" gradientUnits="userSpaceOnUse" gradientTransform="translate(44.3723 14.5439) rotate(47.0293) scale(3.98924)">
<stop offset="0.371791" stop-color="#FBC363"/>
<stop offset="1" stop-color="#FDB333"/>
</radialGradient>
<radialGradient id="paint14_radial_716_174571" cx="0" cy="0" r="1" gradientUnits="userSpaceOnUse" gradientTransform="translate(55.4011 18.717) rotate(47.0293) scale(3.98924)">
<stop offset="0.371791" stop-color="#FBC363"/>
<stop offset="1" stop-color="#FDB333"/>
</radialGradient>
<radialGradient id="paint15_radial_716_174571" cx="0" cy="0" r="1" gradientUnits="userSpaceOnUse" gradientTransform="translate(21.9833 14.5312) rotate(45) scale(4.63699)">
<stop offset="0.216156" stop-color="#A0764F"/>
<stop offset="1" stop-color="#674424"/>
</radialGradient>
<radialGradient id="paint16_radial_716_174571" cx="0" cy="0" r="1" gradientUnits="userSpaceOnUse" gradientTransform="translate(44.6371 34.2043) rotate(45) scale(4.63699)">
<stop offset="0.216156" stop-color="#A0764F"/>
<stop offset="1" stop-color="#674424"/>
</radialGradient>
</defs>
</svg>
