<svg width="108" height="57" viewBox="0 0 108 57" fill="none" xmlns="http://www.w3.org/2000/svg">
<path d="M91.1163 54.1758C90.6961 54.6284 90.2759 54.9417 89.5756 54.9417C88.5602 54.9417 87.8599 54.1062 87.8599 53.027C87.8599 51.9478 88.5602 51.1123 89.5756 51.1123C90.1709 51.1123 90.6261 51.356 91.0112 51.7737L92.4819 50.6249C91.8516 49.859 90.9762 49.302 89.6106 49.302C87.4397 49.302 85.7939 50.9382 85.7939 53.027C85.7939 55.1854 87.4397 56.752 89.5056 56.752C91.0112 56.752 91.9216 56.1601 92.5869 55.2898L91.1163 54.1758Z" fill="white"/>
<path d="M29.1739 51.1819H27.0029V49.4413H33.3407V51.1819H31.1698V56.6127H29.1739V51.1819Z" fill="white"/>
<path d="M49.2026 49.4413H51.1985V52.1219H53.7546V49.4413H55.7505V56.6127H53.7546V53.8973H51.1985V56.6127H49.2026V49.4413Z" fill="white"/>
<path d="M57.3262 49.4413H59.182L62.1583 53.2359V49.4413H64.1542V56.6127H62.4034L59.287 52.6789V56.6127H57.3262V49.4413Z" fill="white"/>
<path d="M65.3101 53.027C65.3101 50.973 66.9908 49.302 69.1968 49.302C71.4377 49.302 73.0835 50.9382 73.0835 53.027C73.0835 55.0809 71.4027 56.752 69.1968 56.752C66.9558 56.752 65.3101 55.1158 65.3101 53.027ZM71.0526 53.027C71.0526 51.9826 70.3173 51.0775 69.1968 51.0775C68.1113 51.0775 67.376 51.9478 67.376 53.027C67.376 54.0714 68.1463 54.9765 69.2318 54.9765C70.3173 54.9765 71.0526 54.0714 71.0526 53.027Z" fill="white"/>
<path d="M74.2388 49.4413H76.0946L79.0709 53.2359V49.4413H81.0668V56.6127H79.316L76.2347 52.6789V56.6127H74.2388V49.4413Z" fill="white"/>
<path d="M84.6033 49.4413H82.6074V56.6127H84.6033V49.4413Z" fill="white"/>
<path d="M93.1123 53.027C93.1123 50.973 94.793 49.302 96.999 49.302C99.24 49.302 100.886 50.9382 100.886 53.027C100.886 55.0809 99.205 56.752 96.999 56.752C94.758 56.752 93.1123 55.1158 93.1123 53.027ZM98.8198 53.027C98.8198 51.9826 98.0495 51.0775 96.964 51.0775C95.8785 51.0775 95.1432 51.9478 95.1432 53.027C95.1432 54.0714 95.9135 54.9765 96.999 54.9765C98.1195 54.9765 98.8198 54.0714 98.8198 53.027Z" fill="white"/>
<path d="M102.041 49.4413H104.037V54.8721H107.538V56.6127H102.041V49.4413Z" fill="white"/>
<path d="M46.5767 54.1758C46.1566 54.6284 45.7364 54.9417 45.0361 54.9417C44.0206 54.9417 43.3203 54.1062 43.3203 53.027C43.3203 51.9478 44.0206 51.1123 45.0361 51.1123C45.6313 51.1123 46.0865 51.356 46.4717 51.7737L47.9423 50.6249C47.3121 49.859 46.4367 49.302 45.0711 49.302C42.9001 49.302 41.2544 50.9382 41.2544 53.027C41.2544 55.1854 42.9001 56.752 44.966 56.752C46.4717 56.752 47.3821 56.1601 48.0474 55.2898L46.5767 54.1758Z" fill="white"/>
<path d="M34.3911 49.4413H40.1687V51.1471H36.352V52.2263H39.8185V53.7929H36.352V54.9417H40.2387V56.6127H34.3911V49.4413Z" fill="white"/>
<path d="M43.3203 29.7024C43.3203 21.5561 49.6931 15.9861 57.9218 15.9861C66.1854 15.9861 72.5232 21.5561 72.5232 29.7024C72.5232 37.8486 66.1504 43.4186 57.9218 43.4186C49.6931 43.4535 43.3203 37.8486 43.3203 29.7024ZM64.3296 29.7024C64.3296 26.0122 61.8085 23.0531 57.9218 23.0531C54.035 23.0531 51.5139 26.0122 51.5139 29.7024C51.5139 33.3925 54.035 36.3516 57.9218 36.3516C61.8085 36.3516 64.3296 33.3925 64.3296 29.7024Z" fill="white"/>
<path d="M99.2399 42.9661V26.987L93.2523 42.9661H89.6457L83.6931 26.987V42.9661H75.6045V16.4038H86.7744L91.4665 29.1453L96.1586 16.4038H107.328V42.9661H99.2399Z" fill="white"/>
<path d="M26.0927 16.4038H21.7858L14.1875 21.7302V42.9661H26.1628C34.5315 42.9661 40.7642 38.1619 40.7642 29.6675C40.7642 21.1732 34.5315 16.4038 26.0927 16.4038ZM26.0927 35.9687H22.2411V23.436H26.1278C30.4347 23.436 32.5356 26.1166 32.5356 29.6675C32.5356 33.0096 30.1545 35.9687 26.0927 35.9687Z" fill="white"/>
<path d="M8.40976 18.1793L21.3655 9.16275C21.6456 8.95388 21.7506 8.77981 21.7506 8.25762L21.7857 0.842475C21.7857 0.355095 21.7857 0.0765919 21.1204 0.598785L12.3665 6.65623C11.9813 6.93473 11.9113 6.79548 11.9113 6.16885V3.31419C11.9113 2.96606 11.7712 2.75718 11.4561 2.75718H4.55806C4.2079 2.75718 4.10286 3.00087 4.10286 3.349L4.13787 11.7389C4.13787 12.4004 4.24292 12.5744 3.92778 12.9225L0.951468 15.0113C0.426237 15.3594 0.496268 15.3594 0.496268 15.8816V56.0209C0.496268 56.369 0.77639 56.6475 1.09153 56.6475H7.21923H21.1204C21.4705 56.6475 21.7506 56.369 21.7506 56.0557V50.0679C21.7506 49.7546 21.4705 49.4761 21.1204 49.4761L8.19967 49.5109C7.98957 49.5109 7.81449 49.3368 7.81449 49.1628L7.70945 19.6066C7.67443 18.6319 7.67443 18.7015 8.40976 18.1793Z" fill="white"/>
</svg>
