<svg width="113" height="60" viewBox="0 0 113 60" fill="none" xmlns="http://www.w3.org/2000/svg">
<path d="M95.527 57.2846C95.0851 57.7598 94.6433 58.0888 93.907 58.0888C92.8393 58.0888 92.1029 57.2115 92.1029 56.0783C92.1029 54.9452 92.8393 54.0679 93.907 54.0679C94.5329 54.0679 95.0115 54.3238 95.4165 54.7624L96.9628 53.5561C96.3001 52.752 95.3797 52.1671 93.9438 52.1671C91.6611 52.1671 89.9307 53.8851 89.9307 56.0783C89.9307 58.3447 91.6611 59.9896 93.8333 59.9896C95.4165 59.9896 96.3738 59.3682 97.0733 58.4543L95.527 57.2846Z" fill="#54555A"/>
<path d="M30.3965 54.141H28.1138V52.3134H34.7778V54.141H32.4951V59.8434H30.3965V54.141Z" fill="#54555A"/>
<path d="M51.4561 52.3134H53.5547V55.128H56.2424V52.3134H58.341V59.8434H56.2424V56.9922H53.5547V59.8434H51.4561V52.3134Z" fill="#54555A"/>
<path d="M59.9976 52.3134H61.9489L65.0784 56.2977V52.3134H67.177V59.8434H65.3361L62.0594 55.7128V59.8434H59.9976V52.3134Z" fill="#54555A"/>
<path d="M68.3921 56.0783C68.3921 53.9217 70.1593 52.1671 72.4788 52.1671C74.8352 52.1671 76.5656 53.8851 76.5656 56.0783C76.5656 58.235 74.7983 59.9896 72.4788 59.9896C70.1225 59.9896 68.3921 58.2715 68.3921 56.0783ZM74.4302 56.0783C74.4302 54.9817 73.657 54.0313 72.4788 54.0313C71.3375 54.0313 70.5643 54.9452 70.5643 56.0783C70.5643 57.1749 71.3743 58.1253 72.5157 58.1253C73.657 58.1253 74.4302 57.1749 74.4302 56.0783Z" fill="#54555A"/>
<path d="M77.7808 52.3134H79.7321L82.8616 56.2977V52.3134H84.9602V59.8434H83.1193L79.8794 55.7128V59.8434H77.7808V52.3134Z" fill="#54555A"/>
<path d="M88.6786 52.3134H86.5801V59.8434H88.6786V52.3134Z" fill="#54555A"/>
<path d="M97.6255 56.0783C97.6255 53.9217 99.3927 52.1671 101.712 52.1671C104.069 52.1671 105.799 53.8851 105.799 56.0783C105.799 58.235 104.032 59.9896 101.712 59.9896C99.3559 59.9896 97.6255 58.2715 97.6255 56.0783ZM103.627 56.0783C103.627 54.9817 102.817 54.0313 101.675 54.0313C100.534 54.0313 99.7609 54.9452 99.7609 56.0783C99.7609 57.1749 100.571 58.1253 101.712 58.1253C102.89 58.1253 103.627 57.1749 103.627 56.0783Z" fill="#54555A"/>
<path d="M107.014 52.3134H109.113V58.0157H112.795V59.8434H107.014V52.3134Z" fill="#54555A"/>
<path d="M48.6949 57.2846C48.2531 57.7598 47.8113 58.0888 47.0749 58.0888C46.0072 58.0888 45.2709 57.2115 45.2709 56.0783C45.2709 54.9452 46.0072 54.0679 47.0749 54.0679C47.7008 54.0679 48.1795 54.3238 48.5845 54.7624L50.1308 53.5561C49.4681 52.752 48.5477 52.1671 47.1118 52.1671C44.8291 52.1671 43.0986 53.8851 43.0986 56.0783C43.0986 58.3447 44.8291 59.9896 47.0013 59.9896C48.5845 59.9896 49.5417 59.3682 50.2413 58.4543L48.6949 57.2846Z" fill="#54555A"/>
<path d="M35.8818 52.3134H41.9568V54.1045H37.9436V55.2376H41.5886V56.8826H37.9436V58.0888H42.0304V59.8434H35.8818V52.3134Z" fill="#54555A"/>
<path d="M45.2705 31.5875C45.2705 23.0339 51.9713 17.1854 60.6235 17.1854C69.3125 17.1854 75.9765 23.0339 75.9765 31.5875C75.9765 40.141 69.2757 45.9895 60.6235 45.9895C51.9713 46.0261 45.2705 40.141 45.2705 31.5875ZM67.3612 31.5875C67.3612 27.7128 64.7103 24.6057 60.6235 24.6057C56.5367 24.6057 53.8859 27.7128 53.8859 31.5875C53.8859 35.4621 56.5367 38.5692 60.6235 38.5692C64.7103 38.5692 67.3612 35.4621 67.3612 31.5875Z" fill="#54555A"/>
<path d="M104.068 45.5144V28.7363L97.7724 45.5144H93.9802L87.7212 28.7363V45.5144H79.2163V17.624H90.9611L95.8947 31.0026L100.828 17.624H112.573V45.5144H104.068Z" fill="#54555A"/>
<path d="M27.1562 17.624H22.6276L14.6382 23.2167V45.5144H27.2298C36.0293 45.5144 42.5828 40.47 42.5828 31.5509C42.5828 22.6319 36.0293 17.624 27.1562 17.624ZM27.1562 38.1671H23.1063V25.0078H27.193C31.7216 25.0078 33.9307 27.8225 33.9307 31.5509C33.9307 35.06 31.4271 38.1671 27.1562 38.1671Z" fill="#54555A"/>
<path d="M8.56332 19.4883L22.1859 10.0209C22.4804 9.80157 22.5909 9.6188 22.5909 9.0705L22.6277 1.2846C22.6277 0.772849 22.6277 0.480422 21.9282 1.02872L12.7237 7.38904C12.3187 7.68147 12.2451 7.53525 12.2451 6.87729V3.8799C12.2451 3.51436 12.0978 3.29504 11.7665 3.29504H4.51338C4.1452 3.29504 4.03475 3.55092 4.03475 3.91645L4.07156 12.7259C4.07156 13.4204 4.18202 13.6031 3.85066 13.9687L0.721151 16.1619C0.168886 16.5274 0.242521 16.5274 0.242521 17.0757V59.2219C0.242521 59.5875 0.537062 59.8799 0.868421 59.8799H7.31152H21.9282C22.2963 59.8799 22.5909 59.5875 22.5909 59.2585V52.9713C22.5909 52.6423 22.2963 52.3499 21.9282 52.3499L8.34242 52.3864C8.12151 52.3864 7.93742 52.2037 7.93742 52.0209L7.82697 20.987C7.79015 19.9635 7.79015 20.0366 8.56332 19.4883Z" fill="#C02235"/>
</svg>
