<svg xmlns="http://www.w3.org/2000/svg" viewBox="0 0 21.5 21.5"><path d="M20.7 9.1c-.4 0-.8.3-.8.8v.9c0 2-.7 3.9-1.8 5.5-1.2 1.6-2.9 2.8-4.8 3.3-1.9.6-4 .5-5.8-.2-1.9-.7-3.5-2-4.6-3.6s-1.6-3.7-1.5-5.6c.1-2 .9-3.9 2.2-5.4 1.3-1.5 3.1-2.6 5-3 1.9-.4 4-.2 5.8.6.4.2.8 0 1-.4.2-.4 0-.8-.4-1-2-1-4.4-1.2-6.6-.7C6.1.8 4.1 2 2.6 3.8 1.1 5.5.2 7.7 0 10c-.2 2.3.5 4.6 1.7 6.6C3 18.5 4.9 20 7 20.8c1.2.4 2.5.7 3.7.7 1 0 2.1-.1 3-.4 2.2-.7 4.2-2 5.6-3.9 1.4-1.8 2.1-4.1 2.1-6.4v-1c.1-.4-.2-.7-.7-.7z"/><path d="M8.3 9.2c-.3-.3-.8-.3-1.1 0s-.3.8 0 1.1l3 3c.1.1.3.2.5.2s.4-.1.5-.2l10-10c.3-.3.3-.8 0-1.1-.3-.3-.8-.3-1.1 0l-9.5 9.5-2.3-2.5z"/></svg>