<svg version="1.1" id="Слой_1" xmlns="http://www.w3.org/2000/svg" x="0" y="0" viewBox="0 0 15 16.6" xml:space="preserve"><style/><defs><path id="SVGID_1_" d="M-1.5-1.1h18v18h-18z"/></defs><clipPath id="SVGID_00000174594205449702969840000013174484905441848246_"/><path d="M14.7 4.2c0-.1 0-.1-.1-.2 0-.1-.1-.1-.2-.2l-.6-.6-5.2-3C7.9-.2 7-.2 6.4.2l-5.3 3c-.2.2-.4.5-.6.7-.1 0-.2.1-.2.2 0 0 0 .1-.1.2-.1.3-.2.6-.2.9v6c0 .4.1.8.3 1.1.2.3.5.6.8.8l5.2 3c.2.1.5.2.8.3.1.1.2.1.4.1.1 0 .3 0 .4-.1.3 0 .5-.1.8-.3l5.3-3c.3-.2.6-.5.8-.8s.3-.7.3-1.1v-6c-.1-.3-.2-.6-.4-1zM7.1 1.6c.1-.1.2-.1.4-.1.1 0 .3 0 .4.1l4.8 2.8-5.2 3-5.2-3 4.8-2.8zM1.9 11.9l-.3-.3c-.1-.1-.1-.2-.1-.4V5.6l5.2 3v6l-4.8-2.7zm11.5-.3l-.3.3-4.9 2.8v-6l5.2-3v5.6c.1.1.1.2 0 .3z" clip-path="url(#SVGID_00000174594205449702969840000013174484905441848246_)"/></svg>