<svg xmlns="http://www.w3.org/2000/svg" viewBox="0 0 17.5 20.8"><path d="M17.3 10.4c-.3-1.7-1.2-3.3-2.4-4.5L9.3.2C9.1.1 8.9 0 8.7 0c-.2 0-.3.1-.5.2L2.6 5.9C1.4 7.1.5 8.7.2 10.4c-.3 1.7-.2 3.5.5 5.1s1.8 3 3.2 3.9c1.4 1 3.1 1.5 4.9 1.5 1.7 0 3.4-.5 4.9-1.5 1.4-1 2.6-2.3 3.2-3.9.6-1.7.8-3.4.4-5.1zm-1.9 4.4c-.6 1.3-1.5 2.5-2.7 3.3-2.4 1.6-5.7 1.6-8.1 0-1.2-.8-2.1-1.9-2.7-3.3-.6-1.3-.7-2.8-.4-4.2.3-1.4 1-2.7 2-3.7l5.1-5.1 5.1 5.1c1 1 1.7 2.3 2 3.7.4 1.5.3 2.9-.3 4.2z"/><path d="M12.1 10.5l-2.8-3c-.2-.1-.4-.2-.6-.2-.2 0-.4.1-.5.2l-2.8 2.9c-.7.8-1.1 1.6-1.3 2.6-.2.9-.1 1.9.3 2.8.4.9 1 1.7 1.7 2.2.8.5 1.7.8 2.6.8.9 0 1.9-.3 2.6-.8.8-.5 1.4-1.3 1.7-2.2.4-.9.5-1.9.3-2.8s-.5-1.8-1.2-2.5zm-.4 4.7c-.2.6-.7 1.1-1.2 1.5-1.1.7-2.5.7-3.6 0-.5-.4-1-.9-1.2-1.5-.3-.6-.3-1.3-.2-2 .2-.6.5-1.2 1-1.7l2.3-2.4 2.3 2.4c.5.5.8 1.1.9 1.7.1.7 0 1.4-.3 2z"/></svg>