<svg xmlns="http://www.w3.org/2000/svg" viewBox="0 0 17.5 17.5"><path d="M4.8 4H3.5V.8c0-.5-.3-.8-.7-.8S2 .3 2 .8V4H.8c-.5 0-.8.3-.8.8v4c0 .4.3.8.8.8H2v7.2c0 .4.3.8.8.8s.8-.3.8-.8V9.5h1.2c.4 0 .8-.3.8-.8v-4c-.1-.4-.4-.7-.8-.7zM4 8H1.5V5.5H4V8zm6.8 2H9.5V.8c0-.5-.3-.8-.7-.8S8 .3 8 .8V10H6.8c-.5 0-.8.3-.8.8v4c0 .4.3.8.8.8H8v1.2c0 .4.3.8.8.8s.8-.3.8-.8v-1.2h1.2c.4 0 .8-.3.8-.8v-4c-.1-.5-.4-.8-.8-.8zm-.8 4H7.5v-2.5H10V14zm6.8-13h-1.2V.8c0-.4-.3-.8-.8-.8s-.8.3-.8.8V1h-1.2c-.5 0-.8.3-.8.8v4c0 .4.3.8.8.8H14v10.2c0 .4.3.8.8.8s.8-.3.8-.8V6.5h1.2c.4 0 .8-.3.8-.8v-4c-.1-.4-.4-.7-.8-.7zM16 5h-2.5V2.5H16V5z"/></svg>