<svg xmlns="http://www.w3.org/2000/svg" viewBox="0 0 23.5 23.5"><path d="M11.8 8C9.7 8 8 9.7 8 11.8c0 2.1 1.7 3.8 3.8 3.8 2.1 0 3.8-1.7 3.8-3.8-.1-2.1-1.8-3.8-3.8-3.8zm0 6c-1.2 0-2.2-1-2.2-2.2 0-1.2 1-2.2 2.2-2.2 1.2 0 2.2 1 2.2 2.2 0 1.2-1 2.2-2.2 2.2z"/><path d="M19.8 15c.1-.2.2-.3.3-.4.1-.1.3-.1.6-.1a2.732 2.732 0 002.7-2.7c0-.7-.3-1.4-.8-1.9S21.5 9 20.8 9h-.2c-.2 0-.3-.1-.5-.1l-.3-.3c0-.1 0-.1-.1-.2-.1-.2-.1-.3-.1-.5s.1-.3.3-.5c.3-.3.5-.6.6-.9.1-.3.2-.7.2-1.1s-.1-.7-.2-1.1c-.1-.3-.3-.6-.5-.9-.3-.3-.6-.5-.9-.6-.7-.3-1.4-.3-2.1 0-.3.2-.6.4-1 .7-.1.1-.3.2-.5.2s-.4 0-.5-.1c-.2-.1-.3-.2-.4-.3-.1-.1-.1-.3-.1-.6 0-.7-.3-1.4-.8-1.9-1-1-2.8-1-3.9 0-.5.5-.8 1.2-.8 2V3c0 .2-.1.3-.1.5-.1 0-.2.1-.3.2-.1 0-.1 0-.2.1h-.6c-.2 0-.3-.1-.5-.3-.2-.2-.5-.4-.9-.6-.6-.3-1.4-.3-2.1 0l-.9.6-.6.9c-.1.3-.2.7-.2 1.1 0 .4.1.7.2 1.1.2.2.4.5.7.9.1.1.2.3.2.5s0 .4-.1.6c0 .1-.1.2-.3.3-.1.1-.3.2-.5.2-.8 0-1.5.3-2 .8S0 11.1 0 11.8s.3 1.4.8 1.9 1.2.8 1.9.8h.2c.2 0 .3.1.5.1.1.1.3.2.3.4.1.2.1.3.1.5s-.1.3-.3.5c-.3.3-.5.6-.6.9-.1.3-.2.7-.2 1.1s.1.7.2 1.1c.1.3.3.6.6.9.3.3.6.5.9.6.7.3 1.4.3 2.1 0 .3-.1.6-.3.9-.7.1-.1.3-.2.5-.2s.4 0 .6.1c.2.1.3.2.4.3.1.1.2.3.2.6a2.732 2.732 0 002.7 2.7 2.732 2.732 0 002.7-2.7v-.2c0-.2.1-.3.1-.5.1-.1.2-.3.4-.3.2-.1.3-.1.5-.1s.3.1.5.3c.3.3.6.5.9.6.7.3 1.4.3 2.1 0 .3-.1.6-.3.9-.6.3-.3.5-.6.6-.9.1-.3.2-.7.2-1.1s-.1-.7-.2-1.1c-.1-.3-.3-.6-.7-.9-.1-.1-.2-.3-.2-.5.1 0 .2-.2.2-.4 0 .1 0 0 0 0zm-1.3-.5c-.2.4-.2.9-.2 1.4.1.5.3.9.7 1.3.1.1.2.3.3.4.1.2.1.3.1.5s0 .3-.1.5-.2.3-.3.4c-.1.1-.3.2-.4.3-.3.1-.7.1-1 0-.2-.1-.3-.2-.5-.3-.3-.3-.8-.6-1.2-.6-.5-.1-1 0-1.4.2-.4.2-.8.5-1.1.9-.3.4-.4.8-.4 1.3v.2c0 .3-.1.7-.4.9-.5.5-1.3.5-1.8 0-.2-.2-.4-.5-.4-.9v-.1c0-.5-.2-.9-.4-1.3-.3-.4-.7-.7-1.1-.8-.3-.1-.6-.2-1-.2h-.4c-.5.1-.9.3-1.3.7-.1.1-.3.2-.4.3-.3.1-.6.1-1 0-.2-.1-.3-.2-.4-.3-.1-.1-.2-.3-.3-.4-.1-.2-.1-.3-.1-.5s0-.3.1-.5.2-.3.3-.5c.3-.3.6-.8.6-1.2.1-.5 0-1-.2-1.4-.2-.4-.5-.8-.9-1.1-.4-.3-.8-.4-1.3-.4h.2c-.3 0-.7-.1-.9-.4-.2-.2-.4-.6-.4-.9 0-.3.1-.7.4-.9.2-.2.5-.4.9-.4h.1c.5 0 .9-.2 1.3-.4.4-.4.7-.8.8-1.2.2-.4.3-.9.2-1.4-.1-.5-.3-1-.7-1.4-.1-.1-.2-.2-.3-.4s-.1-.3-.1-.4 0-.3.1-.5.2-.3.3-.4c.1-.1.3-.2.4-.3.3-.1.7-.1 1 0 .1.1.2.2.4.3.4.4.8.6 1.3.7.4.1.8 0 1.2-.1.1 0 .2 0 .2-.1.4-.2.8-.5 1.1-.9.3-.4.4-.8.4-1.3v-.1c0-.3.1-.7.4-.9.5-.5 1.3-.5 1.8 0 .2.2.4.6.4 1 0 .5.1.9.4 1.3.3.4.6.7 1 .9.4.2.9.3 1.4.2.5-.1.9-.3 1.3-.7.1-.1.3-.2.4-.3.3-.1.7-.1 1 0 .2.1.3.2.4.3.1.1.2.3.3.4.1.2.1.3.1.5s0 .3-.1.5c-.2 0-.3.1-.4.3-.3.3-.6.8-.6 1.3-.1.4 0 .8.1 1.2 0 .1 0 .2.1.2.2.4.5.8.9 1.1.4.3.8.4 1.3.4h.2c.3 0 .7.1.9.4s.4.6.4.9-.1.7-.4.9c-.2.2-.6.4-1 .4-.5 0-.9.1-1.3.4-.5.2-.9.5-1 1z"/></svg>