<svg xmlns="http://www.w3.org/2000/svg" viewBox="0 0 19.5 19.5"><path d="M7.9.8H1.4c-.4 0-.7.3-.7.7V8c0 .4.3.7.7.7h6.5c.4 0 .7-.3.7-.7V1.4c0-.3-.3-.6-.7-.6zm-.7 6.4H2.1V2.1h5.1v5.1zM18.1.8h-6.5c-.4 0-.7.3-.7.7V8c0 .4.3.7.7.7h6.5c.4 0 .7-.3.7-.7V1.4c0-.3-.4-.6-.7-.6zm-.7 6.4h-5.1V2.1h5.1v5.1zm.7 3.7h-6.5c-.4 0-.7.3-.7.7v6.5c0 .4.3.7.7.7h6.5c.4 0 .7-.3.7-.7v-6.5c0-.4-.4-.7-.7-.7zm-.7 6.5h-5.1v-5.1h5.1v5.1zm-9.5-6.5H1.4c-.4 0-.7.3-.7.7v6.5c0 .4.3.7.7.7h6.5c.4 0 .7-.3.7-.7v-6.5c0-.4-.3-.7-.7-.7zm-.7 6.5H2.1v-5.1h5.1v5.1z"/></svg>