<svg xmlns="http://www.w3.org/2000/svg" viewBox="0 0 16.5 16.5"><path d="M8.2 0C3.7 0 0 3.7 0 8.2s3.7 8.2 8.2 8.2 8.2-3.7 8.2-8.2S12.8 0 8.2 0zm0 15c-3.7 0-6.8-3-6.8-6.8 0-3.7 3-6.8 6.8-6.8 3.7 0 6.8 3 6.8 6.8S12 15 8.2 15z"/><path d="M8.7 3.8c-.7-.1-1.4 0-2 .4-.6.3-1.1.9-1.3 1.6-.1.4.1.8.5 1 .4.1.8-.1 1-.5.1-.3.4-.6.7-.8.3-.2.7-.2 1-.2.3.1.7.2.9.5.2.3.4.6.4 1 0 .8-1.3 1.4-1.7 1.5-.6.1-.9.5-.7.9.1.3.4.5.7.5h.2c.3-.1 2.8-1 2.8-3 0-.7-.2-1.4-.7-1.9-.5-.5-1.1-.9-1.8-1zm-.4 7.4c-.4 0-.8.3-.8.8s.3.8.8.8.7-.4.7-.8-.3-.8-.7-.8z"/></svg>