<svg xmlns="http://www.w3.org/2000/svg" viewBox="0 0 19.5 23.5"><path d="M16.6 2.9C14.8 1 12.4 0 9.8 0 7.1 0 4.7 1 2.9 2.9 1 4.7 0 7.1 0 9.8c0 7.3 9 13.4 9.3 13.6.1.1.3.1.4.1s.3 0 .4-.1c.4-.3 9.3-6.3 9.3-13.6.1-2.7-.9-5.1-2.8-6.9zM9.8 21.8c-1.8-1.2-8.3-6.4-8.3-12 0-2.2.9-4.3 2.4-5.8s3.6-2.4 5.8-2.4c2.2 0 4.3.9 5.8 2.4C17.1 5.5 18 7.5 18 9.8c0 5.6-6.5 10.8-8.2 12z"/><path d="M9.8 6C7.7 6 6 7.7 6 9.8s1.7 3.8 3.8 3.8c2.1 0 3.8-1.7 3.8-3.8S11.8 6 9.8 6zm0 6c-1.2 0-2.2-1-2.2-2.2s1-2.2 2.2-2.2c1.2 0 2.2 1 2.2 2.2S11 12 9.8 12z"/></svg>