<svg xmlns="http://www.w3.org/2000/svg" viewBox="0 0 21.5 21.5"><path d="M8.4 3.2C7.9 1 6 0 4.3 0 2.6 0 .6 1 .1 3.2-.3 5 .4 6.9 2.3 8.7c.6.5 1.3.8 2 .8s1.4-.3 2-.8C8.1 7 8.8 5 8.4 3.2zM3.3 7.6c-1-1-2.1-2.5-1.7-4.1.3-1.5 1.7-2 2.7-2 1 0 2.3.5 2.7 2 .4 1.7-.7 3.2-1.7 4.1-.6.5-1.5.5-2 0zm18.1 7.6C20.9 13 19 12 17.3 12s-3.6 1-4.2 3.2c-.4 1.9.3 3.8 2.2 5.5.6.5 1.3.8 2 .8s1.4-.3 2-.8c1.8-1.7 2.6-3.7 2.1-5.5zm-3.2 4.4c-.5.5-1.4.5-1.9 0-1-1-2.1-2.4-1.7-4.1.3-1.5 1.7-2 2.7-2s2.3.5 2.7 2c.3 1.7-.8 3.2-1.8 4.1zM10.8 17H8.1c-.6 0-1-.4-1.2-.8-.1-.4-.1-1 .3-1.4l8-7c.9-.8 1.2-2 .8-3-.4-1.1-1.4-1.8-2.5-1.8h-2.7c-.4 0-.8.3-.8.7s.3.8.8.8h2.7c.6 0 1 .4 1.2.8.1.4.1 1-.3 1.4l-8 7c-.9.8-1.2 1.9-.8 3 .4 1.1 1.4 1.8 2.6 1.8h2.7c.4 0 .8-.3.8-.8s-.5-.7-.9-.7z"/><path d="M4.3 3.5c-.4 0-.8.3-.8.8s.4.7.8.7.7-.3.7-.8-.3-.7-.7-.7zm13 12c-.4 0-.8.3-.8.8 0 .4.3.8.8.8s.8-.3.8-.8c-.1-.5-.4-.8-.8-.8z"/></svg>