<svg xmlns="http://www.w3.org/2000/svg" viewBox="0 0 22 22"><path d="M11 0C4.9 0 0 4.9 0 11s4.9 11 11 11 11-4.9 11-11S17.1 0 11 0zm0 20.5c-5.2 0-9.5-4.3-9.5-9.5S5.8 1.5 11 1.5s9.5 4.3 9.5 9.5-4.3 9.5-9.5 9.5z"/><path d="M18.2 12.1h-3.4c.1-.3.2-.7.2-1.1 0-.4-.1-.7-.2-1.1h3c.3 0 .5-.1.7-.3l.2-.4-.1-.4C17.9 6.1 15.7 4 13 3.2c-.3-.1-.5 0-.7.1l-.3.3V7c-.3.1-.6 0-1 0s-.7.1-1.1.2v-3c0-.3-.1-.5-.3-.7l-.4-.3-.3.1c-2.7.8-4.8 2.9-5.6 5.6-.1.3 0 .5.1.7l.3.3h3.4c0 .4-.1.7-.1 1.1 0 .4.1.7.2 1.1h-3c-.3 0-.5.1-.7.3l-.2.4.1.4c.7 2.7 2.9 4.8 5.6 5.6h.2c.2 0 .4-.1.5-.2l.3-.3v-3.4c.3.1.7.2 1.1.2.4 0 .7-.1 1.1-.2v3c0 .3.1.5.3.7l.4.2.4-.1c2.7-.7 4.8-2.9 5.6-5.6.1-.3 0-.5-.1-.7l-.6-.3zM13.6 5c1.5.7 2.7 1.9 3.4 3.4h-3c-.1-.2-.3-.3-.5-.5V5zM5 8.4C5.7 6.9 6.9 5.7 8.4 5v2.9c-.1.2-.3.4-.4.5H5zM8.4 17c-1.5-.7-2.7-1.9-3.4-3.4h2.9l.5.5V17zm.1-6c0-1.4 1.1-2.5 2.5-2.5s2.5 1.1 2.5 2.5-1.1 2.5-2.5 2.5-2.5-1.1-2.5-2.5zm5.1 6v-3l.5-.5H17c-.7 1.6-1.9 2.8-3.4 3.5z"/></svg>