<svg xmlns="http://www.w3.org/2000/svg" viewBox="0 0 21.5 23.7"><path d="M17.2 15.2c-1.2 0-2.3.5-3.1 1.3L8.3 13c.1-.4.2-.8.2-1.2 0-.4-.1-.8-.2-1.2l5.9-3.4c.8.8 1.8 1.3 3 1.3 2.3 0 4.2-1.9 4.2-4.2S19.6 0 17.2 0 13 1.9 13 4.2c0 .4.1.8.2 1.2L7.3 8.9c-.8-.8-1.8-1.3-3.1-1.3C1.9 7.6 0 9.5 0 11.8 0 14.1 1.9 16 4.2 16c1.2 0 2.3-.5 3.1-1.3l5.9 3.4c-.1.5-.2.9-.2 1.3 0 2.3 1.9 4.2 4.2 4.2s4.2-1.9 4.2-4.2-1.8-4.2-4.2-4.2zm0-13.2c1.2 0 2.2 1 2.2 2.3s-1 2.2-2.2 2.2-2.2-1-2.2-2.3S16 2 17.2 2zm-13 12.1c-1.2 0-2.2-1-2.2-2.2 0-1.2 1-2.2 2.2-2.2s2.2 1 2.2 2.2c.1 1.2-.9 2.2-2.2 2.2zm13 7.6c-1.2 0-2.2-1-2.2-2.2 0-.4.1-.8.3-1.1.4-.7 1.1-1.1 1.9-1.1 1.2 0 2.2 1 2.2 2.2s-.9 2.2-2.2 2.2z"/></svg>