<svg xmlns="http://www.w3.org/2000/svg" viewBox="0 0 19.5 19.5"><path d="M16.8 19.5h-4c-.4 0-.8-.3-.8-.8s.3-.8.8-.8h4c.3 0 .7-.1.9-.4s.4-.6.4-.9v-14c0-.3-.1-.7-.4-.9s-.6-.4-.9-.4h-4c-.4 0-.8-.3-.8-.8s.3-.5.8-.5h4a2.732 2.732 0 012.7 2.7v14c0 .7-.3 1.4-.8 1.9s-1.2.9-1.9.9z"/><path d="M7.8 15.5c-.2 0-.4-.1-.5-.2-.3-.3-.3-.8 0-1.1l4.5-4.5-4.6-4.4c-.3-.3-.3-.8 0-1.1s.8-.3 1.1 0l5 5c.3.3.3.8 0 1.1l-5 5c-.2.1-.4.2-.5.2z"/><path d="M12.8 10.5H.8c-.5 0-.8-.3-.8-.7S.3 9 .8 9h12c.4 0 .8.3.8.8s-.4.7-.8.7z"/></svg>