<svg xmlns="http://www.w3.org/2000/svg" viewBox="0 0 15 15"><path d="M12.5 14.6h-2.1c-.4 0-.8-.3-.8-.8s.3-.8.8-.8h2.1c.2 0 .4-.1.5-.2.1-.1.2-.3.2-.5v-2.1c0-.4.3-.8.8-.8s.8.3.8.8v2.1c0 .6-.2 1.1-.7 1.5-.6.5-1.1.8-1.6.8zm-7.8 0H2.5c-.6 0-1.1-.2-1.5-.7-.4-.4-.7-.9-.7-1.5v-2.1c0-.4.3-.8.8-.8s.8.3.8.8v2.1c0 .2.1.4.2.5.1.1.3.2.5.2h2.1c.4 0 .8.3.8.8-.2.4-.4.7-.8.7zm9.1-9.3c-.4 0-.8-.3-.8-.8v-2c0-.2-.1-.4-.2-.5-.1-.1-.3-.2-.5-.2h-2.1c-.4 0-.8-.3-.8-.8s.4-.7.8-.7h2.1c.6 0 1.1.2 1.5.7.4.4.7.9.7 1.5v2.1c.1.5-.2.7-.7.7zm-12.6 0c-.5 0-.8-.3-.8-.7V2.5c0-.6.2-1.1.7-1.5.4-.4.8-.6 1.4-.6h2.1c.4 0 .8.3.8.8s-.3.7-.7.7H2.5c-.2 0-.3 0-.5.1-.1.1-.1.3-.1.5v2.1c0 .5-.3.7-.7.7z"/></svg>