<svg xmlns="http://www.w3.org/2000/svg" style="position:absolute; width: 0; height: 0"><defs><path id="cube-SVGID_1_" d="M-1.5-1.1h18v18h-18z"> </path></defs><symbol viewBox="0 0 10 5.5" id="icon-arrow-bottom"><path d="M5 5.5c-.1 0-.3 0-.4-.1L.1.9C0 .7 0 .3.1.1s.5-.2.7 0L5 4.3 9.1.2c.2-.2.6-.2.8-.1s.2.5 0 .7L5.4 5.4c-.1.1-.3.1-.4.1z"></path></symbol><symbol viewBox="0 0 11.5 11.5" id="icon-arrow-link"><path d="M11.4.5c-.1-.2-.2-.3-.4-.4-.1-.1-.2-.1-.2-.1H.8C.3 0 0 .3 0 .8s.3.8.8.8H9L.3 10.3c-.3.3-.3.8 0 1.1.1.1.3.2.5.2s.4-.1.5-.2L10 2.6v8.2c0 .4.3.8.8.8s.8-.3.8-.8V.8c-.1-.1-.1-.2-.2-.3z"></path></symbol><symbol viewBox="0 0 7.5 13.5" id="icon-arrow-right"><path d="M.8 13.5c-.2 0-.4-.1-.5-.2-.3-.3-.3-.8 0-1.1l5.5-5.5L.2 1.3C-.1 1-.1.5.2.2S1-.1 1.3.2l6 6c.3.3.3.8 0 1.1l-6 6c-.2.1-.4.2-.5.2z"></path></symbol><symbol viewBox="0 0 19.5 21.5" id="icon-bell"><path d="M18.8 16.5H.8c-.3 0-.6-.2-.7-.5-.1-.3 0-.7.3-.8 0 0 2.7-1.9 2.7-8.4C3 4.9 3.7 3.3 5 2 6.3.7 8 0 9.8 0c1.8 0 3.5.7 4.8 2 1.3 1.3 2 3 2 4.8 0 6.4 2.6 8.4 2.7 8.4.3.2.4.5.3.8-.2.3-.5.5-.8.5zM2.4 15H17c-.9-1.4-2.1-3.9-2.1-8.2.1-1.5-.4-2.8-1.4-3.8-1-1-2.3-1.5-3.7-1.5C8.3 1.5 7 2 6 3S4.5 5.3 4.5 6.8c0 4.3-1.1 6.8-2.1 8.2zM9.8 21.5c-.5 0-1-.1-1.4-.4-.4-.2-.8-.6-1-1-.2-.4-.1-.8.3-1 .4-.2.8-.1 1 .3.1.2.3.3.5.5.4.2.9.2 1.2 0 .2-.1.3-.3.5-.5.2-.4.7-.5 1-.3.4.2.5.7.3 1-.2.4-.6.8-1 1-.5.3-1 .4-1.4.4z"></path></symbol><symbol viewBox="0 0 15.5 17.5" id="icon-calendar"><path d="M13.2 2h-1.7V.8c0-.4-.3-.8-.8-.8s-.7.3-.7.8V2H5.5V.8c0-.5-.3-.8-.7-.8S4 .3 4 .8V2H2.3C1 2 0 3 0 4.3v10.9c0 1.3 1 2.3 2.3 2.3h10.9c1.3 0 2.3-1 2.3-2.3V4.3c0-1.3-1-2.3-2.3-2.3zM2.3 3.5H4v.2c0 .4.3.8.8.8s.8-.3.8-.8v-.2H10v.2c0 .4.3.8.8.8s.8-.3.8-.8v-.2h1.7c.4 0 .8.4.8.8V6H1.5V4.3c0-.4.4-.8.8-.8zM13.2 16H2.3c-.4 0-.8-.4-.8-.8V7.5H14v7.7c0 .4-.4.8-.8.8z"></path></symbol><symbol viewBox="0 0 10 7.2" id="icon-check-long"><path d="M3.6 7.2c-.2 0-.4-.1-.5-.2L.2 4.1c-.3-.3-.3-.8 0-1.1s.8-.3 1.1 0l2.3 2.3L8.7.2c.3-.3.8-.3 1.1 0s.3.8 0 1.1L4.1 6.9c-.1.2-.3.3-.5.3z"></path></symbol><symbol viewBox="0 0 21.5 21.5" id="icon-check"><path d="M20.7 9.1c-.4 0-.8.3-.8.8v.9c0 2-.7 3.9-1.8 5.5-1.2 1.6-2.9 2.8-4.8 3.3-1.9.6-4 .5-5.8-.2-1.9-.7-3.5-2-4.6-3.6s-1.6-3.7-1.5-5.6c.1-2 .9-3.9 2.2-5.4 1.3-1.5 3.1-2.6 5-3 1.9-.4 4-.2 5.8.6.4.2.8 0 1-.4.2-.4 0-.8-.4-1-2-1-4.4-1.2-6.6-.7C6.1.8 4.1 2 2.6 3.8 1.1 5.5.2 7.7 0 10c-.2 2.3.5 4.6 1.7 6.6C3 18.5 4.9 20 7 20.8c1.2.4 2.5.7 3.7.7 1 0 2.1-.1 3-.4 2.2-.7 4.2-2 5.6-3.9 1.4-1.8 2.1-4.1 2.1-6.4v-1c.1-.4-.2-.7-.7-.7z"></path><path d="M8.3 9.2c-.3-.3-.8-.3-1.1 0s-.3.8 0 1.1l3 3c.1.1.3.2.5.2s.4-.1.5-.2l10-10c.3-.3.3-.8 0-1.1-.3-.3-.8-.3-1.1 0l-9.5 9.5-2.3-2.5z"></path></symbol><symbol viewBox="0 0 16.5 16.5" id="icon-clock"><path d="M8.2 16.5C3.7 16.5 0 12.8 0 8.2S3.7 0 8.2 0s8.2 3.7 8.2 8.2-3.6 8.3-8.2 8.3zm0-15c-3.7 0-6.8 3-6.8 6.8 0 3.7 3 6.8 6.8 6.8C12 15 15 12 15 8.2c0-3.7-3-6.7-6.8-6.7z"></path><path d="M11.2 10.5c-.1 0-.2 0-.3-.1l-3-1.5c-.2-.1-.4-.4-.4-.7V3.8c0-.5.3-.8.7-.8s.8.3.8.8v4l2.6 1.3c.4.2.5.6.3 1-.1.2-.4.4-.7.4z"></path></symbol><symbol viewBox="0 0 13.5 13.5" id="icon-cross"><path d="M7.8 6.8l5.5-5.5c.3-.3.3-.8 0-1.1s-.8-.3-1.1 0L6.8 5.7 1.3.2C1-.1.5-.1.2.2s-.3.8 0 1.1l5.5 5.5-5.5 5.5c-.3.3-.3.8 0 1.1.1.1.3.2.5.2s.4-.1.5-.2l5.5-5.5 5.5 5.5c.1.1.3.2.5.2s.4-.1.5-.2c.3-.3.3-.8 0-1.1L7.8 6.8z"></path></symbol><symbol viewBox="0 0 15 16.6" id="icon-cube"><style><![CDATA[.st0{clip-path:url(#SVGID_00000033328813394528176260000018432492302195828629_)}]]></style><clipPath id="cube-SVGID_00000174594205449702969840000013174484905441848246_"></clipPath><path d="M14.7 4.2c0-.1 0-.1-.1-.2 0-.1-.1-.1-.2-.2l-.6-.6-5.2-3C7.9-.2 7-.2 6.4.2l-5.3 3c-.2.2-.4.5-.6.7-.1 0-.2.1-.2.2 0 0 0 .1-.1.2-.1.3-.2.6-.2.9v6c0 .4.1.8.3 1.1.2.3.5.6.8.8l5.2 3c.2.1.5.2.8.3.1.1.2.1.4.1.1 0 .3 0 .4-.1.3 0 .5-.1.8-.3l5.3-3c.3-.2.6-.5.8-.8s.3-.7.3-1.1v-6c-.1-.3-.2-.6-.4-1zM7.1 1.6c.1-.1.2-.1.4-.1.1 0 .3 0 .4.1l4.8 2.8-5.2 3-5.2-3 4.8-2.8zM1.9 11.9l-.3-.3c-.1-.1-.1-.2-.1-.4V5.6l5.2 3v6l-4.8-2.7zm11.5-.3l-.3.3-4.9 2.8v-6l5.2-3v5.6c.1.1.1.2 0 .3z" clip-path="url(#cube-SVGID_00000174594205449702969840000013174484905441848246_)"></path></symbol><symbol viewBox="0 0 20 20" id="icon-download"><path d="M19 12c-.6 0-1 .4-1 1v4c0 .3-.1.5-.3.7s-.4.3-.7.3H3c-.3 0-.5-.1-.7-.3-.2-.2-.3-.4-.3-.7v-4c0-.6-.4-1-1-1s-1 .4-1 1v4c0 .8.3 1.6.9 2.1.5.6 1.3.9 2.1.9h14c.8 0 1.6-.3 2.1-.9s.9-1.3.9-2.1v-4c0-.6-.4-1-1-1z"></path><path d="M9.3 13.7c.1.1.2.2.3.2.1.1.3.1.4.1s.3 0 .4-.1c.1-.1.2-.1.3-.2l5-5c.4-.4.4-1 0-1.4s-1-.4-1.4 0L11 10.6V1c0-.6-.4-1-1-1S9 .4 9 1v9.6L5.7 7.3c-.4-.4-1-.4-1.4 0s-.4 1 0 1.4l5 5z"></path></symbol><symbol viewBox="0 0 17.5 20.8" id="icon-droplet"><path d="M17.3 10.4c-.3-1.7-1.2-3.3-2.4-4.5L9.3.2C9.1.1 8.9 0 8.7 0c-.2 0-.3.1-.5.2L2.6 5.9C1.4 7.1.5 8.7.2 10.4c-.3 1.7-.2 3.5.5 5.1s1.8 3 3.2 3.9c1.4 1 3.1 1.5 4.9 1.5 1.7 0 3.4-.5 4.9-1.5 1.4-1 2.6-2.3 3.2-3.9.6-1.7.8-3.4.4-5.1zm-1.9 4.4c-.6 1.3-1.5 2.5-2.7 3.3-2.4 1.6-5.7 1.6-8.1 0-1.2-.8-2.1-1.9-2.7-3.3-.6-1.3-.7-2.8-.4-4.2.3-1.4 1-2.7 2-3.7l5.1-5.1 5.1 5.1c1 1 1.7 2.3 2 3.7.4 1.5.3 2.9-.3 4.2z"></path><path d="M12.1 10.5l-2.8-3c-.2-.1-.4-.2-.6-.2-.2 0-.4.1-.5.2l-2.8 2.9c-.7.8-1.1 1.6-1.3 2.6-.2.9-.1 1.9.3 2.8.4.9 1 1.7 1.7 2.2.8.5 1.7.8 2.6.8.9 0 1.9-.3 2.6-.8.8-.5 1.4-1.3 1.7-2.2.4-.9.5-1.9.3-2.8s-.5-1.8-1.2-2.5zm-.4 4.7c-.2.6-.7 1.1-1.2 1.5-1.1.7-2.5.7-3.6 0-.5-.4-1-.9-1.2-1.5-.3-.6-.3-1.3-.2-2 .2-.6.5-1.2 1-1.7l2.3-2.4 2.3 2.4c.5.5.8 1.1.9 1.7.1.7 0 1.4-.3 2z"></path></symbol><symbol viewBox="0 0 17.5 17.5" id="icon-filter"><path d="M4.8 4H3.5V.8c0-.5-.3-.8-.7-.8S2 .3 2 .8V4H.8c-.5 0-.8.3-.8.8v4c0 .4.3.8.8.8H2v7.2c0 .4.3.8.8.8s.8-.3.8-.8V9.5h1.2c.4 0 .8-.3.8-.8v-4c-.1-.4-.4-.7-.8-.7zM4 8H1.5V5.5H4V8zM10.8 10H9.5V.8c0-.5-.3-.8-.7-.8S8 .3 8 .8V10H6.8c-.5 0-.8.3-.8.8v4c0 .4.3.8.8.8H8v1.2c0 .4.3.8.8.8s.8-.3.8-.8v-1.2h1.2c.4 0 .8-.3.8-.8v-4c-.1-.5-.4-.8-.8-.8zm-.8 4H7.5v-2.5H10V14zM16.8 1h-1.2V.8c0-.4-.3-.8-.8-.8s-.8.3-.8.8V1h-1.2c-.5 0-.8.3-.8.8v4c0 .4.3.8.8.8H14v10.2c0 .4.3.8.8.8s.8-.3.8-.8V6.5h1.2c.4 0 .8-.3.8-.8v-4c-.1-.4-.4-.7-.8-.7zM16 5h-2.5V2.5H16V5z"></path></symbol><symbol viewBox="0 0 23.5 23.5" id="icon-gear"><path d="M11.8 8C9.7 8 8 9.7 8 11.8c0 2.1 1.7 3.8 3.8 3.8 2.1 0 3.8-1.7 3.8-3.8-.1-2.1-1.8-3.8-3.8-3.8zm0 6c-1.2 0-2.2-1-2.2-2.2 0-1.2 1-2.2 2.2-2.2 1.2 0 2.2 1 2.2 2.2 0 1.2-1 2.2-2.2 2.2z"></path><path d="M19.8 15c.1-.2.2-.3.3-.4.1-.1.3-.1.6-.1a2.732 2.732 0 0 0 2.7-2.7c0-.7-.3-1.4-.8-1.9S21.5 9 20.8 9h-.2c-.2 0-.3-.1-.5-.1l-.3-.3c0-.1 0-.1-.1-.2-.1-.2-.1-.3-.1-.5s.1-.3.3-.5c.3-.3.5-.6.6-.9.1-.3.2-.7.2-1.1s-.1-.7-.2-1.1c-.1-.3-.3-.6-.5-.9-.3-.3-.6-.5-.9-.6-.7-.3-1.4-.3-2.1 0-.3.2-.6.4-1 .7-.1.1-.3.2-.5.2s-.4 0-.5-.1c-.2-.1-.3-.2-.4-.3-.1-.1-.1-.3-.1-.6 0-.7-.3-1.4-.8-1.9-1-1-2.8-1-3.9 0-.5.5-.8 1.2-.8 2V3c0 .2-.1.3-.1.5-.1 0-.2.1-.3.2-.1 0-.1 0-.2.1h-.6c-.2 0-.3-.1-.5-.3-.2-.2-.5-.4-.9-.6-.6-.3-1.4-.3-2.1 0l-.9.6-.6.9c-.1.3-.2.7-.2 1.1 0 .4.1.7.2 1.1.2.2.4.5.7.9.1.1.2.3.2.5s0 .4-.1.6c0 .1-.1.2-.3.3-.1.1-.3.2-.5.2-.8 0-1.5.3-2 .8S0 11.1 0 11.8s.3 1.4.8 1.9 1.2.8 1.9.8h.2c.2 0 .3.1.5.1.1.1.3.2.3.4.1.2.1.3.1.5s-.1.3-.3.5c-.3.3-.5.6-.6.9-.1.3-.2.7-.2 1.1s.1.7.2 1.1c.1.3.3.6.6.9.3.3.6.5.9.6.7.3 1.4.3 2.1 0 .3-.1.6-.3.9-.7.1-.1.3-.2.5-.2s.4 0 .6.1c.2.1.3.2.4.3.1.1.2.3.2.6a2.732 2.732 0 0 0 2.7 2.7 2.732 2.732 0 0 0 2.7-2.7v-.2c0-.2.1-.3.1-.5.1-.1.2-.3.4-.3.2-.1.3-.1.5-.1s.3.1.5.3c.3.3.6.5.9.6.7.3 1.4.3 2.1 0 .3-.1.6-.3.9-.6.3-.3.5-.6.6-.9.1-.3.2-.7.2-1.1s-.1-.7-.2-1.1c-.1-.3-.3-.6-.7-.9-.1-.1-.2-.3-.2-.5.1 0 .2-.2.2-.4 0 .1 0 0 0 0zm-1.3-.5c-.2.4-.2.9-.2 1.4.1.5.3.9.7 1.3.1.1.2.3.3.4.1.2.1.3.1.5s0 .3-.1.5-.2.3-.3.4c-.1.1-.3.2-.4.3-.3.1-.7.1-1 0-.2-.1-.3-.2-.5-.3-.3-.3-.8-.6-1.2-.6-.5-.1-1 0-1.4.2-.4.2-.8.5-1.1.9-.3.4-.4.8-.4 1.3v.2c0 .3-.1.7-.4.9-.5.5-1.3.5-1.8 0-.2-.2-.4-.5-.4-.9v-.1c0-.5-.2-.9-.4-1.3-.3-.4-.7-.7-1.1-.8-.3-.1-.6-.2-1-.2h-.4c-.5.1-.9.3-1.3.7-.1.1-.3.2-.4.3-.3.1-.6.1-1 0-.2-.1-.3-.2-.4-.3-.1-.1-.2-.3-.3-.4-.1-.2-.1-.3-.1-.5s0-.3.1-.5.2-.3.3-.5c.3-.3.6-.8.6-1.2.1-.5 0-1-.2-1.4-.2-.4-.5-.8-.9-1.1-.4-.3-.8-.4-1.3-.4h.2c-.3 0-.7-.1-.9-.4-.2-.2-.4-.6-.4-.9 0-.3.1-.7.4-.9.2-.2.5-.4.9-.4h.1c.5 0 .9-.2 1.3-.4.4-.4.7-.8.8-1.2.2-.4.3-.9.2-1.4-.1-.5-.3-1-.7-1.4-.1-.1-.2-.2-.3-.4s-.1-.3-.1-.4 0-.3.1-.5.2-.3.3-.4c.1-.1.3-.2.4-.3.3-.1.7-.1 1 0 .1.1.2.2.4.3.4.4.8.6 1.3.7.4.1.8 0 1.2-.1.1 0 .2 0 .2-.1.4-.2.8-.5 1.1-.9.3-.4.4-.8.4-1.3v-.1c0-.3.1-.7.4-.9.5-.5 1.3-.5 1.8 0 .2.2.4.6.4 1 0 .5.1.9.4 1.3.3.4.6.7 1 .9.4.2.9.3 1.4.2.5-.1.9-.3 1.3-.7.1-.1.3-.2.4-.3.3-.1.7-.1 1 0 .2.1.3.2.4.3.1.1.2.3.3.4.1.2.1.3.1.5s0 .3-.1.5c-.2 0-.3.1-.4.3-.3.3-.6.8-.6 1.3-.1.4 0 .8.1 1.2 0 .1 0 .2.1.2.2.4.5.8.9 1.1.4.3.8.4 1.3.4h.2c.3 0 .7.1.9.4s.4.6.4.9-.1.7-.4.9c-.2.2-.6.4-1 .4-.5 0-.9.1-1.3.4-.5.2-.9.5-1 1z"></path></symbol><symbol viewBox="0 0 19.5 19.5" id="icon-grid"><path d="M7.9.8H1.4c-.4 0-.7.3-.7.7V8c0 .4.3.7.7.7h6.5c.4 0 .7-.3.7-.7V1.4c0-.3-.3-.6-.7-.6zm-.7 6.4H2.1V2.1h5.1v5.1zM18.1.8h-6.5c-.4 0-.7.3-.7.7V8c0 .4.3.7.7.7h6.5c.4 0 .7-.3.7-.7V1.4c0-.3-.4-.6-.7-.6zm-.7 6.4h-5.1V2.1h5.1v5.1zM18.1 10.9h-6.5c-.4 0-.7.3-.7.7v6.5c0 .4.3.7.7.7h6.5c.4 0 .7-.3.7-.7v-6.5c0-.4-.4-.7-.7-.7zm-.7 6.5h-5.1v-5.1h5.1v5.1zM7.9 10.9H1.4c-.4 0-.7.3-.7.7v6.5c0 .4.3.7.7.7h6.5c.4 0 .7-.3.7-.7v-6.5c0-.4-.3-.7-.7-.7zm-.7 6.5H2.1v-5.1h5.1v5.1z"></path></symbol><symbol viewBox="0 0 16.5 16.5" id="icon-help"><path d="M8.2 0C3.7 0 0 3.7 0 8.2s3.7 8.2 8.2 8.2 8.2-3.7 8.2-8.2S12.8 0 8.2 0zm0 15c-3.7 0-6.8-3-6.8-6.8 0-3.7 3-6.8 6.8-6.8 3.7 0 6.8 3 6.8 6.8S12 15 8.2 15z"></path><path d="M8.7 3.8c-.7-.1-1.4 0-2 .4-.6.3-1.1.9-1.3 1.6-.1.4.1.8.5 1 .4.1.8-.1 1-.5.1-.3.4-.6.7-.8.3-.2.7-.2 1-.2.3.1.7.2.9.5.2.3.4.6.4 1 0 .8-1.3 1.4-1.7 1.5-.6.1-.9.5-.7.9.1.3.4.5.7.5h.2c.3-.1 2.8-1 2.8-3 0-.7-.2-1.4-.7-1.9-.5-.5-1.1-.9-1.8-1zM8.3 11.2c-.4 0-.8.3-.8.8s.3.8.8.8.7-.4.7-.8-.3-.8-.7-.8z"></path></symbol><symbol viewBox="0 0 15 16.5" id="icon-home"><path d="M14.7 5.4L8 .2c-.3-.3-.7-.3-1 0L.3 5.4c-.2.2-.3.4-.3.6v8.2c0 .6.2 1.2.7 1.6.4.4 1 .7 1.6.7h10.5c.6 0 1.2-.2 1.6-.7s.7-1 .7-1.6V6c-.1-.2-.2-.4-.4-.6zm-1.2 8.8c0 .2-.1.4-.2.5s-.4.3-.5.3H2.2c-.2 0-.4-.1-.5-.2-.1-.1-.2-.3-.2-.5V6.4l6-4.7 6 4.7v7.8z"></path></symbol><symbol viewBox="0 0 19.5 23.5" id="icon-map-pin"><path d="M16.6 2.9C14.8 1 12.4 0 9.8 0 7.1 0 4.7 1 2.9 2.9 1 4.7 0 7.1 0 9.8c0 7.3 9 13.4 9.3 13.6.1.1.3.1.4.1s.3 0 .4-.1c.4-.3 9.3-6.3 9.3-13.6.1-2.7-.9-5.1-2.8-6.9zM9.8 21.8c-1.8-1.2-8.3-6.4-8.3-12 0-2.2.9-4.3 2.4-5.8s3.6-2.4 5.8-2.4c2.2 0 4.3.9 5.8 2.4C17.1 5.5 18 7.5 18 9.8c0 5.6-6.5 10.8-8.2 12z"></path><path d="M9.8 6C7.7 6 6 7.7 6 9.8s1.7 3.8 3.8 3.8c2.1 0 3.8-1.7 3.8-3.8S11.8 6 9.8 6zm0 6c-1.2 0-2.2-1-2.2-2.2s1-2.2 2.2-2.2c1.2 0 2.2 1 2.2 2.2S11 12 9.8 12z"></path></symbol><symbol viewBox="0 0 15 12.5" id="icon-menu"><path d="M14.2 7H.8C.3 7 0 6.7 0 6.2s.3-.8.8-.8h13.5c.4 0 .8.3.8.8s-.4.8-.9.8zM14.2 1.5H.8c-.5 0-.8-.3-.8-.7S.3 0 .8 0h13.5c.4 0 .7.3.7.8s-.3.7-.8.7zM14.2 12.5H.8c-.4 0-.8-.3-.8-.8s.3-.7.8-.7h13.5c.4 0 .8.3.8.8s-.4.7-.9.7z"></path></symbol><symbol viewBox="0 0 32 32" id="icon-minus"><path d="M6.667 16h18.667" stroke="#C02235" stroke-width="2" stroke-linecap="round" stroke-linejoin="round"></path></symbol><symbol viewBox="0 0 100 100" id="icon-play-bold"><rect width="100" height="100" rx="50" fill="#fff"></rect><path d="M68 50L41 65.588V34.412L68 50z" fill="#2D3134"></path></symbol><symbol viewBox="0 0 12 15" id="icon-play"><path d="M.8 15c-.1 0-.2 0-.4-.1-.3-.1-.4-.4-.4-.6V.8C0 .5.1.3.4.1c.2-.1.5-.1.8 0l10.5 6.8c.2.1.3.3.3.6s-.1.5-.3.6L1.2 14.9c-.2.1-.3.1-.4.1zm.7-12.9v10.8l8.4-5.4-8.4-5.4z"></path></symbol><symbol viewBox="0 0 32 32" id="icon-plus"><path d="M16 6.667v18.666M6.667 16h18.667" stroke="#22C074" stroke-width="2" stroke-linecap="round" stroke-linejoin="round"></path></symbol><symbol viewBox="0 0 21.5 21.5" id="icon-routing"><path d="M8.4 3.2C7.9 1 6 0 4.3 0 2.6 0 .6 1 .1 3.2-.3 5 .4 6.9 2.3 8.7c.6.5 1.3.8 2 .8s1.4-.3 2-.8C8.1 7 8.8 5 8.4 3.2zM3.3 7.6c-1-1-2.1-2.5-1.7-4.1.3-1.5 1.7-2 2.7-2 1 0 2.3.5 2.7 2 .4 1.7-.7 3.2-1.7 4.1-.6.5-1.5.5-2 0zM21.4 15.2C20.9 13 19 12 17.3 12s-3.6 1-4.2 3.2c-.4 1.9.3 3.8 2.2 5.5.6.5 1.3.8 2 .8s1.4-.3 2-.8c1.8-1.7 2.6-3.7 2.1-5.5zm-3.2 4.4c-.5.5-1.4.5-1.9 0-1-1-2.1-2.4-1.7-4.1.3-1.5 1.7-2 2.7-2s2.3.5 2.7 2c.3 1.7-.8 3.2-1.8 4.1zM10.8 17H8.1c-.6 0-1-.4-1.2-.8-.1-.4-.1-1 .3-1.4l8-7c.9-.8 1.2-2 .8-3-.4-1.1-1.4-1.8-2.5-1.8h-2.7c-.4 0-.8.3-.8.7s.3.8.8.8h2.7c.6 0 1 .4 1.2.8.1.4.1 1-.3 1.4l-8 7c-.9.8-1.2 1.9-.8 3 .4 1.1 1.4 1.8 2.6 1.8h2.7c.4 0 .8-.3.8-.8s-.5-.7-.9-.7z"></path><path d="M4.3 3.5c-.4 0-.8.3-.8.8s.4.7.8.7.7-.3.7-.8-.3-.7-.7-.7zM17.3 15.5c-.4 0-.8.3-.8.8 0 .4.3.8.8.8s.8-.3.8-.8c-.1-.5-.4-.8-.8-.8z"></path></symbol><symbol viewBox="0 0 19.5 16.5" id="icon-rows"><path d="M18.8 0H.8C.3 0 0 .3 0 .8v5c0 .4.3.8.8.8h18c.4 0 .8-.3.8-.8v-5c-.1-.5-.4-.8-.8-.8zM18 5H1.5V1.5H18V5zM18.8 10H.8c-.5 0-.8.3-.8.8v5c0 .4.3.8.8.8h18c.4 0 .8-.3.8-.8v-5c-.1-.5-.4-.8-.8-.8zm-.8 5H1.5v-3.5H18V15z"></path></symbol><symbol viewBox="0 0 15.5 19.5" id="icon-rub"><path d="M10 10.5c1.5 0 2.8-.5 3.9-1.5 1-1 1.6-2.3 1.6-3.7s-.6-2.7-1.6-3.7S11.5.1 10 .1H4.8C4.3 0 4 .3 4 .8V9H.8c-.5 0-.8.3-.8.8s.3.8.8.8H4V14H.8c-.5 0-.8.3-.8.8s.3.8.8.8H4v3.2c0 .4.3.8.8.8s.8-.3.8-.8v-3.2h7.2c.4 0 .8-.3.8-.8s-.4-.8-.8-.8H5.5v-3.5H10zm-4.5-9H10c1.1 0 2.1.4 2.8 1.1.8.7 1.2 1.7 1.2 2.6s-.4 1.9-1.2 2.6C12.1 8.6 11.1 9 10 9H5.5V1.5z"></path></symbol><symbol viewBox="0 0 19.5 19.5" id="icon-search"><path d="M8.8 17.5C3.9 17.5 0 13.6 0 8.8 0 3.9 3.9 0 8.8 0c4.8 0 8.8 3.9 8.8 8.8-.1 4.8-4 8.7-8.8 8.7zm0-16c-4 0-7.2 3.3-7.2 7.2 0 4 3.3 7.2 7.2 7.2 4 0 7.2-3.3 7.2-7.2 0-3.9-3.3-7.2-7.2-7.2z"></path><path d="M18.8 19.5c-.2 0-.4-.1-.5-.2L13.9 15c-.3-.3-.3-.8 0-1.1s.8-.3 1.1 0l4.4 4.3c.3.3.3.8 0 1.1-.3.1-.5.2-.6.2z"></path></symbol><symbol viewBox="0 0 22 22" id="icon-sewerage"><path d="M11 0C4.9 0 0 4.9 0 11s4.9 11 11 11 11-4.9 11-11S17.1 0 11 0zm0 20.5c-5.2 0-9.5-4.3-9.5-9.5S5.8 1.5 11 1.5s9.5 4.3 9.5 9.5-4.3 9.5-9.5 9.5z"></path><path d="M18.2 12.1h-3.4c.1-.3.2-.7.2-1.1 0-.4-.1-.7-.2-1.1h3c.3 0 .5-.1.7-.3l.2-.4-.1-.4C17.9 6.1 15.7 4 13 3.2c-.3-.1-.5 0-.7.1l-.3.3V7c-.3.1-.6 0-1 0s-.7.1-1.1.2v-3c0-.3-.1-.5-.3-.7l-.4-.3-.3.1c-2.7.8-4.8 2.9-5.6 5.6-.1.3 0 .5.1.7l.3.3h3.4c0 .4-.1.7-.1 1.1 0 .4.1.7.2 1.1h-3c-.3 0-.5.1-.7.3l-.2.4.1.4c.7 2.7 2.9 4.8 5.6 5.6h.2c.2 0 .4-.1.5-.2l.3-.3v-3.4c.3.1.7.2 1.1.2.4 0 .7-.1 1.1-.2v3c0 .3.1.5.3.7l.4.2.4-.1c2.7-.7 4.8-2.9 5.6-5.6.1-.3 0-.5-.1-.7l-.6-.3zM13.6 5c1.5.7 2.7 1.9 3.4 3.4h-3c-.1-.2-.3-.3-.5-.5V5zM5 8.4C5.7 6.9 6.9 5.7 8.4 5v2.9c-.1.2-.3.4-.4.5H5zM8.4 17c-1.5-.7-2.7-1.9-3.4-3.4h2.9l.5.5V17zm.1-6c0-1.4 1.1-2.5 2.5-2.5s2.5 1.1 2.5 2.5-1.1 2.5-2.5 2.5-2.5-1.1-2.5-2.5zm5.1 6v-3l.5-.5H17c-.7 1.6-1.9 2.8-3.4 3.5z"></path></symbol><symbol viewBox="0 0 21.5 23.7" id="icon-share"><path d="M17.2 15.2c-1.2 0-2.3.5-3.1 1.3L8.3 13c.1-.4.2-.8.2-1.2 0-.4-.1-.8-.2-1.2l5.9-3.4c.8.8 1.8 1.3 3 1.3 2.3 0 4.2-1.9 4.2-4.2S19.6 0 17.2 0 13 1.9 13 4.2c0 .4.1.8.2 1.2L7.3 8.9c-.8-.8-1.8-1.3-3.1-1.3C1.9 7.6 0 9.5 0 11.8 0 14.1 1.9 16 4.2 16c1.2 0 2.3-.5 3.1-1.3l5.9 3.4c-.1.5-.2.9-.2 1.3 0 2.3 1.9 4.2 4.2 4.2s4.2-1.9 4.2-4.2-1.8-4.2-4.2-4.2zm0-13.2c1.2 0 2.2 1 2.2 2.3s-1 2.2-2.2 2.2-2.2-1-2.2-2.3S16 2 17.2 2zm-13 12.1c-1.2 0-2.2-1-2.2-2.2 0-1.2 1-2.2 2.2-2.2s2.2 1 2.2 2.2c.1 1.2-.9 2.2-2.2 2.2zm13 7.6c-1.2 0-2.2-1-2.2-2.2 0-.4.1-.8.3-1.1.4-.7 1.1-1.1 1.9-1.1 1.2 0 2.2 1 2.2 2.2s-.9 2.2-2.2 2.2z"></path></symbol><symbol viewBox="0 0 19.5 19.5" id="icon-sign"><path d="M16.8 19.5h-4c-.4 0-.8-.3-.8-.8s.3-.8.8-.8h4c.3 0 .7-.1.9-.4s.4-.6.4-.9v-14c0-.3-.1-.7-.4-.9s-.6-.4-.9-.4h-4c-.4 0-.8-.3-.8-.8s.3-.5.8-.5h4a2.732 2.732 0 0 1 2.7 2.7v14c0 .7-.3 1.4-.8 1.9s-1.2.9-1.9.9z"></path><path d="M7.8 15.5c-.2 0-.4-.1-.5-.2-.3-.3-.3-.8 0-1.1l4.5-4.5-4.6-4.4c-.3-.3-.3-.8 0-1.1s.8-.3 1.1 0l5 5c.3.3.3.8 0 1.1l-5 5c-.2.1-.4.2-.5.2z"></path><path d="M12.8 10.5H.8c-.5 0-.8-.3-.8-.7S.3 9 .8 9h12c.4 0 .8.3.8.8s-.4.7-.8.7z"></path></symbol><symbol viewBox="0 0 15 15" id="icon-size"><path d="M12.5 14.6h-2.1c-.4 0-.8-.3-.8-.8s.3-.8.8-.8h2.1c.2 0 .4-.1.5-.2.1-.1.2-.3.2-.5v-2.1c0-.4.3-.8.8-.8s.8.3.8.8v2.1c0 .6-.2 1.1-.7 1.5-.6.5-1.1.8-1.6.8zm-7.8 0H2.5c-.6 0-1.1-.2-1.5-.7-.4-.4-.7-.9-.7-1.5v-2.1c0-.4.3-.8.8-.8s.8.3.8.8v2.1c0 .2.1.4.2.5.1.1.3.2.5.2h2.1c.4 0 .8.3.8.8-.2.4-.4.7-.8.7zm9.1-9.3c-.4 0-.8-.3-.8-.8v-2c0-.2-.1-.4-.2-.5-.1-.1-.3-.2-.5-.2h-2.1c-.4 0-.8-.3-.8-.8s.4-.7.8-.7h2.1c.6 0 1.1.2 1.5.7.4.4.7.9.7 1.5v2.1c.1.5-.2.7-.7.7zm-12.6 0c-.5 0-.8-.3-.8-.7V2.5c0-.6.2-1.1.7-1.5.4-.4.8-.6 1.4-.6h2.1c.4 0 .8.3.8.8s-.3.7-.7.7H2.5c-.2 0-.3 0-.5.1-.1.1-.1.3-.1.5v2.1c0 .5-.3.7-.7.7z"></path></symbol><symbol viewBox="0 0 17.5 19.5" id="icon-sort"><path d="M4.3.2C4.2.2 4.1.1 4 .1c-.1-.1-.4-.1-.5 0-.1 0-.2.1-.2.2l-3 3c-.3.3-.3.8 0 1.1s.8.3 1.1 0L3 2.6v16.2c0 .4.3.8.8.8s.8-.3.8-.8V2.6l1.7 1.7c.1.1.3.2.5.2s.4-.1.5-.2c.3-.3.3-.8 0-1.1l-3-3zM17.3 15.2c-.3-.3-.8-.3-1.1 0l-1.7 1.7V.8c0-.4-.3-.8-.8-.8s-.7.3-.7.8V17l-1.7-1.7c-.3-.3-.8-.3-1.1 0s-.3.8 0 1.1l3 3c.1.1.2.1.2.2.1 0 .2.1.3.1s.2 0 .3-.1c.1 0 .2-.1.2-.2l3-3c.4-.4.4-.9.1-1.2z"></path></symbol><symbol viewBox="0 0 20.5 19.6" id="icon-star"><path d="M9.4.6c.4-.7 1.4-.7 1.8 0l2.4 4.9c.1.2.4.4.7.5l5.4.8c.8.1 1.1 1.1.6 1.7l-3.9 3.8c-.2.2-.3.6-.3.9l.9 5.3c.1.8-.7 1.4-1.5 1.1L10.7 17c-.3-.2-.6-.2-.9 0L5 19.5c-.7.4-1.6-.2-1.5-1.1l.9-5.3c.1-.3-.1-.7-.3-.9L.3 8.4c-.6-.5-.3-1.5.6-1.7L6.2 6c.3 0 .6-.3.8-.5L9.4.6z"></path></symbol><symbol viewBox="0 0 15.5 19.5" id="icon-user"><path d="M7.8 9.5C5.1 9.5 3 7.4 3 4.8S5.1 0 7.8 0s4.8 2.1 4.8 4.8-2.2 4.7-4.8 4.7zm0-8C6 1.5 4.5 3 4.5 4.8S6 8 7.8 8 11 6.5 11 4.8 9.5 1.5 7.8 1.5zM14.8 19.5c-.4 0-.8-.3-.8-.8v-2c0-.8-.4-1.6-1.1-2.3-.7-.6-1.8-1-2.8-1H5.4c-1.1 0-2.1.4-2.8 1-.7.6-1.1 1.4-1.1 2.3v2c0 .4-.3.8-.8.8s-.7-.3-.7-.7v-2c0-1.3.6-2.5 1.6-3.4 1-.9 2.4-1.4 3.8-1.4h4.7c1.4 0 2.8.5 3.8 1.4 1 .9 1.6 2.1 1.6 3.4v2c0 .4-.3.7-.7.7z"></path></symbol><symbol viewBox="0 0 18 12" id="icon-video"><path d="M17.6 1.6c-.2-.1-.6-.1-.8.1l-4.1 2.9V2.2c0-1.2-1-2.2-2.2-2.2H2.2C1 0 0 1 0 2.2v7.5C0 11 1 12 2.2 12h8.2c1.2 0 2.2-1 2.2-2.2V7.5l4.1 2.9c.1.1.3.1.4.1.1 0 .2 0 .3-.1.4-.1.6-.4.6-.6V2.2c0-.2-.2-.5-.4-.6zm-6.4 8.2c0 .4-.3.8-.8.8H2.2c-.4 0-.8-.3-.8-.8V2.2c0-.4.3-.8.8-.8h8.2c.4 0 .8.3.8.8v7.6zm5.3-1.5L13.3 6l3.2-2.3v4.6z"></path></symbol><symbol viewBox="0 0 40 40" id="icon-vk"><g opacity=".3"><rect width="40" height="40" rx="4" fill="#fff"></rect><path fill-rule="evenodd" clip-rule="evenodd" d="M30.972 15.813c.16-.469 0-.813-.76-.813h-2.517c-.64 0-.934.297-1.094.625 0 0-1.28 2.74-3.093 4.52-.586.515-.853.679-1.173.679-.16 0-.391-.164-.391-.632v-4.38c0-.562-.186-.812-.72-.812h-3.953c-.4 0-.64.26-.64.508 0 .533.906.656 1 2.155v3.255c0 .714-.147.843-.467.843-.853 0-2.928-2.752-4.159-5.902-.241-.612-.483-.859-1.126-.859H9.363c-.72 0-.863.297-.863.625 0 .586.853 3.49 3.972 7.33C14.552 25.578 17.481 27 20.147 27c1.6 0 1.797-.316 1.797-.86v-1.982c0-.632.151-.758.658-.758.373 0 1.013.164 2.506 1.429C26.814 26.327 27.095 27 28.055 27h2.516c.719 0 1.078-.316.87-.939-.226-.621-1.04-1.522-2.121-2.59-.587-.61-1.467-1.265-1.733-1.593-.373-.422-.267-.609 0-.983 0 0 3.065-3.794 3.385-5.082z" fill="#2D3134"></path></g></symbol><symbol viewBox="0 0 41.3 41.3" id="icon-warning"><path d="M20.7 41.3C9.3 41.3 0 32.1 0 20.7 0 9.3 9.3 0 20.7 0c11.4 0 20.7 9.3 20.7 20.7-.1 11.4-9.3 20.6-20.7 20.6zm0-38.3C10.9 3 3 10.9 3 20.7c0 9.7 7.9 17.7 17.7 17.7 9.7 0 17.7-7.9 17.7-17.7-.1-9.8-8-17.7-17.7-17.7z"></path><path d="M20.7 29.8c-.8 0-1.5-.7-1.5-1.5v-7.7c0-.8.7-1.5 1.5-1.5s1.5.7 1.5 1.5v7.7c0 .9-.7 1.5-1.5 1.5zM20.7 14.5c-.8 0-1.5-.7-1.5-1.5s.7-1.5 1.5-1.5 1.5.7 1.5 1.5-.7 1.5-1.5 1.5z"></path></symbol><symbol viewBox="0 0 17.5 20.8" id="icon-water"><path d="M17.3 10.4c-.3-1.7-1.2-3.3-2.4-4.5L9.3.2C9.1.1 8.9 0 8.7 0c-.2 0-.3.1-.5.2L2.6 5.9C1.4 7.1.5 8.7.2 10.4c-.3 1.7-.2 3.5.5 5.1s1.8 3 3.2 3.9c1.4 1 3.1 1.5 4.9 1.5 1.7 0 3.4-.5 4.9-1.5 1.4-1 2.6-2.3 3.2-3.9.6-1.7.8-3.4.4-5.1zm-1.9 4.4c-.6 1.3-1.5 2.5-2.7 3.3-2.4 1.6-5.7 1.6-8.1 0-1.2-.8-2.1-1.9-2.7-3.3-.6-1.3-.7-2.8-.4-4.2.3-1.4 1-2.7 2-3.7l5.1-5.1 5.1 5.1c1 1 1.7 2.3 2 3.7.4 1.5.3 2.9-.3 4.2z"></path></symbol><symbol viewBox="0 0 40 40" id="icon-youtube"><g opacity=".3"><rect width="40" height="40" rx="4" fill="#fff"></rect><path d="M29.593 15.203a2.506 2.506 0 0 0-1.762-1.766C26.265 13.007 20 13 20 13s-6.264-.007-7.831.404a2.562 2.562 0 0 0-1.766 1.778c-.413 1.566-.417 4.814-.417 4.814s-.004 3.264.406 4.814c.23.857.905 1.534 1.763 1.765 1.582.43 7.83.437 7.83.437s6.265.007 7.83-.403a2.515 2.515 0 0 0 1.768-1.763c.414-1.565.417-4.812.417-4.812s.02-3.265-.407-4.831zm-11.597 7.802l.005-6 5.207 3.005-5.212 2.995z" fill="#2D3134"></path></g></symbol><symbol viewBox="0 0 19.5 21.5" id="icon-zap"><path d="M19.4 8.4c-.1-.2-.4-.4-.6-.4h-8.2l.9-7.2c0-.3-.1-.6-.4-.8-.3-.1-.7 0-.9.2l-10 12c-.2.2-.2.5-.1.8s.4.4.7.4H9l-1 7.3c0 .3.1.6.4.8.1 0 .2.1.3.1.2 0 .4-.1.6-.3l10-12c.2-.3.3-.6.1-.9zm-9.6 9.9l.7-5.5c0-.2 0-.4-.2-.6-.1-.1-.3-.2-.5-.2H2.4l7.3-8.8L9 8.7c0 .2 0 .4.2.6.1.2.3.3.6.3h7.4l-7.4 8.7z"></path></symbol><symbol viewBox="0 0 72 72" id="icon-zoom"><path d="M32.2 64.3C14.4 64.3 0 49.9 0 32.2S14.4 0 32.2 0s32.2 14.4 32.2 32.2-14.5 32.1-32.2 32.1zm0-61.3C16.1 3 3 16.1 3 32.2s13.1 29.2 29.2 29.2 29.2-13.1 29.2-29.2S48.2 3 32.2 3zM70.5 72c-.4 0-.8-.1-1.1-.4L52.8 54.9c-.6-.6-.6-1.5 0-2.1s1.5-.6 2.1 0l16.7 16.7c.6.6.6 1.5 0 2.1-.3.3-.7.4-1.1.4z"></path><path d="M32.2 45.2c-.8 0-1.5-.7-1.5-1.5v-23c0-.8.7-1.5 1.5-1.5s1.5.7 1.5 1.5v23c0 .8-.7 1.5-1.5 1.5z"></path><path d="M43.7 33.7h-23c-.8 0-1.5-.7-1.5-1.5s.7-1.5 1.5-1.5h23c.8 0 1.5.7 1.5 1.5s-.7 1.5-1.5 1.5z"></path></symbol></svg>