<svg xmlns="http://www.w3.org/2000/svg" style="position:absolute; width: 0; height: 0"><symbol viewBox="0 0 10 5.5" id="icon-arrow-bottom"><path d="M5 5.5c-.1 0-.3 0-.4-.1L.1.9C0 .7 0 .3.1.1s.5-.2.7 0L5 4.3 9.1.2c.2-.2.6-.2.8-.1s.2.5 0 .7L5.4 5.4c-.1.1-.3.1-.4.1z"></path></symbol><symbol viewBox="0 0 19.5 19.5" id="icon-search"><path d="M8.8 17.5C3.9 17.5 0 13.6 0 8.8 0 3.9 3.9 0 8.8 0c4.8 0 8.8 3.9 8.8 8.8-.1 4.8-4 8.7-8.8 8.7zm0-16c-4 0-7.2 3.3-7.2 7.2 0 4 3.3 7.2 7.2 7.2 4 0 7.2-3.3 7.2-7.2 0-3.9-3.3-7.2-7.2-7.2z"></path><path d="M18.8 19.5c-.2 0-.4-.1-.5-.2L13.9 15c-.3-.3-.3-.8 0-1.1s.8-.3 1.1 0l4.4 4.3c.3.3.3.8 0 1.1-.3.1-.5.2-.6.2z"></path></symbol><symbol viewBox="0 0 19.5 19.5" id="icon-sign"><path d="M16.8 19.5h-4c-.4 0-.8-.3-.8-.8s.3-.8.8-.8h4c.3 0 .7-.1.9-.4s.4-.6.4-.9v-14c0-.3-.1-.7-.4-.9s-.6-.4-.9-.4h-4c-.4 0-.8-.3-.8-.8s.3-.5.8-.5h4a2.732 2.732 0 0 1 2.7 2.7v14c0 .7-.3 1.4-.8 1.9s-1.2.9-1.9.9z"></path><path d="M7.8 15.5c-.2 0-.4-.1-.5-.2-.3-.3-.3-.8 0-1.1l4.5-4.5-4.6-4.4c-.3-.3-.3-.8 0-1.1s.8-.3 1.1 0l5 5c.3.3.3.8 0 1.1l-5 5c-.2.1-.4.2-.5.2z"></path><path d="M12.8 10.5H.8c-.5 0-.8-.3-.8-.7S.3 9 .8 9h12c.4 0 .8.3.8.8s-.4.7-.8.7z"></path></symbol><symbol viewBox="0 0 40 40" id="icon-youtube"><g opacity=".3"><rect width="40" height="40" rx="4" fill="#fff"></rect><path d="M29.593 15.203a2.506 2.506 0 0 0-1.762-1.766C26.265 13.007 20 13 20 13s-6.264-.007-7.831.404a2.562 2.562 0 0 0-1.766 1.778c-.413 1.566-.417 4.814-.417 4.814s-.004 3.264.406 4.814c.23.857.905 1.534 1.763 1.765 1.582.43 7.83.437 7.83.437s6.265.007 7.83-.403a2.515 2.515 0 0 0 1.768-1.763c.414-1.565.417-4.812.417-4.812s.02-3.265-.407-4.831zm-11.597 7.802l.005-6 5.207 3.005-5.212 2.995z" fill="#2D3134"></path></g></symbol></svg>