<svg width="40" height="40" fill="none" xmlns="http://www.w3.org/2000/svg"><g opacity=".3"><rect width="40" height="40" rx="4" fill="#fff"/><path fill-rule="evenodd" clip-rule="evenodd" d="M30.972 15.813c.16-.469 0-.813-.76-.813h-2.517c-.64 0-.934.297-1.094.625 0 0-1.28 2.74-3.093 4.52-.586.515-.853.679-1.173.679-.16 0-.391-.164-.391-.632v-4.38c0-.562-.186-.812-.72-.812h-3.953c-.4 0-.64.26-.64.508 0 .533.906.656 1 2.155v3.255c0 .714-.147.843-.467.843-.853 0-2.928-2.752-4.159-5.902-.241-.612-.483-.859-1.126-.859H9.363c-.72 0-.863.297-.863.625 0 .586.853 3.49 3.972 7.33C14.552 25.578 17.481 27 20.147 27c1.6 0 1.797-.316 1.797-.86v-1.982c0-.632.151-.758.658-.758.373 0 1.013.164 2.506 1.429C26.814 26.327 27.095 27 28.055 27h2.516c.719 0 1.078-.316.87-.939-.226-.621-1.04-1.522-2.121-2.59-.587-.61-1.467-1.265-1.733-1.593-.373-.422-.267-.609 0-.983 0 0 3.065-3.794 3.385-5.082z" fill="#2D3134"/></g></svg>