<svg width="40" height="40" fill="none" xmlns="http://www.w3.org/2000/svg"><g opacity=".3"><rect width="40" height="40" rx="4" fill="#fff"/><path d="M29.593 15.203a2.506 2.506 0 00-1.762-1.766C26.265 13.007 20 13 20 13s-6.264-.007-7.831.404a2.562 2.562 0 00-1.766 1.778c-.413 1.566-.417 4.814-.417 4.814s-.004 3.264.406 4.814c.23.857.905 1.534 1.763 1.765 1.582.43 7.83.437 7.83.437s6.265.007 7.83-.403a2.515 2.515 0 001.768-1.763c.414-1.565.417-4.812.417-4.812s.02-3.265-.407-4.831zm-11.597 7.802l.005-6 5.207 3.005-5.212 2.995z" fill="#2D3134"/></g></svg>