<svg xmlns="http://www.w3.org/2000/svg" viewBox="0 0 72 72"><path d="M32.2 64.3C14.4 64.3 0 49.9 0 32.2S14.4 0 32.2 0s32.2 14.4 32.2 32.2-14.5 32.1-32.2 32.1zm0-61.3C16.1 3 3 16.1 3 32.2s13.1 29.2 29.2 29.2 29.2-13.1 29.2-29.2S48.2 3 32.2 3z"/><path d="M70.5 72c-.4 0-.8-.1-1.1-.4L52.8 54.9c-.6-.6-.6-1.5 0-2.1s1.5-.6 2.1 0l16.7 16.7c.6.6.6 1.5 0 2.1-.3.3-.7.4-1.1.4zM32.2 45.2c-.8 0-1.5-.7-1.5-1.5v-23c0-.8.7-1.5 1.5-1.5s1.5.7 1.5 1.5v23c0 .8-.7 1.5-1.5 1.5z"/><path d="M43.7 33.7h-23c-.8 0-1.5-.7-1.5-1.5s.7-1.5 1.5-1.5h23c.8 0 1.5.7 1.5 1.5s-.7 1.5-1.5 1.5z"/></svg>