<svg width="62" height="62" fill="none" xmlns="http://www.w3.org/2000/svg"><path fill-rule="evenodd" clip-rule="evenodd" d="M31 2.98c.446 0 .89.011 1.33.032a10.134 10.134 0 00-.436 2.95c0 1.989.573 3.844 1.563 5.41a13.056 13.056 0 00-1.563 6.215c0 7.243 5.872 13.115 13.116 13.115 2.342 0 4.54-.614 6.444-1.69 1.377.7 2.934 1.094 4.584 1.094 1.026 0 2.017-.153 2.95-.436.02.44.031.884.031 1.33 0 15.475-12.544 28.02-28.02 28.02C15.526 59.02 2.982 46.474 2.982 31S15.525 2.98 31 2.98z" fill="url(#paint0_radial_716_174571)"/><path d="M12.52 30.94l5.9-5.902 6.956 6.956-5.901 5.902-6.956-6.956z" fill="url(#paint1_linear_716_174571)"/><path opacity=".5" d="M33.086 49.123l5.902-5.902 6.956 6.956-5.902 5.901-6.956-6.955z" fill="url(#paint2_linear_716_174571)"/><g opacity=".5"><path d="M44.182 36.98l2.873-2.873 3.385 3.386-2.872 2.872-3.386-3.385z" fill="url(#paint3_linear_716_174571)"/><path d="M44.182 36.98l2.873-2.873 3.385 3.386-2.872 2.872-3.386-3.385z" fill="url(#paint4_linear_716_174571)"/></g><path d="M27.125 32.68l2.872-2.872 3.386 3.385-2.873 2.873-3.385-3.386z" fill="url(#paint5_linear_716_174571)"/><path d="M21.164 16.882l2.872-2.872 3.385 3.385-2.872 2.872-3.385-3.385z" fill="url(#paint6_linear_716_174571)"/><path d="M17.774 47.175l4.566-4.566 5.381 5.381-4.566 4.566-5.381-5.381z" fill="url(#paint7_linear_716_174571)"/><path d="M19.971 28.317a4.173 4.173 0 11-8.346 0 4.173 4.173 0 018.346 0z" fill="url(#paint8_radial_716_174571)"/><path d="M40.538 46.5a4.173 4.173 0 11-8.346 0 4.173 4.173 0 018.346 0z" fill="#875F3A"/><path d="M40.538 46.5a4.173 4.173 0 11-8.346 0 4.173 4.173 0 018.346 0z" fill="url(#paint9_radial_716_174571)"/><path d="M23.25 44.712a3.279 3.279 0 11-6.558 0 3.279 3.279 0 016.558 0z" fill="#875F3A"/><path d="M23.25 44.712a3.279 3.279 0 11-6.558 0 3.279 3.279 0 016.558 0z" fill="url(#paint10_radial_716_174571)"/><path d="M51.27 6.26a3.279 3.279 0 11-6.559 0 3.279 3.279 0 016.558 0z" fill="#FEB83F"/><path d="M51.27 6.26a3.279 3.279 0 11-6.559 0 3.279 3.279 0 016.558 0z" fill="url(#paint11_radial_716_174571)"/><path d="M31 31.596a2.087 2.087 0 11-4.173 0 2.087 2.087 0 014.173 0z" fill="#875F3A"/><path d="M31 31.596a2.087 2.087 0 11-4.173 0 2.087 2.087 0 014.173 0z" fill="url(#paint12_radial_716_174571)"/><path d="M47.99 15.798a2.087 2.087 0 11-4.173 0 2.087 2.087 0 014.173 0z" fill="#FEB83F"/><path d="M47.99 15.798a2.087 2.087 0 11-4.173 0 2.087 2.087 0 014.173 0z" fill="url(#paint13_radial_716_174571)"/><path d="M59.02 19.971a2.087 2.087 0 11-4.174 0 2.087 2.087 0 014.173 0z" fill="#FEB83F"/><path d="M59.02 19.971a2.087 2.087 0 11-4.174 0 2.087 2.087 0 014.173 0z" fill="url(#paint14_radial_716_174571)"/><path d="M25.337 16.096a2.087 2.087 0 11-4.173 0 2.087 2.087 0 014.173 0z" fill="#875F3A"/><path d="M25.337 16.096a2.087 2.087 0 11-4.173 0 2.087 2.087 0 014.173 0z" fill="url(#paint15_radial_716_174571)"/><path d="M47.99 35.77a2.087 2.087 0 11-4.173 0 2.087 2.087 0 014.173 0z" fill="#875F3A"/><path d="M47.99 35.77a2.087 2.087 0 11-4.173 0 2.087 2.087 0 014.173 0z" fill="url(#paint16_radial_716_174571)"/><defs><radialGradient id="paint0_radial_716_174571" cx="0" cy="0" r="1" gradientUnits="userSpaceOnUse" gradientTransform="rotate(47.029 -11.054 19.068) scale(53.5697)"><stop offset=".372" stop-color="#FBC363"/><stop offset="1" stop-color="#EA990D"/></radialGradient><radialGradient id="paint8_radial_716_174571" cx="0" cy="0" r="1" gradientUnits="userSpaceOnUse" gradientTransform="rotate(45 -23.772 28.605) scale(9.27398)"><stop offset=".216" stop-color="#A0764F"/><stop offset="1" stop-color="#674424"/></radialGradient><radialGradient id="paint9_radial_716_174571" cx="0" cy="0" r="1" gradientUnits="userSpaceOnUse" gradientTransform="rotate(45 -35.437 62.524) scale(9.27398)"><stop offset=".216" stop-color="#A0764F"/><stop offset="1" stop-color="#674424"/></radialGradient><radialGradient id="paint10_radial_716_174571" cx="0" cy="0" r="1" gradientUnits="userSpaceOnUse" gradientTransform="rotate(45 -42.013 42.83) scale(7.2867)"><stop offset=".216" stop-color="#A0764F"/><stop offset="1" stop-color="#674424"/></radialGradient><radialGradient id="paint11_radial_716_174571" cx="0" cy="0" r="1" gradientUnits="userSpaceOnUse" gradientTransform="rotate(47.029 17.863 54.525) scale(6.2688)"><stop offset=".372" stop-color="#FBC363"/><stop offset="1" stop-color="#FDB333"/></radialGradient><radialGradient id="paint12_radial_716_174571" cx="0" cy="0" r="1" gradientUnits="userSpaceOnUse" gradientTransform="rotate(45 -22.428 48.388) scale(4.63699)"><stop offset=".216" stop-color="#A0764F"/><stop offset="1" stop-color="#674424"/></radialGradient><radialGradient id="paint13_radial_716_174571" cx="0" cy="0" r="1" gradientUnits="userSpaceOnUse" gradientTransform="rotate(47.029 5.473 58.26) scale(3.98924)"><stop offset=".372" stop-color="#FBC363"/><stop offset="1" stop-color="#FDB333"/></radialGradient><radialGradient id="paint14_radial_716_174571" cx="0" cy="0" r="1" gradientUnits="userSpaceOnUse" gradientTransform="rotate(47.029 6.193 73.02) scale(3.98924)"><stop offset=".372" stop-color="#FBC363"/><stop offset="1" stop-color="#FDB333"/></radialGradient><radialGradient id="paint15_radial_716_174571" cx="0" cy="0" r="1" gradientUnits="userSpaceOnUse" gradientTransform="rotate(45 -6.55 33.802) scale(4.63699)"><stop offset=".216" stop-color="#A0764F"/><stop offset="1" stop-color="#674424"/></radialGradient><radialGradient id="paint16_radial_716_174571" cx="0" cy="0" r="1" gradientUnits="userSpaceOnUse" gradientTransform="rotate(45 -18.97 70.984) scale(4.63699)"><stop offset=".216" stop-color="#A0764F"/><stop offset="1" stop-color="#674424"/></radialGradient><linearGradient id="paint1_linear_716_174571" x1="15.47" y1="27.989" x2="22.426" y2="34.945" gradientUnits="userSpaceOnUse"><stop stop-color="#C88E2B"/><stop offset="1" stop-color="#E4AF53" stop-opacity="0"/></linearGradient><linearGradient id="paint2_linear_716_174571" x1="36.037" y1="46.172" x2="42.993" y2="53.127" gradientUnits="userSpaceOnUse"><stop stop-color="#A97315"/><stop offset="1" stop-color="#A97315" stop-opacity="0"/></linearGradient><linearGradient id="paint3_linear_716_174571" x1="45.618" y1="35.544" x2="49.004" y2="38.929" gradientUnits="userSpaceOnUse"><stop stop-color="#C88E2B"/><stop offset="1" stop-color="#E4AF53" stop-opacity="0"/></linearGradient><linearGradient id="paint4_linear_716_174571" x1="45.618" y1="35.544" x2="49.004" y2="38.929" gradientUnits="userSpaceOnUse"><stop stop-color="#A97315"/><stop offset="1" stop-color="#A97315" stop-opacity="0"/></linearGradient><linearGradient id="paint5_linear_716_174571" x1="28.561" y1="31.244" x2="31.947" y2="34.629" gradientUnits="userSpaceOnUse"><stop stop-color="#AE7C25"/><stop offset="1" stop-color="#E4AF53" stop-opacity="0"/></linearGradient><linearGradient id="paint6_linear_716_174571" x1="22.6" y1="15.446" x2="25.985" y2="18.831" gradientUnits="userSpaceOnUse"><stop stop-color="#9F7326"/><stop offset="1" stop-color="#E4AF53" stop-opacity="0"/></linearGradient><linearGradient id="paint7_linear_716_174571" x1="20.057" y1="44.892" x2="25.438" y2="50.273" gradientUnits="userSpaceOnUse"><stop stop-color="#C88E2B"/><stop offset="1" stop-color="#E4AF53" stop-opacity="0"/></linearGradient></defs></svg>