<svg width="108" height="57" fill="none" xmlns="http://www.w3.org/2000/svg"><path d="M91.116 54.176c-.42.452-.84.766-1.54.766-1.016 0-1.716-.836-1.716-1.915 0-1.08.7-1.915 1.716-1.915.595 0 1.05.244 1.435.662l1.47-1.15c-.63-.765-1.505-1.322-2.87-1.322-2.171 0-3.817 1.636-3.817 3.725 0 2.158 1.646 3.725 3.712 3.725 1.505 0 2.416-.592 3.08-1.462l-1.47-1.114zm-61.942-2.994h-2.171v-1.74h6.338v1.74H31.17v5.43h-1.996v-5.43zm20.029-1.741h1.995v2.68h2.557v-2.68h1.995v7.172h-1.995v-2.716h-2.556v2.716h-1.996V49.44zm8.123 0h1.856l2.976 3.795V49.44h1.996v7.172h-1.75l-3.117-3.934v3.934h-1.96V49.44zm7.984 3.586c0-2.054 1.68-3.725 3.887-3.725 2.24 0 3.886 1.636 3.886 3.725 0 2.054-1.68 3.725-3.886 3.725-2.241 0-3.887-1.636-3.887-3.725zm5.743 0c0-1.044-.736-1.95-1.856-1.95-1.086 0-1.821.87-1.821 1.95 0 1.044.77 1.95 1.856 1.95 1.085 0 1.82-.906 1.82-1.95zm3.186-3.586h1.856l2.976 3.795V49.44h1.996v7.172h-1.751l-3.081-3.934v3.934h-1.996V49.44zm10.364 0h-1.996v7.172h1.996V49.44zm8.509 3.586c0-2.054 1.681-3.725 3.887-3.725 2.241 0 3.887 1.636 3.887 3.725 0 2.054-1.681 3.725-3.887 3.725-2.241 0-3.887-1.636-3.887-3.725zm5.708 0c0-1.044-.77-1.95-1.856-1.95-1.085 0-1.82.87-1.82 1.95 0 1.044.77 1.95 1.855 1.95 1.12 0 1.82-.906 1.82-1.95zm3.221-3.586h1.996v5.431h3.501v1.74h-5.497v-7.17zm-55.464 4.735c-.42.452-.84.766-1.54.766-1.016 0-1.717-.836-1.717-1.915 0-1.08.7-1.915 1.716-1.915.595 0 1.05.244 1.436.662l1.47-1.15c-.63-.765-1.505-1.322-2.87-1.322-2.172 0-3.818 1.636-3.818 3.725 0 2.158 1.646 3.725 3.712 3.725 1.506 0 2.416-.592 3.081-1.462l-1.47-1.114zm-12.186-4.735h5.778v1.706h-3.817v1.08h3.467v1.566h-3.467v1.149h3.887v1.67H34.39v-7.17zm8.929-19.739c0-8.146 6.373-13.716 14.602-13.716 8.263 0 14.601 5.57 14.601 13.716 0 8.147-6.373 13.717-14.601 13.717-8.229.035-14.602-5.57-14.602-13.717zm21.01 0c0-3.69-2.521-6.649-6.408-6.649-3.887 0-6.408 2.96-6.408 6.65 0 3.69 2.521 6.649 6.408 6.649 3.887 0 6.408-2.96 6.408-6.65zm34.91 13.264V26.987l-5.988 15.98h-3.606l-5.953-15.98v15.98h-8.088V16.403h11.17l4.691 12.741 4.693-12.741h11.169v26.562H99.24zM26.093 16.404h-4.307l-7.599 5.326v21.236h11.976c8.369 0 14.601-4.804 14.601-13.299 0-8.494-6.233-13.263-14.671-13.263zm0 19.565H22.24V23.436h3.887c4.307 0 6.408 2.68 6.408 6.232 0 3.342-2.382 6.3-6.443 6.3z" fill="#fff"/><path d="M8.41 18.18l12.956-9.017c.28-.21.385-.383.385-.905l.035-7.416c0-.487 0-.765-.666-.243l-8.754 6.057c-.385.279-.455.14-.455-.487V3.314c0-.348-.14-.557-.455-.557H4.558c-.35 0-.455.244-.455.592l.035 8.39c0 .661.105.835-.21 1.183L.95 15.012c-.525.347-.455.347-.455.87V56.02c0 .348.28.627.596.627H21.12c.35 0 .63-.279.63-.592v-5.988c0-.313-.28-.592-.63-.592L8.2 49.51c-.21 0-.386-.174-.386-.348L7.71 19.607c-.035-.975-.035-.905.7-1.428z" fill="#fff"/></svg>