<svg width="113" height="60" fill="none" xmlns="http://www.w3.org/2000/svg"><path d="M95.527 57.285c-.442.475-.884.804-1.62.804-1.068 0-1.804-.877-1.804-2.01 0-1.134.736-2.011 1.804-2.011.626 0 1.105.256 1.51.694l1.546-1.206c-.663-.804-1.583-1.389-3.02-1.389-2.282 0-4.012 1.718-4.012 3.911 0 2.267 1.73 3.912 3.902 3.912 1.584 0 2.54-.622 3.24-1.536l-1.546-1.17zm-65.131-3.144h-2.282v-1.828h6.664v1.828h-2.283v5.702h-2.098v-5.702zm21.06-1.828h2.099v2.815h2.687v-2.815h2.099v7.53h-2.099v-2.85h-2.687v2.85h-2.099v-7.53zm8.542 0h1.95l3.13 3.985v-3.985h2.099v7.53h-1.84l-3.278-4.13v4.13h-2.061v-7.53zm8.394 3.765c0-2.156 1.767-3.91 4.087-3.91 2.356 0 4.087 1.717 4.087 3.91 0 2.157-1.768 3.912-4.087 3.912-2.356 0-4.087-1.718-4.087-3.912zm6.038 0c0-1.096-.773-2.047-1.951-2.047-1.141 0-1.915.914-1.915 2.047 0 1.097.81 2.047 1.952 2.047 1.141 0 1.914-.95 1.914-2.047zm3.35-3.765h1.952l3.13 3.985v-3.985h2.098v7.53h-1.84l-3.24-4.13v4.13h-2.1v-7.53zm10.899 0H86.58v7.53h2.099v-7.53zm8.947 3.765c0-2.156 1.767-3.91 4.086-3.91 2.357 0 4.087 1.717 4.087 3.91 0 2.157-1.767 3.912-4.087 3.912-2.356 0-4.087-1.718-4.087-3.912zm6.001 0c0-1.096-.81-2.047-1.952-2.047-1.141 0-1.914.914-1.914 2.047 0 1.097.81 2.047 1.951 2.047 1.178 0 1.915-.95 1.915-2.047zm3.387-3.765h2.099v5.703h3.682v1.827h-5.781v-7.53zm-58.319 4.972c-.442.475-.884.804-1.62.804-1.068 0-1.804-.877-1.804-2.01 0-1.134.736-2.011 1.804-2.011.626 0 1.104.256 1.51.694l1.546-1.206c-.663-.804-1.583-1.389-3.02-1.389-2.282 0-4.012 1.718-4.012 3.911 0 2.267 1.73 3.912 3.902 3.912 1.584 0 2.54-.622 3.24-1.536l-1.546-1.17zm-12.813-4.972h6.075v1.791h-4.013v1.134h3.645v1.645h-3.645v1.206h4.086v1.754h-6.148v-7.53zm9.388-20.726c0-8.553 6.701-14.402 15.353-14.402 8.69 0 15.354 5.849 15.354 14.402 0 8.554-6.701 14.402-15.354 14.402-8.652.037-15.352-5.848-15.352-14.401zm22.091 0c0-3.874-2.65-6.981-6.738-6.981-4.086 0-6.737 3.107-6.737 6.981 0 3.875 2.65 6.982 6.737 6.982s6.738-3.107 6.738-6.982zm36.707 13.927V28.736l-6.296 16.778H93.98l-6.259-16.778v16.778h-8.505v-27.89h11.745l4.934 13.379 4.933-13.379h11.745v27.89h-8.505zm-76.912-27.89h-4.528l-7.99 5.593v22.297H27.23c8.8 0 15.353-5.044 15.353-13.963 0-8.92-6.554-13.927-15.427-13.927zm0 20.543h-4.05v-13.16h4.087c4.529 0 6.738 2.816 6.738 6.544 0 3.509-2.504 6.616-6.775 6.616z" fill="#54555A"/><path d="M8.563 19.488l13.623-9.467c.294-.22.405-.402.405-.95l.037-7.786c0-.512 0-.805-.7-.256l-9.204 6.36c-.405.292-.479.146-.479-.512V3.88c0-.366-.147-.585-.478-.585H4.513c-.368 0-.478.256-.478.621l.037 8.81c0 .694.11.877-.221 1.243L.72 16.162c-.552.365-.478.365-.478.914v42.146c0 .365.294.658.625.658h21.06c.368 0 .663-.293.663-.622v-6.287c0-.329-.295-.621-.663-.621l-13.586.036c-.22 0-.405-.182-.405-.365l-.11-31.034c-.037-1.023-.037-.95.736-1.499z" fill="#C02235"/></svg>