<svg xmlns="http://www.w3.org/2000/svg" viewBox="0 0 253 253"><radialGradient id="a" cx="-829.735" cy="673.585" r="1" gradientTransform="matrix(0 126.5 126.5 0 -85082 105088)" gradientUnits="userSpaceOnUse"><stop offset="0" stop-color="#c02235" stop-opacity="0"/><stop offset="1" stop-color="#c02235"/></radialGradient><circle cx="126.5" cy="126.5" r="126.5" opacity=".2" fill="url(#a)"/><circle cx="123.7" cy="129" r="46.2" fill="#fff" stroke="#c02235"/><path d="M146.8 143.1c-.3.3-.5.5-1 .5-.6 0-1.1-.5-1.1-1.2s.4-1.2 1.1-1.2c.4 0 .7.2.9.4l.9-.7c-.4-.5-.9-.8-1.8-.8-1.4 0-2.4 1-2.4 2.4s1 2.4 2.3 2.4c.9 0 1.5-.4 1.9-.9l-.8-.9zm-38.6-1.9h-1.4v-1.1h3.9v1.1h-1.4v3.4h-1.2v-3.4zm12.5-1.1h1.2v1.7h1.6v-1.7h1.2v4.5h-1.2V143h-1.6v1.7h-1.2v-4.6zm5.1 0h1.2l1.9 2.4v-2.4h1.2v4.5H129l-1.9-2.5v2.5h-1.2v-4.5zm4.9 2.3c0-1.3 1-2.4 2.4-2.4s2.4 1 2.4 2.4c0 1.3-1 2.4-2.4 2.4s-2.4-1.1-2.4-2.4zm3.6 0c0-.7-.5-1.2-1.2-1.2s-1.1.5-1.1 1.2.5 1.2 1.2 1.2c.6 0 1.1-.5 1.1-1.2zm2-2.3h1.2l1.9 2.4v-2.4h1.2v4.5h-1.1l-1.9-2.5v2.5h-1.2v-4.5zm6.4 0h-1.2v4.5h1.2v-4.5zm5.3 2.3c0-1.3 1-2.4 2.4-2.4s2.4 1 2.4 2.4c0 1.3-1 2.4-2.4 2.4s-2.4-1.1-2.4-2.4zm3.6 0c0-.7-.5-1.2-1.2-1.2s-1.1.5-1.1 1.2.5 1.2 1.2 1.2c.6 0 1.1-.5 1.1-1.2zm2-2.3h1.2v3.4h2.2v1.1h-3.4v-4.5zm-34.5 3c-.3.3-.5.5-1 .5-.6 0-1.1-.5-1.1-1.2s.4-1.2 1.1-1.2c.4 0 .7.2.9.4l.9-.7c-.4-.5-.9-.8-1.8-.8-1.4 0-2.4 1-2.4 2.4s1 2.4 2.3 2.4c.9 0 1.5-.4 1.9-.9l-.8-.9zm-7.6-3h3.6v1.1h-2.4v.7h2.2v1h-2.2v.7h2.4v1.1h-3.6v-4.6zm5.5-12.4c0-5.1 4-8.7 9.1-8.7s9.1 3.5 9.1 8.7c0 5.1-4 8.7-9.1 8.7s-9.1-3.6-9.1-8.7zm13.1 0c0-2.3-1.6-4.2-4-4.2s-4 1.9-4 4.2 1.6 4.2 4 4.2 4-1.9 4-4.2zm21.7 8.4V126l-3.7 10.1h-2.2l-3.7-10.1v10.1h-5v-16.8h6.9l2.9 8 2.9-8h6.9v16.8h-5zm-45.5-16.8h-2.7l-4.7 3.4v13.4h7.5c5.2 0 9.1-3 9.1-8.4s-3.9-8.4-9.2-8.4zm0 12.3h-2.4v-7.9h2.4c2.7 0 4 1.7 4 3.9s-1.5 4-4 4z" fill="#54555a"/><path d="M95.3 120.4l8.1-5.7c.2-.1.2-.2.2-.6v-4.7c0-.3 0-.5-.4-.2l-5.4 3.8c-.2.2-.3.1-.3-.3V111c0-.2-.1-.4-.3-.4h-4.3c-.2 0-.3.2-.3.4v5.3c0 .4.1.5-.1.7l-1.9 1.3c-.3.2-.3.2-.3.5v25.3c0 .2.2.4.4.4h12.4c.2 0 .4-.2.4-.4v-3.8c0-.2-.2-.4-.4-.4h-8c-.1 0-.2-.1-.2-.2l-.1-18.7c.1-.3.1-.3.5-.6z" fill="#c02235"/></svg>