<?xml version="1.0" encoding="utf-8"?>
<!-- Generator: Adobe Illustrator 25.4.1, SVG Export Plug-In . SVG Version: 6.00 Build 0)  -->
<svg version="1.1" id="Слой_1" xmlns="http://www.w3.org/2000/svg" xmlns:xlink="http://www.w3.org/1999/xlink" x="0px" y="0px"
	 viewBox="0 0 11.5 11.5" style="enable-background:new 0 0 11.5 11.5;" xml:space="preserve">
<path d="M11.4,0.5c-0.1-0.2-0.2-0.3-0.4-0.4C10.9,0,10.8,0,10.8,0h-10C0.3,0,0,0.3,0,0.8s0.3,0.8,0.8,0.8h8.2l-8.7,8.7
	c-0.3,0.3-0.3,0.8,0,1.1c0.1,0.1,0.3,0.2,0.5,0.2s0.4-0.1,0.5-0.2L10,2.6v8.2c0,0.4,0.3,0.8,0.8,0.8s0.8-0.3,0.8-0.8v-10
	C11.5,0.7,11.5,0.6,11.4,0.5z"/>
</svg>
