<?xml version="1.0" encoding="utf-8"?>
<!-- Generator: Adobe Illustrator 25.4.1, SVG Export Plug-In . SVG Version: 6.00 Build 0)  -->
<svg version="1.1" id="Слой_1" xmlns="http://www.w3.org/2000/svg" xmlns:xlink="http://www.w3.org/1999/xlink" x="0px" y="0px"
	 viewBox="0 0 19.5 21.5" style="enable-background:new 0 0 19.5 21.5;" xml:space="preserve">
<path d="M18.8,16.5h-18c-0.3,0-0.6-0.2-0.7-0.5c-0.1-0.3,0-0.7,0.3-0.8c0,0,2.7-1.9,2.7-8.4C3,4.9,3.7,3.3,5,2c1.3-1.3,3-2,4.8-2
	c1.8,0,3.5,0.7,4.8,2c1.3,1.3,2,3,2,4.8c0,6.4,2.6,8.4,2.7,8.4c0.3,0.2,0.4,0.5,0.3,0.8C19.4,16.3,19.1,16.5,18.8,16.5z M2.4,15
	h14.6c-0.9-1.4-2.1-3.9-2.1-8.2C15,5.3,14.5,4,13.5,3c-1-1-2.3-1.5-3.7-1.5C8.3,1.5,7,2,6,3C5,4,4.5,5.3,4.5,6.8
	C4.5,11.1,3.4,13.6,2.4,15z"/>
<path d="M9.8,21.5c-0.5,0-1-0.1-1.4-0.4c-0.4-0.2-0.8-0.6-1-1c-0.2-0.4-0.1-0.8,0.3-1c0.4-0.2,0.8-0.1,1,0.3
	c0.1,0.2,0.3,0.3,0.5,0.5c0.4,0.2,0.9,0.2,1.2,0c0.2-0.1,0.3-0.3,0.5-0.5c0.2-0.4,0.7-0.5,1-0.3c0.4,0.2,0.5,0.7,0.3,1
	c-0.2,0.4-0.6,0.8-1,1C10.7,21.4,10.2,21.5,9.8,21.5z"/>
</svg>
