<?xml version="1.0" encoding="utf-8"?>
<!-- Generator: Adobe Illustrator 25.4.1, SVG Export Plug-In . SVG Version: 6.00 Build 0)  -->
<svg version="1.1" id="Слой_1" xmlns="http://www.w3.org/2000/svg" xmlns:xlink="http://www.w3.org/1999/xlink" x="0px" y="0px"
	 viewBox="0 0 21.5 21.5" style="enable-background:new 0 0 21.5 21.5;" xml:space="preserve">
<g>
	<path d="M20.7,9.1c-0.4,0-0.8,0.3-0.8,0.8v0.9c0,2-0.7,3.9-1.8,5.5c-1.2,1.6-2.9,2.8-4.8,3.3c-1.9,0.6-4,0.5-5.8-0.2
		c-1.9-0.7-3.5-2-4.6-3.6s-1.6-3.7-1.5-5.6c0.1-2,0.9-3.9,2.2-5.4c1.3-1.5,3.1-2.6,5-3c1.9-0.4,4-0.2,5.8,0.6c0.4,0.2,0.8,0,1-0.4
		c0.2-0.4,0-0.8-0.4-1C13,0,10.6-0.2,8.4,0.3C6.1,0.8,4.1,2,2.6,3.8C1.1,5.5,0.2,7.7,0,10c-0.2,2.3,0.5,4.6,1.7,6.6
		C3,18.5,4.9,20,7,20.8c1.2,0.4,2.5,0.7,3.7,0.7c1,0,2.1-0.1,3-0.4c2.2-0.7,4.2-2,5.6-3.9c1.4-1.8,2.1-4.1,2.1-6.4V9.8
		C21.5,9.4,21.2,9.1,20.7,9.1z"/>
	<path d="M8.3,9.2C8,8.9,7.5,8.9,7.2,9.2s-0.3,0.8,0,1.1l3,3c0.1,0.1,0.3,0.2,0.5,0.2c0.2,0,0.4-0.1,0.5-0.2l10-10
		c0.3-0.3,0.3-0.8,0-1.1c-0.3-0.3-0.8-0.3-1.1,0l-9.5,9.5L8.3,9.2z"/>
</g>
</svg>
