<?xml version="1.0" encoding="utf-8"?>
<!-- Generator: Adobe Illustrator 25.4.1, SVG Export Plug-In . SVG Version: 6.00 Build 0)  -->
<svg version="1.1" id="Слой_1" xmlns="http://www.w3.org/2000/svg" xmlns:xlink="http://www.w3.org/1999/xlink" x="0px" y="0px"
	 viewBox="0 0 16.5 16.5" style="enable-background:new 0 0 16.5 16.5;" xml:space="preserve">
<path d="M8.2,16.5C3.7,16.5,0,12.8,0,8.2S3.7,0,8.2,0s8.2,3.7,8.2,8.2S12.8,16.5,8.2,16.5z M8.2,1.5c-3.7,0-6.8,3-6.8,6.8
	c0,3.7,3,6.8,6.8,6.8C12,15,15,12,15,8.2C15,4.5,12,1.5,8.2,1.5z"/>
<path d="M11.2,10.5c-0.1,0-0.2,0-0.3-0.1l-3-1.5C7.7,8.8,7.5,8.5,7.5,8.2V3.8C7.5,3.3,7.8,3,8.2,3S9,3.3,9,3.8v4l2.6,1.3
	c0.4,0.2,0.5,0.6,0.3,1C11.8,10.3,11.5,10.5,11.2,10.5z"/>
</svg>
