<?xml version="1.0" encoding="utf-8"?>
<!-- Generator: Adobe Illustrator 25.4.1, SVG Export Plug-In . SVG Version: 6.00 Build 0)  -->
<svg version="1.1" id="Слой_1" xmlns="http://www.w3.org/2000/svg" xmlns:xlink="http://www.w3.org/1999/xlink" x="0px" y="0px"
	 viewBox="0 0 13.5 13.5" style="enable-background:new 0 0 13.5 13.5;" xml:space="preserve">
<path d="M7.8,6.8l5.5-5.5c0.3-0.3,0.3-0.8,0-1.1s-0.8-0.3-1.1,0L6.8,5.7L1.3,0.2C1-0.1,0.5-0.1,0.2,0.2s-0.3,0.8,0,1.1l5.5,5.5
	l-5.5,5.5c-0.3,0.3-0.3,0.8,0,1.1c0.1,0.1,0.3,0.2,0.5,0.2s0.4-0.1,0.5-0.2l5.5-5.5l5.5,5.5c0.1,0.1,0.3,0.2,0.5,0.2
	s0.4-0.1,0.5-0.2c0.3-0.3,0.3-0.8,0-1.1L7.8,6.8z"/>
</svg>
