<?xml version="1.0" encoding="utf-8"?>
<!-- Generator: Adobe Illustrator 25.4.1, SVG Export Plug-In . SVG Version: 6.00 Build 0)  -->
<svg version="1.1" id="Слой_1" xmlns="http://www.w3.org/2000/svg" xmlns:xlink="http://www.w3.org/1999/xlink" x="0px" y="0px"
	 viewBox="0 0 15 16.6" style="enable-background:new 0 0 15 16.6;" xml:space="preserve">
<style type="text/css">
	.st0{clip-path:url(#SVGID_00000033328813394528176260000018432492302195828629_);}
</style>
<g>
	<defs>
		<rect id="SVGID_1_" x="-1.5" y="-1.1" width="18" height="18"/>
	</defs>
	<clipPath id="SVGID_00000174594205449702969840000013174484905441848246_">
		<use xlink:href="#SVGID_1_"  style="display:none;overflow:visible;"/>
	</clipPath>
	<path style="clip-path:url(#SVGID_00000174594205449702969840000013174484905441848246_);" d="M14.7,4.2c0-0.1,0-0.1-0.1-0.2
		c0-0.1-0.1-0.1-0.2-0.2c-0.2-0.2-0.4-0.4-0.6-0.6l-5.2-3c-0.7-0.4-1.6-0.4-2.2,0l-5.3,3C0.9,3.4,0.7,3.7,0.5,3.9
		C0.4,3.9,0.3,4,0.3,4.1c0,0,0,0.1-0.1,0.2C0.1,4.6,0,4.9,0,5.2v6c0,0.4,0.1,0.8,0.3,1.1c0.2,0.3,0.5,0.6,0.8,0.8l5.2,3
		c0.2,0.1,0.5,0.2,0.8,0.3c0.1,0.1,0.2,0.1,0.4,0.1c0.1,0,0.3,0,0.4-0.1c0.3,0,0.5-0.1,0.8-0.3l5.3-3c0.3-0.2,0.6-0.5,0.8-0.8
		s0.3-0.7,0.3-1.1v-6C15,4.9,14.9,4.6,14.7,4.2z M7.1,1.6c0.1-0.1,0.2-0.1,0.4-0.1c0.1,0,0.3,0,0.4,0.1l4.8,2.8l-5.2,3l-5.2-3
		L7.1,1.6z M1.9,11.9c-0.1-0.1-0.2-0.2-0.3-0.3c-0.1-0.1-0.1-0.2-0.1-0.4V5.6l5.2,3v6L1.9,11.9z M13.4,11.6
		c-0.1,0.1-0.2,0.2-0.3,0.3l-4.9,2.8v-6l5.2-3v5.6C13.5,11.4,13.5,11.5,13.4,11.6z"/>
</g>
</svg>
