<?xml version="1.0" encoding="utf-8"?>
<!-- Generator: Adobe Illustrator 25.4.1, SVG Export Plug-In . SVG Version: 6.00 Build 0)  -->
<svg version="1.1" id="Слой_1" xmlns="http://www.w3.org/2000/svg" xmlns:xlink="http://www.w3.org/1999/xlink" x="0px" y="0px"
	 viewBox="0 0 20 20" style="enable-background:new 0 0 20 20;" xml:space="preserve">
<g>
	<path d="M19,12c-0.6,0-1,0.4-1,1v4c0,0.3-0.1,0.5-0.3,0.7S17.3,18,17,18H3c-0.3,0-0.5-0.1-0.7-0.3C2.1,17.5,2,17.3,2,17v-4
		c0-0.6-0.4-1-1-1s-1,0.4-1,1v4c0,0.8,0.3,1.6,0.9,2.1C1.4,19.7,2.2,20,3,20h14c0.8,0,1.6-0.3,2.1-0.9S20,17.8,20,17v-4
		C20,12.4,19.6,12,19,12z"/>
	<path d="M9.3,13.7c0.1,0.1,0.2,0.2,0.3,0.2C9.7,14,9.9,14,10,14s0.3,0,0.4-0.1c0.1-0.1,0.2-0.1,0.3-0.2l5-5c0.4-0.4,0.4-1,0-1.4
		s-1-0.4-1.4,0L11,10.6V1c0-0.6-0.4-1-1-1S9,0.4,9,1v9.6L5.7,7.3c-0.4-0.4-1-0.4-1.4,0s-0.4,1,0,1.4L9.3,13.7z"/>
</g>
</svg>
