<?xml version="1.0" encoding="utf-8"?>
<!-- Generator: Adobe Illustrator 25.4.1, SVG Export Plug-In . SVG Version: 6.00 Build 0)  -->
<svg version="1.1" id="Слой_1" xmlns="http://www.w3.org/2000/svg" xmlns:xlink="http://www.w3.org/1999/xlink" x="0px" y="0px"
	 viewBox="0 0 17.5 17.5" style="enable-background:new 0 0 17.5 17.5;" xml:space="preserve">
<g>
	<path d="M4.8,4H3.5V0.8C3.5,0.3,3.2,0,2.8,0S2,0.3,2,0.8V4H0.8C0.3,4,0,4.3,0,4.8v4c0,0.4,0.3,0.8,0.8,0.8H2v7.2
		c0,0.4,0.3,0.8,0.8,0.8s0.8-0.3,0.8-0.8V9.5h1.2c0.4,0,0.8-0.3,0.8-0.8v-4C5.5,4.3,5.2,4,4.8,4z M4,8H1.5V5.5H4V8z"/>
	<path d="M10.8,10H9.5V0.8C9.5,0.3,9.2,0,8.8,0S8,0.3,8,0.8V10H6.8C6.3,10,6,10.3,6,10.8v4c0,0.4,0.3,0.8,0.8,0.8H8v1.2
		c0,0.4,0.3,0.8,0.8,0.8s0.8-0.3,0.8-0.8v-1.2h1.2c0.4,0,0.8-0.3,0.8-0.8v-4C11.5,10.3,11.2,10,10.8,10z M10,14H7.5v-2.5H10V14z"/>
	<path d="M16.8,1h-1.2V0.8c0-0.4-0.3-0.8-0.8-0.8S14,0.3,14,0.8V1h-1.2C12.3,1,12,1.3,12,1.8v4c0,0.4,0.3,0.8,0.8,0.8H14v10.2
		c0,0.4,0.3,0.8,0.8,0.8s0.8-0.3,0.8-0.8V6.5h1.2c0.4,0,0.8-0.3,0.8-0.8v-4C17.5,1.3,17.2,1,16.8,1z M16,5h-2.5V2.5H16V5z"/>
</g>
</svg>
