<?xml version="1.0" encoding="utf-8"?>
<!-- Generator: Adobe Illustrator 25.4.1, SVG Export Plug-In . SVG Version: 6.00 Build 0)  -->
<svg version="1.1" id="Слой_1" xmlns="http://www.w3.org/2000/svg" xmlns:xlink="http://www.w3.org/1999/xlink" x="0px" y="0px"
	 viewBox="0 0 23.5 23.5" style="enable-background:new 0 0 23.5 23.5;" xml:space="preserve">
<g>
	<path d="M11.8,8C9.7,8,8,9.7,8,11.8c0,2.1,1.7,3.8,3.8,3.8c2.1,0,3.8-1.7,3.8-3.8C15.5,9.7,13.8,8,11.8,8z M11.8,14
		c-1.2,0-2.2-1-2.2-2.2c0-1.2,1-2.2,2.2-2.2c1.2,0,2.2,1,2.2,2.2C14,13,13,14,11.8,14z"/>
	<path d="M19.8,15c0.1-0.2,0.2-0.3,0.3-0.4c0.1-0.1,0.3-0.1,0.6-0.1c0.7,0,1.4-0.3,1.9-0.8s0.8-1.2,0.8-1.9s-0.3-1.4-0.8-1.9
		S21.5,9,20.8,9h-0.2c-0.2,0-0.3-0.1-0.5-0.1c-0.1-0.1-0.2-0.2-0.3-0.3c0-0.1,0-0.1-0.1-0.2c-0.1-0.2-0.1-0.3-0.1-0.5
		c0-0.2,0.1-0.3,0.3-0.5c0.3-0.3,0.5-0.6,0.6-0.9c0.1-0.3,0.2-0.7,0.2-1.1s-0.1-0.7-0.2-1.1C20.4,4,20.2,3.7,20,3.4
		c-0.3-0.3-0.6-0.5-0.9-0.6c-0.7-0.3-1.4-0.3-2.1,0C16.7,3,16.4,3.2,16,3.5c-0.1,0.1-0.3,0.2-0.5,0.2c-0.2,0-0.4,0-0.5-0.1
		c-0.2-0.1-0.3-0.2-0.4-0.3c-0.1-0.1-0.1-0.3-0.1-0.6c0-0.7-0.3-1.4-0.8-1.9c-1-1-2.8-1-3.9,0C9.3,1.3,9,2,9,2.8v0.2
		c0,0.2-0.1,0.3-0.1,0.5C8.8,3.5,8.7,3.6,8.6,3.7c-0.1,0-0.1,0-0.2,0.1C8.2,3.8,8,3.8,7.8,3.8c-0.2,0-0.3-0.1-0.5-0.3
		C7.1,3.3,6.8,3.1,6.4,2.9C5.8,2.6,5,2.6,4.3,2.9C4,3.1,3.7,3.3,3.4,3.5C3.2,3.8,3,4.1,2.8,4.4C2.7,4.7,2.6,5.1,2.6,5.5
		c0,0.4,0.1,0.7,0.2,1.1C3,6.8,3.2,7.1,3.5,7.5c0.1,0.1,0.2,0.3,0.2,0.5c0,0.2,0,0.4-0.1,0.6C3.6,8.7,3.5,8.8,3.3,8.9
		C3.2,9,3,9.1,2.8,9.1C2,9.1,1.3,9.4,0.8,9.9C0.3,10.4,0,11.1,0,11.8s0.3,1.4,0.8,1.9s1.2,0.8,1.9,0.8h0.2c0.2,0,0.3,0.1,0.5,0.1
		c0.1,0.1,0.3,0.2,0.3,0.4c0.1,0.2,0.1,0.3,0.1,0.5c0,0.2-0.1,0.3-0.3,0.5c-0.3,0.3-0.5,0.6-0.6,0.9c-0.1,0.3-0.2,0.7-0.2,1.1
		s0.1,0.7,0.2,1.1c0.1,0.3,0.3,0.6,0.6,0.9c0.3,0.3,0.6,0.5,0.9,0.6c0.7,0.3,1.4,0.3,2.1,0c0.3-0.1,0.6-0.3,0.9-0.7
		c0.1-0.1,0.3-0.2,0.5-0.2c0.2,0,0.4,0,0.6,0.1c0.2,0.1,0.3,0.2,0.4,0.3c0.1,0.1,0.2,0.3,0.2,0.6c0,0.7,0.3,1.4,0.8,1.9
		c0.5,0.5,1.2,0.8,1.9,0.8s1.4-0.3,1.9-0.8s0.8-1.2,0.8-1.9v-0.2c0-0.2,0.1-0.3,0.1-0.5c0.1-0.1,0.2-0.3,0.4-0.3
		c0.2-0.1,0.3-0.1,0.5-0.1c0.2,0,0.3,0.1,0.5,0.3c0.3,0.3,0.6,0.5,0.9,0.6c0.7,0.3,1.4,0.3,2.1,0c0.3-0.1,0.6-0.3,0.9-0.6
		c0.3-0.3,0.5-0.6,0.6-0.9c0.1-0.3,0.2-0.7,0.2-1.1s-0.1-0.7-0.2-1.1c-0.1-0.3-0.3-0.6-0.7-0.9c-0.1-0.1-0.2-0.3-0.2-0.5
		C19.7,15.4,19.8,15.2,19.8,15C19.8,15.1,19.8,15,19.8,15z M18.5,14.5c-0.2,0.4-0.2,0.9-0.2,1.4c0.1,0.5,0.3,0.9,0.7,1.3
		c0.1,0.1,0.2,0.3,0.3,0.4c0.1,0.2,0.1,0.3,0.1,0.5s0,0.3-0.1,0.5c-0.1,0.2-0.2,0.3-0.3,0.4c-0.1,0.1-0.3,0.2-0.4,0.3
		c-0.3,0.1-0.7,0.1-1,0c-0.2-0.1-0.3-0.2-0.5-0.3c-0.3-0.3-0.8-0.6-1.2-0.6c-0.5-0.1-1,0-1.4,0.2c-0.4,0.2-0.8,0.5-1.1,0.9
		c-0.3,0.4-0.4,0.8-0.4,1.3v0.2c0,0.3-0.1,0.7-0.4,0.9c-0.5,0.5-1.3,0.5-1.8,0c-0.2-0.2-0.4-0.5-0.4-0.9c0,0,0-0.1,0-0.1
		c0-0.5-0.2-0.9-0.4-1.3c-0.3-0.4-0.7-0.7-1.1-0.8c-0.3-0.1-0.6-0.2-1-0.2c-0.1,0-0.3,0-0.4,0c-0.5,0.1-0.9,0.3-1.3,0.7
		c-0.1,0.1-0.3,0.2-0.4,0.3c-0.3,0.1-0.6,0.1-1,0c-0.2-0.1-0.3-0.2-0.4-0.3c-0.1-0.1-0.2-0.3-0.3-0.4c-0.1-0.2-0.1-0.3-0.1-0.5
		s0-0.3,0.1-0.5c0.1-0.2,0.2-0.3,0.3-0.5c0.3-0.3,0.6-0.8,0.6-1.2c0.1-0.5,0-1-0.2-1.4c-0.2-0.4-0.5-0.8-0.9-1.1
		c-0.4-0.3-0.8-0.4-1.3-0.4H2.8c-0.3,0-0.7-0.1-0.9-0.4c-0.2-0.2-0.4-0.6-0.4-0.9c0-0.3,0.1-0.7,0.4-0.9c0.2-0.2,0.5-0.4,0.9-0.4
		c0,0,0.1,0,0.1,0c0.5,0,0.9-0.2,1.3-0.4C4.6,9.9,4.9,9.5,5,9.1c0.2-0.4,0.3-0.9,0.2-1.4C5.1,7.2,4.9,6.7,4.5,6.3
		C4.4,6.2,4.3,6.1,4.2,5.9S4.1,5.6,4.1,5.5s0-0.3,0.1-0.5s0.2-0.3,0.3-0.4c0.1-0.1,0.3-0.2,0.4-0.3c0.3-0.1,0.7-0.1,1,0
		C6,4.4,6.1,4.5,6.3,4.6C6.7,5,7.1,5.2,7.6,5.3c0.4,0.1,0.8,0,1.2-0.1c0.1,0,0.2,0,0.2-0.1c0.4-0.2,0.8-0.5,1.1-0.9
		c0.3-0.4,0.4-0.8,0.4-1.3V2.8c0-0.3,0.1-0.7,0.4-0.9c0.5-0.5,1.3-0.5,1.8,0c0.2,0.2,0.4,0.6,0.4,1c0,0.5,0.1,0.9,0.4,1.3
		c0.3,0.4,0.6,0.7,1,0.9c0.4,0.2,0.9,0.3,1.4,0.2c0.5-0.1,0.9-0.3,1.3-0.7c0.1-0.1,0.3-0.2,0.4-0.3c0.3-0.1,0.7-0.1,1,0
		c0.2,0.1,0.3,0.2,0.4,0.3c0.1,0.1,0.2,0.3,0.3,0.4c0.1,0.2,0.1,0.3,0.1,0.5s0,0.3-0.1,0.5C19.1,6,19,6.1,18.9,6.3
		c-0.3,0.3-0.6,0.8-0.6,1.3c-0.1,0.4,0,0.8,0.1,1.2c0,0.1,0,0.2,0.1,0.2c0.2,0.4,0.5,0.8,0.9,1.1c0.4,0.3,0.8,0.4,1.3,0.4h0.2
		c0.3,0,0.7,0.1,0.9,0.4s0.4,0.6,0.4,0.9s-0.1,0.7-0.4,0.9c-0.2,0.2-0.6,0.4-1,0.4c-0.5,0-0.9,0.1-1.3,0.4
		C19,13.7,18.6,14,18.5,14.5z"/>
</g>
</svg>
