<?xml version="1.0" encoding="utf-8"?>
<!-- Generator: Adobe Illustrator 25.4.1, SVG Export Plug-In . SVG Version: 6.00 Build 0)  -->
<svg version="1.1" id="Слой_1" xmlns="http://www.w3.org/2000/svg" xmlns:xlink="http://www.w3.org/1999/xlink" x="0px" y="0px"
	 viewBox="0 0 19.5 19.5" style="enable-background:new 0 0 19.5 19.5;" xml:space="preserve">
<g>
	<path d="M7.9,0.8H1.4c-0.4,0-0.7,0.3-0.7,0.7v6.5c0,0.4,0.3,0.7,0.7,0.7h6.5c0.4,0,0.7-0.3,0.7-0.7V1.4C8.6,1.1,8.3,0.8,7.9,0.8z
		 M7.2,7.2H2.1V2.1h5.1V7.2z"/>
	<path d="M18.1,0.8h-6.5c-0.4,0-0.7,0.3-0.7,0.7v6.5c0,0.4,0.3,0.7,0.7,0.7h6.5c0.4,0,0.7-0.3,0.7-0.7V1.4
		C18.8,1.1,18.4,0.8,18.1,0.8z M17.4,7.2h-5.1V2.1h5.1V7.2z"/>
	<path d="M18.1,10.9h-6.5c-0.4,0-0.7,0.3-0.7,0.7v6.5c0,0.4,0.3,0.7,0.7,0.7h6.5c0.4,0,0.7-0.3,0.7-0.7v-6.5
		C18.8,11.2,18.4,10.9,18.1,10.9z M17.4,17.4h-5.1v-5.1h5.1V17.4z"/>
	<path d="M7.9,10.9H1.4c-0.4,0-0.7,0.3-0.7,0.7v6.5c0,0.4,0.3,0.7,0.7,0.7h6.5c0.4,0,0.7-0.3,0.7-0.7v-6.5
		C8.6,11.2,8.3,10.9,7.9,10.9z M7.2,17.4H2.1v-5.1h5.1V17.4z"/>
</g>
</svg>
