<?xml version="1.0" encoding="utf-8"?>
<!-- Generator: Adobe Illustrator 25.4.1, SVG Export Plug-In . SVG Version: 6.00 Build 0)  -->
<svg version="1.1" id="Слой_1" xmlns="http://www.w3.org/2000/svg" xmlns:xlink="http://www.w3.org/1999/xlink" x="0px" y="0px"
	 viewBox="0 0 19.5 19.5" style="enable-background:new 0 0 19.5 19.5;" xml:space="preserve">
<g>
	<path d="M7.8,0h-7C0.3,0,0,0.3,0,0.8v7c0,0.4,0.3,0.8,0.8,0.8h7c0.4,0,0.8-0.3,0.8-0.8v-7C8.5,0.3,8.2,0,7.8,0z M7,7H1.5V1.5H7V7z"
		/>
	<path d="M18.8,0h-7C11.3,0,11,0.3,11,0.8v7c0,0.4,0.3,0.8,0.8,0.8h7c0.4,0,0.8-0.3,0.8-0.8v-7C19.5,0.3,19.2,0,18.8,0z M18,7h-5.5
		V1.5H18V7z"/>
	<path d="M18.8,11h-7c-0.4,0-0.8,0.3-0.8,0.8v7c0,0.4,0.3,0.8,0.8,0.8h7c0.4,0,0.8-0.3,0.8-0.8v-7C19.5,11.3,19.2,11,18.8,11z
		 M18,18h-5.5v-5.5H18V18z"/>
	<path d="M7.8,11h-7C0.3,11,0,11.3,0,11.8v7c0,0.4,0.3,0.8,0.8,0.8h7c0.4,0,0.8-0.3,0.8-0.8v-7C8.5,11.3,8.2,11,7.8,11z M7,18H1.5
		v-5.5H7V18z"/>
</g>
</svg>
