<?xml version="1.0" encoding="utf-8"?>
<!-- Generator: Adobe Illustrator 25.4.1, SVG Export Plug-In . SVG Version: 6.00 Build 0)  -->
<svg version="1.1" id="Слой_1" xmlns="http://www.w3.org/2000/svg" xmlns:xlink="http://www.w3.org/1999/xlink" x="0px" y="0px"
	 viewBox="0 0 16.5 16.5" style="enable-background:new 0 0 16.5 16.5;" xml:space="preserve">
<g>
	<path d="M8.2,0C3.7,0,0,3.7,0,8.2s3.7,8.2,8.2,8.2s8.2-3.7,8.2-8.2S12.8,0,8.2,0z M8.2,15c-3.7,0-6.8-3-6.8-6.8
		c0-3.7,3-6.8,6.8-6.8c3.7,0,6.8,3,6.8,6.8C15,12,12,15,8.2,15z"/>
	<path d="M8.7,3.8c-0.7-0.1-1.4,0-2,0.4C6.1,4.5,5.6,5.1,5.4,5.8c-0.1,0.4,0.1,0.8,0.5,1c0.4,0.1,0.8-0.1,1-0.5
		c0.1-0.3,0.4-0.6,0.7-0.8c0.3-0.2,0.7-0.2,1-0.2c0.3,0.1,0.7,0.2,0.9,0.5c0.2,0.3,0.4,0.6,0.4,1c0,0.8-1.3,1.4-1.7,1.5
		C7.6,8.4,7.3,8.8,7.5,9.2c0.1,0.3,0.4,0.5,0.7,0.5c0.1,0,0.2,0,0.2,0c0.3-0.1,2.8-1,2.8-3c0-0.7-0.2-1.4-0.7-1.9
		C10,4.3,9.4,3.9,8.7,3.8z"/>
	<path d="M8.3,11.2L8.3,11.2c-0.4,0-0.8,0.3-0.8,0.8s0.3,0.8,0.8,0.8S9,12.4,9,12S8.7,11.2,8.3,11.2z"/>
</g>
</svg>
