<?xml version="1.0" encoding="utf-8"?>
<!-- Generator: Adobe Illustrator 25.4.1, SVG Export Plug-In . SVG Version: 6.00 Build 0)  -->
<svg version="1.1" id="Слой_1" xmlns="http://www.w3.org/2000/svg" xmlns:xlink="http://www.w3.org/1999/xlink" x="0px" y="0px"
	 viewBox="0 0 15 16.5" style="enable-background:new 0 0 15 16.5;" xml:space="preserve">
<path d="M14.7,5.4L8,0.2C7.7-0.1,7.3-0.1,7,0.2L0.3,5.4C0.1,5.6,0,5.8,0,6v8.2c0,0.6,0.2,1.2,0.7,1.6c0.4,0.4,1,0.7,1.6,0.7h10.5
	c0.6,0,1.2-0.2,1.6-0.7s0.7-1,0.7-1.6V6C15,5.8,14.9,5.6,14.7,5.4z M13.5,14.2c0,0.2-0.1,0.4-0.2,0.5S12.9,15,12.8,15H2.2
	c-0.2,0-0.4-0.1-0.5-0.2c-0.1-0.1-0.2-0.3-0.2-0.5V6.4l6-4.7l6,4.7V14.2z"/>
</svg>
