<?xml version="1.0" encoding="utf-8"?>
<!-- Generator: Adobe Illustrator 25.4.1, SVG Export Plug-In . SVG Version: 6.00 Build 0)  -->
<svg version="1.1" id="Слой_1" xmlns="http://www.w3.org/2000/svg" xmlns:xlink="http://www.w3.org/1999/xlink" x="0px" y="0px"
	 viewBox="0 0 19.5 23.5" style="enable-background:new 0 0 19.5 23.5;" xml:space="preserve">
<g>
	<path d="M16.6,2.9C14.8,1,12.4,0,9.8,0C7.1,0,4.7,1,2.9,2.9C1,4.7,0,7.1,0,9.8c0,7.3,9,13.4,9.3,13.6c0.1,0.1,0.3,0.1,0.4,0.1
		s0.3,0,0.4-0.1c0.4-0.3,9.3-6.3,9.3-13.6C19.5,7.1,18.5,4.7,16.6,2.9z M9.8,21.8C8,20.6,1.5,15.4,1.5,9.8c0-2.2,0.9-4.3,2.4-5.8
		s3.6-2.4,5.8-2.4c2.2,0,4.3,0.9,5.8,2.4C17.1,5.5,18,7.5,18,9.8C18,15.4,11.5,20.6,9.8,21.8z"/>
	<path d="M9.8,6C7.7,6,6,7.7,6,9.8s1.7,3.8,3.8,3.8c2.1,0,3.8-1.7,3.8-3.8S11.8,6,9.8,6z M9.8,12c-1.2,0-2.2-1-2.2-2.2
		s1-2.2,2.2-2.2c1.2,0,2.2,1,2.2,2.2S11,12,9.8,12z"/>
</g>
</svg>
