<?xml version="1.0" encoding="utf-8"?>
<!-- Generator: Adobe Illustrator 25.4.1, SVG Export Plug-In . SVG Version: 6.00 Build 0)  -->
<svg version="1.1" id="Слой_1" xmlns="http://www.w3.org/2000/svg" xmlns:xlink="http://www.w3.org/1999/xlink" x="0px" y="0px"
	 viewBox="0 0 15 12.5" style="enable-background:new 0 0 15 12.5;" xml:space="preserve">
<path d="M14.2,7H0.8C0.3,7,0,6.7,0,6.2s0.3-0.8,0.8-0.8h13.5c0.4,0,0.8,0.3,0.8,0.8S14.7,7,14.2,7z"/>
<path d="M14.2,1.5H0.8C0.3,1.5,0,1.2,0,0.8S0.3,0,0.8,0h13.5C14.7,0,15,0.3,15,0.8S14.7,1.5,14.2,1.5z"/>
<path d="M14.2,12.5H0.8c-0.4,0-0.8-0.3-0.8-0.8S0.3,11,0.8,11h13.5c0.4,0,0.8,0.3,0.8,0.8S14.7,12.5,14.2,12.5z"/>
</svg>
