<?xml version="1.0" encoding="utf-8"?>
<!-- Generator: Adobe Illustrator 25.4.1, SVG Export Plug-In . SVG Version: 6.00 Build 0)  -->
<svg version="1.1" id="Слой_1" xmlns="http://www.w3.org/2000/svg" xmlns:xlink="http://www.w3.org/1999/xlink" x="0px" y="0px"
	 viewBox="0 0 21.5 21.5" style="enable-background:new 0 0 21.5 21.5;" xml:space="preserve">
<g>
	<path d="M8.4,3.2C7.9,1,6,0,4.3,0c0,0,0,0,0,0C2.6,0,0.6,1,0.1,3.2h0C-0.3,5,0.4,6.9,2.3,8.7c0.6,0.5,1.3,0.8,2,0.8
		c0.7,0,1.4-0.3,2-0.8C8.1,7,8.8,5,8.4,3.2z M3.3,7.6c-1-1-2.1-2.5-1.7-4.1c0.3-1.5,1.7-2,2.7-2c0,0,0,0,0,0c1,0,2.3,0.5,2.7,2
		c0.4,1.7-0.7,3.2-1.7,4.1C4.7,8.1,3.8,8.1,3.3,7.6z"/>
	<path d="M21.4,15.2C20.9,13,19,12,17.3,12s-3.6,1-4.2,3.2c-0.4,1.9,0.3,3.8,2.2,5.5c0.6,0.5,1.3,0.8,2,0.8c0.7,0,1.4-0.3,2-0.8
		C21.1,19,21.9,17,21.4,15.2z M18.2,19.6c-0.5,0.5-1.4,0.5-1.9,0c-1-1-2.1-2.4-1.7-4.1c0.3-1.5,1.7-2,2.7-2s2.3,0.5,2.7,2
		C20.3,17.2,19.2,18.7,18.2,19.6z"/>
	<path d="M10.8,17H8.1c-0.6,0-1-0.4-1.2-0.8c-0.1-0.4-0.1-1,0.3-1.4l8-7c0.9-0.8,1.2-2,0.8-3C15.6,3.7,14.6,3,13.5,3h-2.7
		C10.4,3,10,3.3,10,3.7s0.3,0.8,0.8,0.8h2.7c0.6,0,1,0.4,1.2,0.8c0.1,0.4,0.1,1-0.3,1.4l-8,7c-0.9,0.8-1.2,1.9-0.8,3
		c0.4,1.1,1.4,1.8,2.6,1.8h2.7c0.4,0,0.8-0.3,0.8-0.8S11.2,17,10.8,17z"/>
	<path d="M4.3,3.5L4.3,3.5c-0.4,0-0.8,0.3-0.8,0.8S3.9,5,4.3,5S5,4.7,5,4.2S4.7,3.5,4.3,3.5z"/>
	<path d="M17.3,15.5L17.3,15.5c-0.4,0-0.8,0.3-0.8,0.8c0,0.4,0.3,0.8,0.8,0.8s0.8-0.3,0.8-0.8C18,15.8,17.7,15.5,17.3,15.5z"/>
</g>
</svg>
