<?xml version="1.0" encoding="utf-8"?>
<!-- Generator: Adobe Illustrator 25.4.1, SVG Export Plug-In . SVG Version: 6.00 Build 0)  -->
<svg version="1.1" id="Слой_1" xmlns="http://www.w3.org/2000/svg" xmlns:xlink="http://www.w3.org/1999/xlink" x="0px" y="0px"
	 viewBox="0 0 19.5 16.5" style="enable-background:new 0 0 19.5 16.5;" xml:space="preserve">
<g>
	<path d="M18.8,0h-18C0.3,0,0,0.3,0,0.8v5c0,0.4,0.3,0.8,0.8,0.8h18c0.4,0,0.8-0.3,0.8-0.8v-5C19.5,0.3,19.2,0,18.8,0z M18,5H1.5
		V1.5H18V5z"/>
	<path d="M18.8,10h-18C0.3,10,0,10.3,0,10.8v5c0,0.4,0.3,0.8,0.8,0.8h18c0.4,0,0.8-0.3,0.8-0.8v-5C19.5,10.3,19.2,10,18.8,10z
		 M18,15H1.5v-3.5H18V15z"/>
</g>
</svg>
