<?xml version="1.0" encoding="utf-8"?>
<!-- Generator: Adobe Illustrator 25.4.1, SVG Export Plug-In . SVG Version: 6.00 Build 0)  -->
<svg version="1.1" id="Слой_1" xmlns="http://www.w3.org/2000/svg" xmlns:xlink="http://www.w3.org/1999/xlink" x="0px" y="0px"
	 viewBox="0 0 15.5 19.5" style="enable-background:new 0 0 15.5 19.5;" xml:space="preserve">
<path d="M10,10.5c1.5,0,2.8-0.5,3.9-1.5c1-1,1.6-2.3,1.6-3.7s-0.6-2.7-1.6-3.7c-1-1-2.4-1.5-3.9-1.5H4.8C4.3,0,4,0.3,4,0.8V9H0.8
	C0.3,9,0,9.3,0,9.8s0.3,0.8,0.8,0.8H4V14H0.8C0.3,14,0,14.3,0,14.8s0.3,0.8,0.8,0.8H4v3.2c0,0.4,0.3,0.8,0.8,0.8s0.8-0.3,0.8-0.8
	v-3.2h7.2c0.4,0,0.8-0.3,0.8-0.8S13.2,14,12.8,14H5.5v-3.5H10z M5.5,1.5H10c1.1,0,2.1,0.4,2.8,1.1C13.6,3.3,14,4.3,14,5.2
	s-0.4,1.9-1.2,2.6C12.1,8.6,11.1,9,10,9H5.5V1.5z"/>
</svg>
