<?xml version="1.0" encoding="utf-8"?>
<!-- Generator: Adobe Illustrator 25.4.1, SVG Export Plug-In . SVG Version: 6.00 Build 0)  -->
<svg version="1.1" id="Слой_1" xmlns="http://www.w3.org/2000/svg" xmlns:xlink="http://www.w3.org/1999/xlink" x="0px" y="0px"
	 viewBox="0 0 19.5 19.5" style="enable-background:new 0 0 19.5 19.5;" xml:space="preserve">
<path d="M8.8,17.5C3.9,17.5,0,13.6,0,8.8C0,3.9,3.9,0,8.8,0c4.8,0,8.8,3.9,8.8,8.8C17.5,13.6,13.6,17.5,8.8,17.5z M8.8,1.5
	c-4,0-7.2,3.3-7.2,7.2c0,4,3.3,7.2,7.2,7.2c4,0,7.2-3.3,7.2-7.2C16,4.8,12.7,1.5,8.8,1.5z"/>
<path d="M18.8,19.5c-0.2,0-0.4-0.1-0.5-0.2l-4.4-4.3c-0.3-0.3-0.3-0.8,0-1.1s0.8-0.3,1.1,0l4.4,4.3c0.3,0.3,0.3,0.8,0,1.1
	C19.1,19.4,18.9,19.5,18.8,19.5z"/>
</svg>
