<?xml version="1.0" encoding="utf-8"?>
<!-- Generator: Adobe Illustrator 25.4.1, SVG Export Plug-In . SVG Version: 6.00 Build 0)  -->
<svg version="1.1" id="Слой_1" xmlns="http://www.w3.org/2000/svg" xmlns:xlink="http://www.w3.org/1999/xlink" x="0px" y="0px"
	 viewBox="0 0 22 22" style="enable-background:new 0 0 22 22;" xml:space="preserve">
<g>
	<path d="M11,0C4.9,0,0,4.9,0,11s4.9,11,11,11s11-4.9,11-11S17.1,0,11,0z M11,20.5c-5.2,0-9.5-4.3-9.5-9.5S5.8,1.5,11,1.5
		s9.5,4.3,9.5,9.5S16.2,20.5,11,20.5z"/>
	<path d="M18.2,12.1h-3.4c0.1-0.3,0.2-0.7,0.2-1.1c0-0.4-0.1-0.7-0.2-1.1h3c0.3,0,0.5-0.1,0.7-0.3l0.2-0.4l-0.1-0.4
		c-0.7-2.7-2.9-4.8-5.6-5.6c-0.3-0.1-0.5,0-0.7,0.1l-0.3,0.3v3.4C11.7,7.1,11.4,7,11,7c-0.4,0-0.7,0.1-1.1,0.2v-3
		c0-0.3-0.1-0.5-0.3-0.7L9.2,3.2L8.9,3.3C6.2,4.1,4.1,6.2,3.3,8.9c-0.1,0.3,0,0.5,0.1,0.7l0.3,0.3h3.4C7.1,10.3,7,10.6,7,11
		c0,0.4,0.1,0.7,0.2,1.1h-3c-0.3,0-0.5,0.1-0.7,0.3l-0.2,0.4l0.1,0.4c0.7,2.7,2.9,4.8,5.6,5.6c0.1,0,0.2,0,0.2,0
		c0.2,0,0.4-0.1,0.5-0.2l0.3-0.3v-3.4c0.3,0.1,0.7,0.2,1.1,0.2c0.4,0,0.7-0.1,1.1-0.2v3c0,0.3,0.1,0.5,0.3,0.7l0.4,0.2l0.4-0.1
		c2.7-0.7,4.8-2.9,5.6-5.6c0.1-0.3,0-0.5-0.1-0.7L18.2,12.1z M13.6,5c1.5,0.7,2.7,1.9,3.4,3.4H14c-0.1-0.2-0.3-0.3-0.5-0.5V5z
		 M5,8.4C5.7,6.9,6.9,5.7,8.4,5v2.9C8.3,8.1,8.1,8.3,8,8.4H5z M8.4,17c-1.5-0.7-2.7-1.9-3.4-3.4h2.9c0.2,0.2,0.3,0.3,0.5,0.5V17z
		 M8.5,11c0-1.4,1.1-2.5,2.5-2.5c1.4,0,2.5,1.1,2.5,2.5c0,1.4-1.1,2.5-2.5,2.5C9.6,13.5,8.5,12.4,8.5,11z M13.6,17V14
		c0.2-0.2,0.3-0.3,0.5-0.5H17C16.3,15.1,15.1,16.3,13.6,17z"/>
</g>
</svg>
