<?xml version="1.0" encoding="utf-8"?>
<!-- Generator: Adobe Illustrator 25.4.1, SVG Export Plug-In . SVG Version: 6.00 Build 0)  -->
<svg version="1.1" id="Слой_1" xmlns="http://www.w3.org/2000/svg" xmlns:xlink="http://www.w3.org/1999/xlink" x="0px" y="0px"
	 viewBox="0 0 21.5 23.7" style="enable-background:new 0 0 21.5 23.7;" xml:space="preserve">
<path d="M17.2,15.2c-1.2,0-2.3,0.5-3.1,1.3L8.3,13c0.1-0.4,0.2-0.8,0.2-1.2c0-0.4-0.1-0.8-0.2-1.2l5.9-3.4C15,8,16,8.5,17.2,8.5
	c2.3,0,4.2-1.9,4.2-4.2S19.6,0,17.2,0S13,1.9,13,4.2c0,0.4,0.1,0.8,0.2,1.2L7.3,8.9C6.5,8.1,5.5,7.6,4.2,7.6C1.9,7.6,0,9.5,0,11.8
	c0,2.3,1.9,4.2,4.2,4.2c1.2,0,2.3-0.5,3.1-1.3l5.9,3.4C13.1,18.6,13,19,13,19.4c0,2.3,1.9,4.2,4.2,4.2s4.2-1.9,4.2-4.2
	S19.6,15.2,17.2,15.2z M17.2,2c1.2,0,2.2,1,2.2,2.3s-1,2.2-2.2,2.2S15,5.5,15,4.2S16,2,17.2,2z M4.2,14.1c-1.2,0-2.2-1-2.2-2.2
	c0-1.2,1-2.2,2.2-2.2s2.2,1,2.2,2.2C6.5,13.1,5.5,14.1,4.2,14.1z M17.2,21.7c-1.2,0-2.2-1-2.2-2.2c0-0.4,0.1-0.8,0.3-1.1
	c0,0,0,0,0,0c0,0,0,0,0,0c0.4-0.7,1.1-1.1,1.9-1.1c1.2,0,2.2,1,2.2,2.2S18.5,21.7,17.2,21.7z"/>
</svg>
