<?xml version="1.0" encoding="utf-8"?>
<!-- Generator: Adobe Illustrator 25.4.1, SVG Export Plug-In . SVG Version: 6.00 Build 0)  -->
<svg version="1.1" id="Слой_1" xmlns="http://www.w3.org/2000/svg" xmlns:xlink="http://www.w3.org/1999/xlink" x="0px" y="0px"
	 viewBox="0 0 19.5 19.5" style="enable-background:new 0 0 19.5 19.5;" xml:space="preserve">
<path d="M16.8,19.5h-4c-0.4,0-0.8-0.3-0.8-0.8s0.3-0.8,0.8-0.8h4c0.3,0,0.7-0.1,0.9-0.4s0.4-0.6,0.4-0.9v-14c0-0.3-0.1-0.7-0.4-0.9
	s-0.6-0.4-0.9-0.4h-4c-0.4,0-0.8-0.3-0.8-0.8S12.3,0,12.8,0h4c0.7,0,1.4,0.3,1.9,0.8s0.8,1.2,0.8,1.9v14c0,0.7-0.3,1.4-0.8,1.9
	S17.5,19.5,16.8,19.5z"/>
<path d="M7.8,15.5c-0.2,0-0.4-0.1-0.5-0.2c-0.3-0.3-0.3-0.8,0-1.1l4.5-4.5L7.2,5.3C6.9,5,6.9,4.5,7.2,4.2s0.8-0.3,1.1,0l5,5
	c0.3,0.3,0.3,0.8,0,1.1l-5,5C8.1,15.4,7.9,15.5,7.8,15.5z"/>
<path d="M12.8,10.5h-12C0.3,10.5,0,10.2,0,9.8S0.3,9,0.8,9h12c0.4,0,0.8,0.3,0.8,0.8S13.2,10.5,12.8,10.5z"/>
</svg>
