<?xml version="1.0" encoding="utf-8"?>
<!-- Generator: Adobe Illustrator 25.4.1, SVG Export Plug-In . SVG Version: 6.00 Build 0)  -->
<svg version="1.1" id="Слой_1" xmlns="http://www.w3.org/2000/svg" xmlns:xlink="http://www.w3.org/1999/xlink" x="0px" y="0px"
	 viewBox="0 0 15 15" style="enable-background:new 0 0 15 15;" xml:space="preserve">
<path d="M12.8,15h-2.2c-0.4,0-0.8-0.3-0.8-0.8s0.3-0.8,0.8-0.8h2.2c0.2,0,0.4-0.1,0.5-0.2s0.2-0.3,0.2-0.5v-2.2
	c0-0.4,0.3-0.8,0.8-0.8s0.8,0.3,0.8,0.8v2.2c0,0.6-0.2,1.2-0.7,1.6S13.3,15,12.8,15z M4.5,15H2.2c-0.6,0-1.2-0.2-1.6-0.7
	c-0.4-0.4-0.7-1-0.7-1.6v-2.2c0-0.4,0.3-0.8,0.8-0.8s0.8,0.3,0.8,0.8v2.2c0,0.2,0.1,0.4,0.2,0.5c0.1,0.1,0.3,0.2,0.5,0.2h2.2
	c0.4,0,0.8,0.3,0.8,0.8S4.9,15,4.5,15z M14.2,5.2c-0.4,0-0.8-0.3-0.8-0.8V2.2c0-0.2-0.1-0.4-0.2-0.5c-0.1-0.1-0.3-0.2-0.5-0.2h-2.2
	c-0.4,0-0.8-0.3-0.8-0.8S10.1,0,10.5,0h2.2c0.6,0,1.2,0.2,1.6,0.7c0.4,0.4,0.7,1,0.7,1.6v2.2C15,4.9,14.7,5.2,14.2,5.2z M0.8,5.2
	C0.3,5.2,0,4.9,0,4.5V2.2c0-0.6,0.2-1.2,0.7-1.6C1.1,0.2,1.6,0,2.2,0h2.2c0.4,0,0.8,0.3,0.8,0.8S4.9,1.5,4.5,1.5H2.2
	C2,1.5,1.9,1.6,1.7,1.7S1.5,2,1.5,2.2v2.2C1.5,4.9,1.2,5.2,0.8,5.2z"/>
</svg>
