<?xml version="1.0" encoding="utf-8"?>
<!-- Generator: Adobe Illustrator 25.4.1, SVG Export Plug-In . SVG Version: 6.00 Build 0)  -->
<svg version="1.1" id="Слой_1" xmlns="http://www.w3.org/2000/svg" xmlns:xlink="http://www.w3.org/1999/xlink" x="0px" y="0px"
	 viewBox="0 0 15 15" style="enable-background:new 0 0 15 15;" xml:space="preserve">
<path d="M12.5,14.6h-2.1c-0.4,0-0.8-0.3-0.8-0.8c0-0.5,0.3-0.8,0.8-0.8h2.1c0.2,0,0.4-0.1,0.5-0.2c0.1-0.1,0.2-0.3,0.2-0.5v-2.1
	c0-0.4,0.3-0.8,0.8-0.8c0.5,0,0.8,0.3,0.8,0.8v2.1c0,0.6-0.2,1.1-0.7,1.5C13.5,14.3,13,14.6,12.5,14.6z M4.7,14.6H2.5
	c-0.6,0-1.1-0.2-1.5-0.7c-0.4-0.4-0.7-0.9-0.7-1.5v-2.1c0-0.4,0.3-0.8,0.8-0.8s0.8,0.3,0.8,0.8v2.1c0,0.2,0.1,0.4,0.2,0.5
	c0.1,0.1,0.3,0.2,0.5,0.2h2.1c0.4,0,0.8,0.3,0.8,0.8C5.3,14.3,5.1,14.6,4.7,14.6z M13.8,5.3c-0.4,0-0.8-0.3-0.8-0.8V2.5
	c0-0.2-0.1-0.4-0.2-0.5c-0.1-0.1-0.3-0.2-0.5-0.2h-2.1c-0.4,0-0.8-0.3-0.8-0.8s0.4-0.7,0.8-0.7h2.1c0.6,0,1.1,0.2,1.5,0.7
	c0.4,0.4,0.7,0.9,0.7,1.5v2.1C14.6,5.1,14.3,5.3,13.8,5.3z M1.2,5.3c-0.5,0-0.8-0.3-0.8-0.7V2.5c0-0.6,0.2-1.1,0.7-1.5
	c0.4-0.4,0.8-0.6,1.4-0.6h2.1c0.4,0,0.8,0.3,0.8,0.8S5.1,1.9,4.7,1.9H2.5C2.3,1.9,2.2,1.9,2,2C1.9,2.1,1.9,2.3,1.9,2.5v2.1
	C1.9,5.1,1.6,5.3,1.2,5.3z"/>
</svg>
