<?xml version="1.0" encoding="utf-8"?>
<!-- Generator: Adobe Illustrator 25.4.1, SVG Export Plug-In . SVG Version: 6.00 Build 0)  -->
<svg version="1.1" id="Слой_1" xmlns="http://www.w3.org/2000/svg" xmlns:xlink="http://www.w3.org/1999/xlink" x="0px" y="0px"
	 viewBox="0 0 17.5 19.5" style="enable-background:new 0 0 17.5 19.5;" xml:space="preserve">
<g>
	<path d="M4.3,0.2C4.2,0.2,4.1,0.1,4,0.1C3.9,0,3.6,0,3.5,0.1c-0.1,0-0.2,0.1-0.2,0.2l-3,3c-0.3,0.3-0.3,0.8,0,1.1s0.8,0.3,1.1,0
		L3,2.6v16.2c0,0.4,0.3,0.8,0.8,0.8s0.8-0.3,0.8-0.8V2.6l1.7,1.7c0.1,0.1,0.3,0.2,0.5,0.2s0.4-0.1,0.5-0.2c0.3-0.3,0.3-0.8,0-1.1
		L4.3,0.2z"/>
	<path d="M17.3,15.2c-0.3-0.3-0.8-0.3-1.1,0l-1.7,1.7V0.8c0-0.4-0.3-0.8-0.8-0.8S13,0.3,13,0.8v16.2l-1.7-1.7
		c-0.3-0.3-0.8-0.3-1.1,0s-0.3,0.8,0,1.1l3,3c0.1,0.1,0.2,0.1,0.2,0.2c0.1,0,0.2,0.1,0.3,0.1s0.2,0,0.3-0.1c0.1,0,0.2-0.1,0.2-0.2
		l3-3C17.6,16,17.6,15.5,17.3,15.2z"/>
</g>
</svg>
