<?xml version="1.0" encoding="utf-8"?>
<!-- Generator: Adobe Illustrator 25.4.1, SVG Export Plug-In . SVG Version: 6.00 Build 0)  -->
<svg version="1.1" id="Слой_1" xmlns="http://www.w3.org/2000/svg" xmlns:xlink="http://www.w3.org/1999/xlink" x="0px" y="0px"
	 viewBox="0 0 20.5 19.6" style="enable-background:new 0 0 20.5 19.6;" xml:space="preserve">
<path d="M9.4,0.6c0.4-0.7,1.4-0.7,1.8,0l2.4,4.9C13.7,5.7,14,5.9,14.3,6l5.4,0.8c0.8,0.1,1.1,1.1,0.6,1.7l-3.9,3.8
	c-0.2,0.2-0.3,0.6-0.3,0.9l0.9,5.3c0.1,0.8-0.7,1.4-1.5,1.1L10.7,17c-0.3-0.2-0.6-0.2-0.9,0L5,19.5c-0.7,0.4-1.6-0.2-1.5-1.1
	l0.9-5.3c0.1-0.3-0.1-0.7-0.3-0.9L0.3,8.4C-0.3,7.9,0,6.9,0.9,6.7L6.2,6c0.3,0,0.6-0.3,0.8-0.5L9.4,0.6z"/>
</svg>
