<?xml version="1.0" encoding="utf-8"?>
<!-- Generator: Adobe Illustrator 25.4.1, SVG Export Plug-In . SVG Version: 6.00 Build 0)  -->
<svg version="1.1" id="Слой_1" xmlns="http://www.w3.org/2000/svg" xmlns:xlink="http://www.w3.org/1999/xlink" x="0px" y="0px"
	 viewBox="0 0 15.5 19.5" style="enable-background:new 0 0 15.5 19.5;" xml:space="preserve">
<path d="M7.8,9.5C5.1,9.5,3,7.4,3,4.8S5.1,0,7.8,0s4.8,2.1,4.8,4.8S10.4,9.5,7.8,9.5z M7.8,1.5C6,1.5,4.5,3,4.5,4.8S6,8,7.8,8
	S11,6.5,11,4.8S9.5,1.5,7.8,1.5z"/>
<path d="M14.8,19.5c-0.4,0-0.8-0.3-0.8-0.8v-2c0-0.8-0.4-1.6-1.1-2.3c-0.7-0.6-1.8-1-2.8-1H5.4c-1.1,0-2.1,0.4-2.8,1
	c-0.7,0.6-1.1,1.4-1.1,2.3v2c0,0.4-0.3,0.8-0.8,0.8S0,19.2,0,18.8v-2c0-1.3,0.6-2.5,1.6-3.4C2.6,12.5,4,12,5.4,12h4.7
	c1.4,0,2.8,0.5,3.8,1.4c1,0.9,1.6,2.1,1.6,3.4v2C15.5,19.2,15.2,19.5,14.8,19.5z"/>
</svg>
