<?xml version="1.0" encoding="utf-8"?>
<!-- Generator: Adobe Illustrator 25.4.1, SVG Export Plug-In . SVG Version: 6.00 Build 0)  -->
<svg version="1.1" id="Слой_1" xmlns="http://www.w3.org/2000/svg" xmlns:xlink="http://www.w3.org/1999/xlink" x="0px" y="0px"
	 viewBox="0 0 18 12" style="enable-background:new 0 0 18 12;" xml:space="preserve">
<path d="M17.6,1.6c-0.2-0.1-0.6-0.1-0.8,0.1l-4.1,2.9V2.2c0-1.2-1-2.2-2.2-2.2H2.2C1,0,0,1,0,2.2v7.5C0,11,1,12,2.2,12h8.2
	c1.2,0,2.2-1,2.2-2.2V7.5l4.1,2.9c0.1,0.1,0.3,0.1,0.4,0.1c0.1,0,0.2,0,0.3-0.1C17.8,10.3,18,10,18,9.8V2.2C18,2,17.8,1.7,17.6,1.6z
	 M11.2,9.8c0,0.4-0.3,0.8-0.8,0.8H2.2c-0.4,0-0.8-0.3-0.8-0.8V2.2c0-0.4,0.3-0.8,0.8-0.8h8.2c0.4,0,0.8,0.3,0.8,0.8V9.8z M16.5,8.3
	L13.3,6l3.2-2.3V8.3z"/>
</svg>
