<svg width="40" height="40" viewBox="0 0 40 40" fill="none" xmlns="http://www.w3.org/2000/svg">
<g opacity="0.3">
<rect width="40" height="40" rx="4" fill="white"/>
<path fill-rule="evenodd" clip-rule="evenodd" d="M30.9723 15.8125C31.1323 15.3442 30.9723 15 30.2113 15H27.6951C27.0553 15 26.7605 15.2973 26.6006 15.6253C26.6006 15.6253 25.3209 18.3652 23.5081 20.145C22.9217 20.6602 22.6551 20.8239 22.3352 20.8239C22.1753 20.8239 21.9438 20.6602 21.9438 20.1919V15.8125C21.9438 15.2504 21.7581 15 21.2248 15H17.2708C16.8711 15 16.6306 15.2608 16.6306 15.5081C16.6306 16.041 17.5368 16.1638 17.6303 17.6626V20.9179C17.6303 21.6316 17.4836 21.7611 17.1637 21.7611C16.3107 21.7611 14.2359 19.0086 13.0051 15.8594C12.7639 15.2473 12.522 15 11.8789 15H9.3627C8.64378 15 8.5 15.2973 8.5 15.6253C8.5 16.2107 9.35318 19.1147 12.472 22.9554C14.5515 25.578 17.4807 27 20.1465 27C21.7461 27 21.9438 26.6842 21.9438 26.1403V24.1579C21.9438 23.5263 22.0953 23.4003 22.6016 23.4003C22.9751 23.4003 23.6147 23.5642 25.1077 24.8288C26.8137 26.3274 27.0948 27 28.0546 27H30.5708C31.2897 27 31.6492 26.6842 31.4417 26.061C31.2149 25.4398 30.4004 24.5389 29.3195 23.4706C28.733 22.8616 27.8533 22.2058 27.5869 21.8781C27.2136 21.4565 27.3202 21.2692 27.5869 20.8947C27.5869 20.8947 30.6524 17.1008 30.9723 15.8127V15.8125Z" fill="#2D3134"/>
</g>
</svg>
