<?xml version="1.0" encoding="utf-8"?>
<!-- Generator: Adobe Illustrator 25.4.1, SVG Export Plug-In . SVG Version: 6.00 Build 0)  -->
<svg version="1.1" id="Слой_1" xmlns="http://www.w3.org/2000/svg" xmlns:xlink="http://www.w3.org/1999/xlink" x="0px" y="0px"
	 viewBox="0 0 41.3 41.3" style="enable-background:new 0 0 41.3 41.3;" xml:space="preserve">
<g>
	<path d="M20.7,41.3C9.3,41.3,0,32.1,0,20.7C0,9.3,9.3,0,20.7,0c11.4,0,20.7,9.3,20.7,20.7C41.3,32.1,32.1,41.3,20.7,41.3z M20.7,3
		C10.9,3,3,10.9,3,20.7c0,9.7,7.9,17.7,17.7,17.7c9.7,0,17.7-7.9,17.7-17.7C38.3,10.9,30.4,3,20.7,3z"/>
	<path d="M20.7,29.8c-0.8,0-1.5-0.7-1.5-1.5v-7.7c0-0.8,0.7-1.5,1.5-1.5s1.5,0.7,1.5,1.5v7.7C22.2,29.2,21.5,29.8,20.7,29.8z"/>
	<path d="M20.7,14.5c-0.8,0-1.5-0.7-1.5-1.5s0.7-1.5,1.5-1.5h0c0.8,0,1.5,0.7,1.5,1.5S21.5,14.5,20.7,14.5z"/>
</g>
</svg>
