<?xml version="1.0" encoding="utf-8"?>
<!-- Generator: Adobe Illustrator 25.4.1, SVG Export Plug-In . SVG Version: 6.00 Build 0)  -->
<svg version="1.1" id="Слой_1" xmlns="http://www.w3.org/2000/svg" xmlns:xlink="http://www.w3.org/1999/xlink" x="0px" y="0px"
	 viewBox="0 0 17.5 20.8" style="enable-background:new 0 0 17.5 20.8;" xml:space="preserve">
<path d="M17.3,10.4c-0.3-1.7-1.2-3.3-2.4-4.5L9.3,0.2C9.1,0.1,8.9,0,8.7,0c0,0,0,0,0,0C8.5,0,8.4,0.1,8.2,0.2L2.6,5.9
	c-1.2,1.2-2.1,2.8-2.4,4.5c-0.3,1.7-0.2,3.5,0.5,5.1s1.8,3,3.2,3.9c1.4,1,3.1,1.5,4.9,1.5c1.7,0,3.4-0.5,4.9-1.5
	c1.4-1,2.6-2.3,3.2-3.9C17.5,13.8,17.7,12.1,17.3,10.4z M15.4,14.8c-0.6,1.3-1.5,2.5-2.7,3.3c-2.4,1.6-5.7,1.6-8.1,0
	c-1.2-0.8-2.1-1.9-2.7-3.3c-0.6-1.3-0.7-2.8-0.4-4.2c0.3-1.4,1-2.7,2-3.7l5.1-5.1l5.1,5.1c1,1,1.7,2.3,2,3.7
	C16.1,12.1,16,13.5,15.4,14.8z"/>
</svg>
