<svg width="40" height="40" viewBox="0 0 40 40" fill="none" xmlns="http://www.w3.org/2000/svg">
<g opacity="0.3">
<rect width="40" height="40" rx="4" fill="white"/>
<path d="M29.5928 15.203C29.4789 14.7804 29.2563 14.395 28.9472 14.0852C28.6381 13.7753 28.2532 13.5519 27.8308 13.437C26.2648 13.007 19.9998 13 19.9998 13C19.9998 13 13.7358 12.993 12.1688 13.404C11.7468 13.5242 11.3627 13.7508 11.0534 14.0621C10.7442 14.3735 10.5201 14.7591 10.4028 15.182C9.98984 16.748 9.98584 19.996 9.98584 19.996C9.98584 19.996 9.98184 23.26 10.3918 24.81C10.6218 25.667 11.2968 26.344 12.1548 26.575C13.7368 27.005 19.9848 27.012 19.9848 27.012C19.9848 27.012 26.2498 27.019 27.8158 26.609C28.2383 26.4943 28.6236 26.2714 28.9335 25.9622C29.2434 25.653 29.4672 25.2682 29.5828 24.846C29.9968 23.281 29.9998 20.034 29.9998 20.034C29.9998 20.034 30.0198 16.769 29.5928 15.203ZM17.9958 23.005L18.0008 17.005L23.2078 20.01L17.9958 23.005Z" fill="#2D3134"/>
</g>
</svg>
