<?xml version="1.0" encoding="utf-8"?>
<!-- Generator: Adobe Illustrator 25.4.1, SVG Export Plug-In . SVG Version: 6.00 Build 0)  -->
<svg version="1.1" id="Слой_1" xmlns="http://www.w3.org/2000/svg" xmlns:xlink="http://www.w3.org/1999/xlink" x="0px" y="0px"
	 viewBox="0 0 19.5 21.5" style="enable-background:new 0 0 19.5 21.5;" xml:space="preserve">
<path d="M19.4,8.4C19.3,8.2,19,8,18.8,8h-8.2l0.9-7.2c0-0.3-0.1-0.6-0.4-0.8c-0.3-0.1-0.7,0-0.9,0.2l-10,12
	c-0.2,0.2-0.2,0.5-0.1,0.8s0.4,0.4,0.7,0.4h8.2L8,20.7c0,0.3,0.1,0.6,0.4,0.8c0.1,0,0.2,0.1,0.3,0.1c0.2,0,0.4-0.1,0.6-0.3l10-12
	C19.5,9,19.6,8.7,19.4,8.4z M9.8,18.3l0.7-5.5c0-0.2,0-0.4-0.2-0.6C10.2,12.1,10,12,9.8,12H2.4l7.3-8.8L9,8.7c0,0.2,0,0.4,0.2,0.6
	c0.1,0.2,0.3,0.3,0.6,0.3h7.4L9.8,18.3z"/>
</svg>
