<?xml version="1.0" encoding="utf-8"?>
<!-- Generator: Adobe Illustrator 25.4.1, SVG Export Plug-In . SVG Version: 6.00 Build 0)  -->
<svg version="1.1" id="Слой_1" xmlns="http://www.w3.org/2000/svg" xmlns:xlink="http://www.w3.org/1999/xlink" x="0px" y="0px"
	 viewBox="0 0 72 72" style="enable-background:new 0 0 72 72;" xml:space="preserve">
<path d="M32.2,64.3C14.4,64.3,0,49.9,0,32.2S14.4,0,32.2,0s32.2,14.4,32.2,32.2S49.9,64.3,32.2,64.3z M32.2,3C16.1,3,3,16.1,3,32.2
	s13.1,29.2,29.2,29.2s29.2-13.1,29.2-29.2S48.2,3,32.2,3z"/>
<path d="M70.5,72c-0.4,0-0.8-0.1-1.1-0.4L52.8,54.9c-0.6-0.6-0.6-1.5,0-2.1s1.5-0.6,2.1,0l16.7,16.7c0.6,0.6,0.6,1.5,0,2.1
	C71.3,71.9,70.9,72,70.5,72z"/>
<path d="M32.2,45.2c-0.8,0-1.5-0.7-1.5-1.5v-23c0-0.8,0.7-1.5,1.5-1.5s1.5,0.7,1.5,1.5v23C33.7,44.5,33,45.2,32.2,45.2z"/>
<path d="M43.7,33.7h-23c-0.8,0-1.5-0.7-1.5-1.5s0.7-1.5,1.5-1.5h23c0.8,0,1.5,0.7,1.5,1.5S44.5,33.7,43.7,33.7z"/>
</svg>
