<svg width="521" height="256" fill="none" xmlns="http://www.w3.org/2000/svg"><path stroke="#C1C3C2" stroke-linecap="round" d="M504.249 49.431l-23.993-23.993m23.284.001l-23.992 23.993m24.701 68.406l-23.993-23.993m23.284-.001l-23.993 23.992m24.701 68.409l-23.993-23.993m23.284-.002l-23.993 23.993m24.702 68.407l-23.993-23.992m23.285-.001l-23.993 23.993M435.883 49.43L411.89 25.437m23.287.002l-23.993 23.993m24.699 68.405L411.89 93.844m23.286 0l-23.993 23.993m24.7 68.407L411.89 162.25m23.286.001l-23.993 23.993m24.699 68.405l-23.993-23.993m23.287 0l-23.993 23.993M367.519 49.43l-23.993-23.993m23.286.003l-23.993 23.993m24.701 68.404l-23.993-23.993m23.285 0l-23.993 23.993m24.702 68.408l-23.993-23.993m23.284-.001l-23.993 23.993m24.702 68.406l-23.993-23.993m23.285-.001l-23.993 23.993M299.155 49.43l-23.993-23.993m23.286.002L274.455 49.43m24.702 68.407l-23.993-23.993m23.285 0l-23.993 23.993m24.7 68.407l-23.993-23.993m23.286-.001l-23.993 23.993m24.7 68.407l-23.993-23.993m23.285-.001l-23.993 23.993m-43.299.001l-23.993-23.993m23.285-.001l-23.993 23.993M230.794 49.43l-23.993-23.992m23.285 0l-23.993 23.993m24.701 68.407l-23.993-23.993m23.284-.001l-23.993 23.993m24.703 68.407l-23.993-23.993m23.285-.001l-23.993 23.993M162.431 49.43l-23.993-23.992m23.285.001L137.73 49.43m24.7 68.407l-23.993-23.993m23.286 0l-23.993 23.992m24.7 68.408l-23.993-23.993m23.285-.001l-23.993 23.993M94.067 49.43L70.075 25.439m23.284 0L69.366 49.43m24.701 68.407L70.074 93.844m23.283-.001l-23.993 23.993M25.703 49.43L1.71 25.439m23.285 0L1.002 49.432"/></svg>