<?xml version="1.0" encoding="utf-8"?>
<!-- Generator: Adobe Illustrator 25.4.1, SVG Export Plug-In . SVG Version: 6.00 Build 0)  -->
<svg version="1.1" id="Слой_1" xmlns="http://www.w3.org/2000/svg" xmlns:xlink="http://www.w3.org/1999/xlink" x="0px" y="0px"
	 viewBox="0 0 253 253" style="enable-background:new 0 0 253 253;" xml:space="preserve">
<style type="text/css">
	.st0{opacity:0.2;fill:url(#SVGID_1_);enable-background:new    ;}
	.st1{fill:#FFFFFF;stroke:#C02235;}
	.st2{fill:#54555A;}
	.st3{fill:#C02235;}
</style>
<radialGradient id="SVGID_1_" cx="-829.7352" cy="673.585" r="1" gradientTransform="matrix(7.745891e-15 126.5 126.5 -7.745891e-15 -85082 105088)" gradientUnits="userSpaceOnUse">
	<stop  offset="0" style="stop-color:#C02235;stop-opacity:0"/>
	<stop  offset="1" style="stop-color:#C02235"/>
</radialGradient>
<circle class="st0" cx="126.5" cy="126.5" r="126.5"/>
<circle class="st1" cx="123.7" cy="129" r="46.2"/>
<path class="st2" d="M146.8,143.1c-0.3,0.3-0.5,0.5-1,0.5c-0.6,0-1.1-0.5-1.1-1.2c0-0.7,0.4-1.2,1.1-1.2c0.4,0,0.7,0.2,0.9,0.4
	l0.9-0.7c-0.4-0.5-0.9-0.8-1.8-0.8c-1.4,0-2.4,1-2.4,2.4c0,1.4,1,2.4,2.3,2.4c0.9,0,1.5-0.4,1.9-0.9L146.8,143.1z"/>
<path class="st2" d="M108.2,141.2h-1.4v-1.1h3.9v1.1h-1.4v3.4h-1.2V141.2z"/>
<path class="st2" d="M120.7,140.1h1.2v1.7h1.6v-1.7h1.2v4.5h-1.2V143h-1.6v1.7h-1.2V140.1z"/>
<path class="st2" d="M125.8,140.1h1.2l1.9,2.4v-2.4h1.2v4.5h-1.1l-1.9-2.5v2.5h-1.2V140.1z"/>
<path class="st2" d="M130.7,142.4c0-1.3,1-2.4,2.4-2.4c1.4,0,2.4,1,2.4,2.4c0,1.3-1,2.4-2.4,2.4
	C131.7,144.8,130.7,143.7,130.7,142.4z M134.3,142.4c0-0.7-0.5-1.2-1.2-1.2c-0.7,0-1.1,0.5-1.1,1.2c0,0.7,0.5,1.2,1.2,1.2
	C133.8,143.6,134.3,143.1,134.3,142.4z"/>
<path class="st2" d="M136.3,140.1h1.2l1.9,2.4v-2.4h1.2v4.5h-1.1l-1.9-2.5v2.5h-1.2V140.1z"/>
<path class="st2" d="M142.7,140.1h-1.2v4.5h1.2V140.1z"/>
<path class="st2" d="M148,142.4c0-1.3,1-2.4,2.4-2.4c1.4,0,2.4,1,2.4,2.4c0,1.3-1,2.4-2.4,2.4C149,144.8,148,143.7,148,142.4z
	 M151.6,142.4c0-0.7-0.5-1.2-1.2-1.2c-0.7,0-1.1,0.5-1.1,1.2c0,0.7,0.5,1.2,1.2,1.2C151.1,143.6,151.6,143.1,151.6,142.4z"/>
<path class="st2" d="M153.6,140.1h1.2v3.4h2.2v1.1h-3.4V140.1z"/>
<path class="st2" d="M119.1,143.1c-0.3,0.3-0.5,0.5-1,0.5c-0.6,0-1.1-0.5-1.1-1.2c0-0.7,0.4-1.2,1.1-1.2c0.4,0,0.7,0.2,0.9,0.4
	l0.9-0.7c-0.4-0.5-0.9-0.8-1.8-0.8c-1.4,0-2.4,1-2.4,2.4c0,1.4,1,2.4,2.3,2.4c0.9,0,1.5-0.4,1.9-0.9L119.1,143.1z"/>
<path class="st2" d="M111.5,140.1h3.6v1.1h-2.4v0.7h2.2v1h-2.2v0.7h2.4v1.1h-3.6V140.1z"/>
<path class="st2" d="M117,127.7c0-5.1,4-8.7,9.1-8.7c5.1,0,9.1,3.5,9.1,8.7c0,5.1-4,8.7-9.1,8.7C121,136.4,117,132.8,117,127.7z
	 M130.1,127.7c0-2.3-1.6-4.2-4-4.2s-4,1.9-4,4.2s1.6,4.2,4,4.2S130.1,130,130.1,127.7z"/>
<path class="st2" d="M151.8,136.1V126l-3.7,10.1h-2.2l-3.7-10.1v10.1h-5v-16.8h6.9l2.9,8l2.9-8h6.9v16.8H151.8z"/>
<path class="st2" d="M106.3,119.3h-2.7l-4.7,3.4v13.4h7.5c5.2,0,9.1-3,9.1-8.4S111.6,119.3,106.3,119.3z M106.3,131.6h-2.4v-7.9h2.4
	c2.7,0,4,1.7,4,3.9C110.3,129.8,108.8,131.6,106.3,131.6z"/>
<path class="st3" d="M95.3,120.4l8.1-5.7c0.2-0.1,0.2-0.2,0.2-0.6l0-4.7c0-0.3,0-0.5-0.4-0.2l-5.4,3.8c-0.2,0.2-0.3,0.1-0.3-0.3V111
	c0-0.2-0.1-0.4-0.3-0.4h-4.3c-0.2,0-0.3,0.2-0.3,0.4l0,5.3c0,0.4,0.1,0.5-0.1,0.7l-1.9,1.3c-0.3,0.2-0.3,0.2-0.3,0.5v25.3
	c0,0.2,0.2,0.4,0.4,0.4h3.8h8.6c0.2,0,0.4-0.2,0.4-0.4v-3.8c0-0.2-0.2-0.4-0.4-0.4l-8,0c-0.1,0-0.2-0.1-0.2-0.2l-0.1-18.7
	C94.9,120.7,94.9,120.7,95.3,120.4z"/>
</svg>
