<svg width="521" height="256" viewBox="0 0 521 256" fill="none" xmlns="http://www.w3.org/2000/svg">
<line x1="0.5" y1="-0.5" x2="34.4308" y2="-0.5" transform="matrix(-0.707107 -0.707107 -0.707107 0.707107 504.249 50.1382)" stroke="#C1C3C2" stroke-linecap="round"/>
<line x1="0.5" y1="-0.5" x2="34.4308" y2="-0.5" transform="matrix(-0.707107 0.707107 0.707107 0.707107 504.248 25.4387)" stroke="#C1C3C2" stroke-linecap="round"/>
<line x1="0.5" y1="-0.5" x2="34.4308" y2="-0.5" transform="matrix(-0.707107 -0.707107 -0.707107 0.707107 504.249 118.545)" stroke="#C1C3C2" stroke-linecap="round"/>
<line x1="0.5" y1="-0.5" x2="34.4308" y2="-0.5" transform="matrix(-0.707107 0.707107 0.707107 0.707107 504.247 93.8435)" stroke="#C1C3C2" stroke-linecap="round"/>
<line x1="0.5" y1="-0.5" x2="34.4308" y2="-0.5" transform="matrix(-0.707107 -0.707107 -0.707107 0.707107 504.248 186.952)" stroke="#C1C3C2" stroke-linecap="round"/>
<line x1="0.5" y1="-0.5" x2="34.4308" y2="-0.5" transform="matrix(-0.707107 0.707107 0.707107 0.707107 504.246 162.25)" stroke="#C1C3C2" stroke-linecap="round"/>
<line x1="0.5" y1="-0.5" x2="34.4308" y2="-0.5" transform="matrix(-0.707107 -0.707107 -0.707107 0.707107 504.248 255.358)" stroke="#C1C3C2" stroke-linecap="round"/>
<line x1="0.5" y1="-0.5" x2="34.4308" y2="-0.5" transform="matrix(-0.707107 0.707107 0.707107 0.707107 504.247 230.657)" stroke="#C1C3C2" stroke-linecap="round"/>
<line x1="0.5" y1="-0.5" x2="34.4308" y2="-0.5" transform="matrix(-0.707107 -0.707107 -0.707107 0.707107 435.883 50.1372)" stroke="#C1C3C2" stroke-linecap="round"/>
<line x1="0.5" y1="-0.5" x2="34.4308" y2="-0.5" transform="matrix(-0.707107 0.707107 0.707107 0.707107 435.884 25.4387)" stroke="#C1C3C2" stroke-linecap="round"/>
<line x1="0.5" y1="-0.5" x2="34.4308" y2="-0.5" transform="matrix(-0.707107 -0.707107 -0.707107 0.707107 435.883 118.544)" stroke="#C1C3C2" stroke-linecap="round"/>
<line x1="0.5" y1="-0.5" x2="34.4308" y2="-0.5" transform="matrix(-0.707107 0.707107 0.707107 0.707107 435.883 93.8442)" stroke="#C1C3C2" stroke-linecap="round"/>
<line x1="0.5" y1="-0.5" x2="34.4308" y2="-0.5" transform="matrix(-0.707107 -0.707107 -0.707107 0.707107 435.883 186.951)" stroke="#C1C3C2" stroke-linecap="round"/>
<line x1="0.5" y1="-0.5" x2="34.4308" y2="-0.5" transform="matrix(-0.707107 0.707107 0.707107 0.707107 435.883 162.251)" stroke="#C1C3C2" stroke-linecap="round"/>
<line x1="0.5" y1="-0.5" x2="34.4308" y2="-0.5" transform="matrix(-0.707107 -0.707107 -0.707107 0.707107 435.882 255.356)" stroke="#C1C3C2" stroke-linecap="round"/>
<line x1="0.5" y1="-0.5" x2="34.4308" y2="-0.5" transform="matrix(-0.707107 0.707107 0.707107 0.707107 435.883 230.656)" stroke="#C1C3C2" stroke-linecap="round"/>
<line x1="0.5" y1="-0.5" x2="34.4308" y2="-0.5" transform="matrix(-0.707107 -0.707107 -0.707107 0.707107 367.519 50.1372)" stroke="#C1C3C2" stroke-linecap="round"/>
<line x1="0.5" y1="-0.5" x2="34.4308" y2="-0.5" transform="matrix(-0.707107 0.707107 0.707107 0.707107 367.519 25.4399)" stroke="#C1C3C2" stroke-linecap="round"/>
<line x1="0.5" y1="-0.5" x2="34.4308" y2="-0.5" transform="matrix(-0.707107 -0.707107 -0.707107 0.707107 367.52 118.544)" stroke="#C1C3C2" stroke-linecap="round"/>
<line x1="0.5" y1="-0.5" x2="34.4308" y2="-0.5" transform="matrix(-0.707107 0.707107 0.707107 0.707107 367.519 93.844)" stroke="#C1C3C2" stroke-linecap="round"/>
<line x1="0.5" y1="-0.5" x2="34.4308" y2="-0.5" transform="matrix(-0.707107 -0.707107 -0.707107 0.707107 367.521 186.952)" stroke="#C1C3C2" stroke-linecap="round"/>
<line x1="0.5" y1="-0.5" x2="34.4308" y2="-0.5" transform="matrix(-0.707107 0.707107 0.707107 0.707107 367.519 162.251)" stroke="#C1C3C2" stroke-linecap="round"/>
<line x1="0.5" y1="-0.5" x2="34.4308" y2="-0.5" transform="matrix(-0.707107 -0.707107 -0.707107 0.707107 367.521 255.357)" stroke="#C1C3C2" stroke-linecap="round"/>
<line x1="0.5" y1="-0.5" x2="34.4308" y2="-0.5" transform="matrix(-0.707107 0.707107 0.707107 0.707107 367.52 230.656)" stroke="#C1C3C2" stroke-linecap="round"/>
<line x1="0.5" y1="-0.5" x2="34.4308" y2="-0.5" transform="matrix(-0.707107 -0.707107 -0.707107 0.707107 299.155 50.1372)" stroke="#C1C3C2" stroke-linecap="round"/>
<line x1="0.5" y1="-0.5" x2="34.4308" y2="-0.5" transform="matrix(-0.707107 0.707107 0.707107 0.707107 299.155 25.4385)" stroke="#C1C3C2" stroke-linecap="round"/>
<line x1="0.5" y1="-0.5" x2="34.4308" y2="-0.5" transform="matrix(-0.707107 -0.707107 -0.707107 0.707107 299.157 118.544)" stroke="#C1C3C2" stroke-linecap="round"/>
<line x1="0.5" y1="-0.5" x2="34.4308" y2="-0.5" transform="matrix(-0.707107 0.707107 0.707107 0.707107 299.156 93.8438)" stroke="#C1C3C2" stroke-linecap="round"/>
<line x1="0.5" y1="-0.5" x2="34.4308" y2="-0.5" transform="matrix(-0.707107 -0.707107 -0.707107 0.707107 299.156 186.951)" stroke="#C1C3C2" stroke-linecap="round"/>
<line x1="0.5" y1="-0.5" x2="34.4308" y2="-0.5" transform="matrix(-0.707107 0.707107 0.707107 0.707107 299.156 162.25)" stroke="#C1C3C2" stroke-linecap="round"/>
<line x1="0.5" y1="-0.5" x2="34.4308" y2="-0.5" transform="matrix(-0.707107 -0.707107 -0.707107 0.707107 299.156 255.357)" stroke="#C1C3C2" stroke-linecap="round"/>
<line x1="0.5" y1="-0.5" x2="34.4308" y2="-0.5" transform="matrix(-0.707107 0.707107 0.707107 0.707107 299.155 230.656)" stroke="#C1C3C2" stroke-linecap="round"/>
<line x1="0.5" y1="-0.5" x2="34.4308" y2="-0.5" transform="matrix(-0.707107 -0.707107 -0.707107 0.707107 231.156 255.357)" stroke="#C1C3C2" stroke-linecap="round"/>
<line x1="0.5" y1="-0.5" x2="34.4308" y2="-0.5" transform="matrix(-0.707107 0.707107 0.707107 0.707107 231.155 230.656)" stroke="#C1C3C2" stroke-linecap="round"/>
<line x1="0.5" y1="-0.5" x2="34.4308" y2="-0.5" transform="matrix(-0.707107 -0.707107 -0.707107 0.707107 230.794 50.1375)" stroke="#C1C3C2" stroke-linecap="round"/>
<line x1="0.5" y1="-0.5" x2="34.4308" y2="-0.5" transform="matrix(-0.707107 0.707107 0.707107 0.707107 230.793 25.4382)" stroke="#C1C3C2" stroke-linecap="round"/>
<line x1="0.5" y1="-0.5" x2="34.4308" y2="-0.5" transform="matrix(-0.707107 -0.707107 -0.707107 0.707107 230.794 118.545)" stroke="#C1C3C2" stroke-linecap="round"/>
<line x1="0.5" y1="-0.5" x2="34.4308" y2="-0.5" transform="matrix(-0.707107 0.707107 0.707107 0.707107 230.792 93.8438)" stroke="#C1C3C2" stroke-linecap="round"/>
<line x1="0.5" y1="-0.5" x2="34.4308" y2="-0.5" transform="matrix(-0.707107 -0.707107 -0.707107 0.707107 230.795 186.951)" stroke="#C1C3C2" stroke-linecap="round"/>
<line x1="0.5" y1="-0.5" x2="34.4308" y2="-0.5" transform="matrix(-0.707107 0.707107 0.707107 0.707107 230.794 162.25)" stroke="#C1C3C2" stroke-linecap="round"/>
<line x1="0.5" y1="-0.5" x2="34.4308" y2="-0.5" transform="matrix(-0.707107 -0.707107 -0.707107 0.707107 162.431 50.1377)" stroke="#C1C3C2" stroke-linecap="round"/>
<line x1="0.5" y1="-0.5" x2="34.4308" y2="-0.5" transform="matrix(-0.707107 0.707107 0.707107 0.707107 162.43 25.4385)" stroke="#C1C3C2" stroke-linecap="round"/>
<line x1="0.5" y1="-0.5" x2="34.4308" y2="-0.5" transform="matrix(-0.707107 -0.707107 -0.707107 0.707107 162.43 118.544)" stroke="#C1C3C2" stroke-linecap="round"/>
<line x1="0.5" y1="-0.5" x2="34.4308" y2="-0.5" transform="matrix(-0.707107 0.707107 0.707107 0.707107 162.43 93.8435)" stroke="#C1C3C2" stroke-linecap="round"/>
<line x1="0.5" y1="-0.5" x2="34.4308" y2="-0.5" transform="matrix(-0.707107 -0.707107 -0.707107 0.707107 162.43 186.951)" stroke="#C1C3C2" stroke-linecap="round"/>
<line x1="0.5" y1="-0.5" x2="34.4308" y2="-0.5" transform="matrix(-0.707107 0.707107 0.707107 0.707107 162.429 162.25)" stroke="#C1C3C2" stroke-linecap="round"/>
<line x1="0.5" y1="-0.5" x2="34.4308" y2="-0.5" transform="matrix(-0.707107 -0.707107 -0.707107 0.707107 94.0674 50.1379)" stroke="#C1C3C2" stroke-linecap="round"/>
<line x1="0.5" y1="-0.5" x2="34.4308" y2="-0.5" transform="matrix(-0.707107 0.707107 0.707107 0.707107 94.0657 25.4385)" stroke="#C1C3C2" stroke-linecap="round"/>
<line x1="0.5" y1="-0.5" x2="34.4308" y2="-0.5" transform="matrix(-0.707107 -0.707107 -0.707107 0.707107 94.0671 118.544)" stroke="#C1C3C2" stroke-linecap="round"/>
<line x1="0.5" y1="-0.5" x2="34.4308" y2="-0.5" transform="matrix(-0.707107 0.707107 0.707107 0.707107 94.064 93.843)" stroke="#C1C3C2" stroke-linecap="round"/>
<line x1="0.5" y1="-0.5" x2="34.4308" y2="-0.5" transform="matrix(-0.707107 -0.707107 -0.707107 0.707107 25.7029 50.1379)" stroke="#C1C3C2" stroke-linecap="round"/>
<line x1="0.5" y1="-0.5" x2="34.4308" y2="-0.5" transform="matrix(-0.707107 0.707107 0.707107 0.707107 25.7017 25.439)" stroke="#C1C3C2" stroke-linecap="round"/>
</svg>
