<svg width="812" height="778" fill="none" xmlns="http://www.w3.org/2000/svg"><g opacity=".2" filter="url(#a)"><path d="M677.317 682.523L798 638.141l-91.916-44.473-28.767 88.855z" fill="#343B61"/></g><g opacity=".2" filter="url(#b)"><path d="M188.807 400.583l120.683-44.382-91.939-44.474-28.744 88.856z" fill="#343B61"/></g><g opacity=".2" filter="url(#c)"><path d="M414.472 516.086l120.683-44.382-91.939-44.474-28.744 88.856z" fill="#343B61"/></g><path d="M62.301 198.745l80.777-46.925-.321.756-80.776 46.925.32-.756z" fill="#E6E6E6"/><path d="M61.5 199l79-50.5 67.057 41.469-80.776 46.925L61.501 199z" fill="#E5E7EF"/><path d="M189.013 327.697l80.777-46.925-.207 72.885-80.776 46.926.206-72.886z" fill="#141617"/><path d="M189.013 327.697l80.777-46.925-.207 72.885-80.776 46.926.206-72.886z" fill="#B4BAD7"/><path d="M189.174 272.913l80.776-46.925 33.489 19.338-80.777 46.925-33.488-19.338z" fill="#E6ECFF"/><path d="M189.174 272.913l80.776-46.925 33.489 19.338-80.777 46.925-33.488-19.338z" fill="#474E53"/><path d="M189.174 272.913l80.776-46.925 33.489 19.338-80.777 46.925-33.488-19.338z" fill="#E9ECF8"/><path d="M222.663 292.251l80.776-46.925-.16 54.784-80.777 46.903.161-54.762z" fill="#141617"/><path d="M222.663 292.251l80.776-46.925-.16 54.784-80.777 46.903.161-54.762z" fill="#B4BAD7"/><path d="M207.832 61.635c-9.329 15.558-17.122 30.016-26.773 44.29l-37.981 45.917L61.5 199.5l38.783-46.649c9.65-14.275 17.443-28.733 26.773-44.291l80.776-46.925z" fill="#B3C9FF"/><path d="M207.832 61.635c-9.329 15.558-17.122 30.016-26.773 44.29l-37.981 45.917L61.5 199.5l38.783-46.649c9.65-14.275 17.443-28.733 26.773-44.291l80.776-46.925z" fill="#141617"/><path d="M207.832 61.635c-9.329 15.558-17.122 30.016-26.773 44.29l-37.981 45.917L61.5 199.5l38.783-46.649c9.65-14.275 17.443-28.733 26.773-44.291l80.776-46.925z" fill="#B4BAD7"/><path d="M105.509 46.925L186.286 0l84.168 48.575L189.678 95.5l-84.169-48.575z" fill="#E9ECF8"/><path d="M189.678 95.5l80.776-46.925-.504 177.413-80.776 46.925.504-177.413z" fill="#141617"/><path d="M189.678 95.5l80.776-46.925-.504 177.413-80.776 46.925.504-177.413z" fill="#B4BAD7"/><path d="M189.174 272.913l33.488 19.338-.16 54.785-33.489-19.339-.206 72.886-62.393-35.996.206-72.886L0 218.61l.138-47.681L105.509 46.925 189.678 95.5l-.504 177.413zm-62.21-105.146c.046-19.018.756-37.898 1.627-58.199l-1.558-.985c-9.329 15.558-17.123 29.993-26.773 44.29l-37.959 45.872-.32.756 64.8 37.393.183-69.127z" fill="#3A4045"/><path d="M189.174 272.913l33.488 19.338-.16 54.785-33.489-19.339-.206 72.886-62.393-35.996.206-72.886L0 218.61l.138-47.681L105.509 46.925 189.678 95.5l-.504 177.413zm-62.21-105.146c.046-19.018.756-37.898 1.627-58.199l-1.558-.985c-9.329 15.558-17.123 29.993-26.773 44.29l-37.959 45.872-.32.756 64.8 37.393.183-69.127z" fill="#D0D4E7"/><path d="M458.253 403.057l-80.777 46.925c-6.166 3.598-13.592 2.887-22.119-2.039-9.444-5.453-17.719-14.779-24.389-27.907l80.776-46.926c6.671 13.129 14.945 22.455 24.366 27.908 8.55 4.926 15.977 5.636 22.143 2.039z" fill="#E5E7EF"/><path d="M393.613 272.936c-.137 44.107 6.648 77.697 18.131 100.174l-80.776 46.926c-11.484-22.478-18.269-56.068-18.131-100.175.137-47.796 8.252-73.687 21.111-81.157l80.776-46.925c-12.859 7.47-20.973 33.361-21.111 81.157z" fill="#141617"/><path d="M393.613 272.936c-.137 44.107 6.648 77.697 18.131 100.174l-80.776 46.926c-11.484-22.478-18.269-56.068-18.131-100.175.137-47.796 8.252-73.687 21.111-81.157l80.776-46.925c-12.859 7.47-20.973 33.361-21.111 81.157z" fill="#B4BAD7"/><path d="M437.394 139.286c-30.28-17.482-54.073-19.292-71.585-9.119l-80.776 46.925c17.512-10.173 41.305-8.363 71.585 9.119 74.129 42.778 106.746 131.359 106.494 218.702-.137 52.401-11.69 91.88-36.72 106.43l80.776-46.926c25.031-14.549 36.583-54.028 36.721-106.429.252-87.343-32.366-175.924-106.495-218.702z" fill="url(#d)"/><path d="M356.617 186.211c74.13 42.778 106.747 131.359 106.495 218.702-.252 88.787-33.191 140.455-109.108 96.646-72.318-41.747-106.082-130.213-106.173-219.298.275-88.924 35.528-138.323 108.786-96.05zm-1.283 261.709c26.795 15.466 42.589-10.7 42.795-79.828.183-68.325-15.06-111.859-42.36-127.6-24.87-14.367-42.749 8.248-42.955 79.369-.183 69.838 16.893 113.281 42.52 128.059z" fill="#3A4045"/><path d="M356.617 186.211c74.13 42.778 106.747 131.359 106.495 218.702-.252 88.787-33.191 140.455-109.108 96.646-72.318-41.747-106.082-130.213-106.173-219.298.275-88.924 35.528-138.323 108.786-96.05zm-1.283 261.709c26.795 15.466 42.589-10.7 42.795-79.828.183-68.325-15.06-111.859-42.36-127.6-24.87-14.367-42.749 8.248-42.955 79.369-.183 69.838 16.893 113.281 42.52 128.059z" fill="#D0D4E7"/><path d="M550.811 480.685l80.777-46.925-.321.756-80.777 46.925.321-.756z" fill="#E6E6E6"/><path d="M548.5 481l81-52 66.59 42.933-80.777 46.925L548.5 481z" fill="#E5E7EF"/><path d="M677.523 609.638l80.776-46.925-.206 72.885-80.776 46.925.206-72.885z" fill="#141617"/><path d="M677.523 609.638l80.776-46.925-.206 72.885-80.776 46.925.206-72.885z" fill="#B4BAD7"/><path d="M677.683 554.854l80.777-46.925 33.512 19.315-80.777 46.925-33.512-19.315z" fill="#E9ECF8"/><path d="M711.195 574.169l80.777-46.925-.161 54.784-80.776 46.925.16-54.784z" fill="#141617"/><path d="M711.195 574.169l80.777-46.925-.161 54.784-80.776 46.925.16-54.784z" fill="#B4BAD7"/><path d="M615.588 390.501c-9.352 15.558-17.145 29.993-26.795 44.267l-37.982 45.895 80.777-46.926 37.981-45.894c9.65-14.297 17.444-28.732 26.796-44.267l-80.777 46.925z" fill="#B3C9FF"/><path d="M615.588 390.501c-9.352 15.558-17.145 29.993-26.795 44.267l-37.982 45.895 80.777-46.926 37.981-45.894c9.65-14.297 17.444-28.732 26.796-44.267l-80.777 46.925z" fill="#141617"/><path d="M615.588 390.501c-9.352 15.558-17.145 29.993-26.795 44.267l-37.982 45.895 80.777-46.926 37.981-45.894c9.65-14.297 17.444-28.732 26.796-44.267l-80.777 46.925z" fill="#B4BAD7"/><path d="M594.019 328.866l80.776-46.925 84.169 48.575-80.776 46.925-84.169-48.575z" fill="#E9ECF8"/><path d="M678.188 377.441l80.776-46.925-.504 177.413-80.777 46.925.505-177.413z" fill="#141617"/><path d="M678.188 377.441l80.776-46.925-.504 177.413-80.777 46.925.505-177.413z" fill="#B4BAD7"/><path d="M677.683 554.854l33.489 19.338-.16 54.784-33.489-19.338-.206 72.885-62.371-35.996.207-72.885-126.62-73.068.137-47.682 105.349-124.003 84.169 48.575-.505 177.39zm-62.164-105.147c.046-19.017.757-37.897 1.628-58.221l-1.536-.985c-9.352 15.558-17.145 29.993-26.795 44.267l-37.982 45.894-.321.757 64.823 37.416.183-69.128z" fill="#3A4045"/><path d="M677.683 554.854l33.489 19.338-.16 54.784-33.489-19.338-.206 72.885-62.371-35.996.207-72.885-126.62-73.068.137-47.682 105.349-124.003 84.169 48.575-.505 177.39zm-62.164-105.147c.046-19.017.757-37.897 1.628-58.221l-1.536-.985c-9.352 15.558-17.145 29.993-26.795 44.267l-37.982 45.894-.321.757 64.823 37.416.183-69.128z" fill="#D0D4E7"/><g filter="url(#e)" fill-rule="evenodd" clip-rule="evenodd" opacity=".34"><path d="M203.683 531.048c.94-.527.917-1.398 0-1.925l-13.374-7.714c1.602-2.093 2.407-3.579 2.166-4.384-.092-.321-.276-.55-.642-.802-.367-.229-.757-.344-1.261-.435-1.41-.227-3.808.147-7.932 1.199l-12.17-7.019c-.917-.527-2.43-.527-3.347 0l-32.985 19.155c-.916.527-.893 1.398.023 1.925l23.449 19.155c.94.527 2.43.527 3.347 0l42.726-19.155z" fill="#DAE4FF"/><path d="M203.683 531.048c.94-.527.917-1.398 0-1.925l-13.374-7.714c1.602-2.093 2.407-3.579 2.166-4.384-.092-.321-.276-.55-.642-.802-.367-.229-.757-.344-1.261-.435-1.41-.227-3.808.147-7.932 1.199l-12.17-7.019c-.917-.527-2.43-.527-3.347 0l-32.985 19.155c-.916.527-.893 1.398.023 1.925l23.449 19.155c.94.527 2.43.527 3.347 0l42.726-19.155z" fill="#181B1D"/><path d="M203.683 531.048c.94-.527.917-1.398 0-1.925l-13.374-7.714c1.602-2.093 2.407-3.579 2.166-4.384-.092-.321-.276-.55-.642-.802-.367-.229-.757-.344-1.261-.435-1.41-.227-3.808.147-7.932 1.199l-12.17-7.019c-.917-.527-2.43-.527-3.347 0l-32.985 19.155c-.916.527-.893 1.398.023 1.925l23.449 19.155c.94.527 2.43.527 3.347 0l42.726-19.155z" fill="#343B61"/></g><path d="M194.629 528.183v1.925c0 .344-.229.687-.687.962l-32.985 19.155c-.917.527-2.407.527-3.347 0l-33.213-19.155c-.459-.275-.711-.618-.688-.985v-1.925c0 .344.229.711.711.986l33.213 19.155c.917.527 2.43.527 3.347 0l32.984-19.155c.436-.275.665-.619.665-.963z" fill="#C02235"/><path d="M193.942 527.198c.916.527.939 1.398 0 1.925l-32.985 19.155c-.917.527-2.407.527-3.347 0l-33.213-19.155c-.917-.527-.94-1.398-.023-1.925l32.984-19.155c.917-.527 2.43-.527 3.347 0l33.237 19.155z" fill="#E73248"/><path d="M173.312 534.209c-8.114 4.56-21.088 4.423-28.95-.297-4.814-2.864-6.625-6.783-5.456-10.449 1.284-4.032 2.476-7.744 3.576-11.181 2.934-9.188 4.882-15.283 6.556-20.369 2.177-6.53 3.209-9.188 3.553-10.059 1.948-4.995 3.346-7.309 4.951-8.226.596-.298 1.146-.481 1.811-.435.71.046 1.26.275 1.856.687 2.865 2.017 5.708 11.09 7.037 15.077 1.788 5.339 4.401 13.725 7.45 23.417 1.077 3.437 2.223 7.148 3.507 11.204 1.169 3.758-.802 7.767-5.891 10.631z" fill="#C02235"/><path d="M170.332 495.327l.367 1.145c.688 2.154-.436 4.468-3.37 6.118-4.653 2.612-12.102 2.543-16.618-.16-2.773-1.65-3.805-3.919-3.117-6.027l.366-1.145a851.206 851.206 0 011.949-5.843c-.573 1.696.252 3.529 2.498 4.881 3.645 2.176 9.605 2.222 13.364.137 2.361-1.329 3.278-3.208 2.682-4.949.55 1.741 1.306 4.078 1.879 5.843zm.871 27.701c-6.899 3.872-17.925 3.758-24.618-.252-4.08-2.452-5.616-5.774-4.63-8.867.183-.55.344-1.1.527-1.627.596-1.856 1.398-4.353 1.971-6.209-.848 2.658.459 5.499 3.966 7.584 5.73 3.414 15.151 3.528 21.042.206 3.691-2.085 5.135-4.995 4.264-7.722a493.344 493.344 0 011.948 6.233c.16.527.344 1.077.504 1.626 1.032 3.208-.642 6.622-4.974 9.028z" fill="#F3FAFF"/><g opacity=".4" filter="url(#f)" fill-rule="evenodd" clip-rule="evenodd"><path d="M496.272 689.435c.963-.573.779-1.283-.435-1.581l-13.454-3.303c-4.285-2.795-9.389-5.613-13.342-6.252-4.019-.649-7.286-.344-9.358.678l-7.237-1.777c-1.192-.298-2.98-.069-3.943.504l-1.398.825c-.963.572-.78 1.283.435 1.581l8.658 2.125c-1.6 1.755-3.138 3.43-4.598 5.021-9.074 9.884-15.14 16.491-14.466 18.699.114.39.344.664.779.962.413.275.894.413 1.49.527 4.057.665 51.528-16.68 51.528-16.68 1.215.298 2.98.069 3.943-.504l1.398-.825z" fill="#DAE4FF"/><path d="M496.272 689.435c.963-.573.779-1.283-.435-1.581l-13.454-3.303c-4.285-2.795-9.389-5.613-13.342-6.252-4.019-.649-7.286-.344-9.358.678l-7.237-1.777c-1.192-.298-2.98-.069-3.943.504l-1.398.825c-.963.572-.78 1.283.435 1.581l8.658 2.125c-1.6 1.755-3.138 3.43-4.598 5.021-9.074 9.884-15.14 16.491-14.466 18.699.114.39.344.664.779.962.413.275.894.413 1.49.527 4.057.665 51.528-16.68 51.528-16.68 1.215.298 2.98.069 3.943-.504l1.398-.825z" fill="#181B1D"/><path d="M496.272 689.435c.963-.573.779-1.283-.435-1.581l-13.454-3.303c-4.285-2.795-9.389-5.613-13.342-6.252-4.019-.649-7.286-.344-9.358.678l-7.237-1.777c-1.192-.298-2.98-.069-3.943.504l-1.398.825c-.963.572-.78 1.283.435 1.581l8.658 2.125c-1.6 1.755-3.138 3.43-4.598 5.021-9.074 9.884-15.14 16.491-14.466 18.699.114.39.344.664.779.962.413.275.894.413 1.49.527 4.057.665 51.528-16.68 51.528-16.68 1.215.298 2.98.069 3.943-.504l1.398-.825z" fill="#343B61"/></g><path d="M445.982 636.438c.298-.206.687-.298 1.123-.275.114 0 .252.023.367.046l42.886 9.623c1.192.275 2.178 1.375 2.178 2.475l.206 39.547c0 .138-.023.275-.046.412a1.425 1.425 0 01-.366.688c-.069.069-.161.137-.253.206l1.743-1.146c.412-.275.664-.733.664-1.306l-.206-39.547c0-1.1-.986-2.2-2.178-2.475l-42.909-9.623c-.573-.137-1.123-.046-1.513.229l-1.696 1.146z" fill="#FF7887"/><path d="M445.982 636.438c.298-.206.687-.298 1.123-.275.114 0 .252.023.367.046l42.886 9.623c1.192.275 2.178 1.375 2.178 2.475l.206 39.547c0 .138-.023.275-.046.412a1.425 1.425 0 01-.366.688c-.069.069-.161.137-.253.206l1.743-1.146c.412-.275.664-.733.664-1.306l-.206-39.547c0-1.1-.986-2.2-2.178-2.475l-42.909-9.623c-.573-.137-1.123-.046-1.513.229l-1.696 1.146z" fill="#E73248"/><path d="M490.588 689.389c.71.161 1.352-.023 1.742-.435.252-.275.412-.642.412-1.077l-.206-39.547c0-1.1-.986-2.223-2.178-2.475l-42.909-9.623c-.573-.138-1.123-.046-1.513.229-.413.275-.665.733-.665 1.283l.206 39.547c0 1.1.986 2.223 2.178 2.475l42.933 9.623z" fill="#C02235"/><mask id="a" style="mask-type:alpha" maskUnits="userSpaceOnUse" x="445" y="636" width="48" height="54"><path d="M490.587 689.389c.711.161 1.353-.023 1.742-.435.253-.275.413-.642.413-1.077l-.206-39.547c0-1.1-.986-2.223-2.178-2.475l-42.909-9.623c-.573-.138-1.124-.046-1.513.229-.413.275-.665.733-.665 1.283l.206 39.547c0 1.1.986 2.223 2.178 2.475l42.932 9.623z" fill="#C02235"/></mask><g filter="url(#h)" mask="url(#a)"><path d="M486.164 671.242l4.424 18.147-25.994-5.843 13.318-16.909 8.252 4.605z" fill="#AD1527"/></g><path d="M475.597 682.653c-.459.366-.894.71-1.33 1.054.436-.344.894-.688 1.33-1.054z" fill="#4D4D4D"/><path d="M475.597 682.653c-.436.343-.894.71-1.33 1.054.436-.321.871-.688 1.33-1.054zm-28.423-19.086c-.161.549-.321 1.099-.482 1.626.161-.527.321-1.077.482-1.626z" fill="#4D4D4D"/><path d="M447.174 663.567l-.482 1.649c.161-.573.321-1.122.482-1.649z" fill="#4D4D4D"/><path d="M484.536 664.323c-4.172-8.318-14.991-15.466-24.159-15.97-5.593-.321-9.284 1.924-10.361 5.59-1.192 4.056-2.292 7.813-3.301 11.25-2.728 9.257-4.538 15.375-5.982 20.53-1.857 6.622-2.499 9.417-2.705 10.311-1.192 5.224-1.33 7.905-.505 9.577.321.573.665 1.031 1.261 1.375.619.367 1.192.481 1.903.458 3.484-.068 10.956-6.003 14.28-8.546 4.47-3.414 11.346-8.89 19.277-15.237 2.82-2.245 5.868-4.674 9.169-7.309 3.117-2.406 3.736-6.828 1.123-12.029z" fill="#FA6E7D"/><path d="M484.536 664.323c-4.172-8.318-14.991-15.466-24.159-15.97-5.593-.321-9.284 1.924-10.361 5.59-1.192 4.056-2.292 7.813-3.301 11.25-2.728 9.257-4.538 15.375-5.982 20.53-1.857 6.622-2.499 9.417-2.705 10.311-1.192 5.224-1.33 7.905-.505 9.577.321.573.665 1.031 1.261 1.375.619.367 1.192.481 1.903.458 3.484-.068 10.956-6.003 14.28-8.546 4.47-3.414 11.346-8.89 19.277-15.237 2.82-2.245 5.868-4.674 9.169-7.309 3.117-2.406 3.736-6.828 1.123-12.029z" fill="#E73248"/><path d="M460.262 694.842l.94-.733c1.788-1.398 2.154-3.964.642-6.965-2.384-4.766-8.596-8.89-13.868-9.165-3.232-.184-5.341 1.122-5.96 3.23l-.344 1.146c-.504 1.764-1.169 4.147-1.673 5.911.481-1.741 2.178-2.795 4.791-2.635 4.217.23 9.214 3.529 11.14 7.378 1.215 2.429.917 4.491-.55 5.614a698.96 698.96 0 004.882-3.781zm16.252-22.454c-3.553-7.057-12.745-13.152-20.538-13.587-4.768-.275-7.886 1.627-8.802 4.743l-.482 1.649-1.833 6.256c.779-2.681 3.461-4.308 7.541-4.079 6.67.367 14.532 5.568 17.558 11.617 1.902 3.78 1.444 7.011-.802 8.798a821.145 821.145 0 005.111-4.078c.436-.344.871-.711 1.33-1.054 2.613-2.085 3.14-5.843.917-10.265z" fill="#F3FAFF"/><defs><filter id="a" x="663.317" y="579.668" width="148.683" height="116.855" filterUnits="userSpaceOnUse" color-interpolation-filters="sRGB"><feFlood flood-opacity="0" result="BackgroundImageFix"/><feBlend in="SourceGraphic" in2="BackgroundImageFix" result="shape"/><feGaussianBlur stdDeviation="7" result="effect1_foregroundBlur_2_156448"/></filter><filter id="b" x="174.807" y="297.727" width="148.683" height="116.855" filterUnits="userSpaceOnUse" color-interpolation-filters="sRGB"><feFlood flood-opacity="0" result="BackgroundImageFix"/><feBlend in="SourceGraphic" in2="BackgroundImageFix" result="shape"/><feGaussianBlur stdDeviation="7" result="effect1_foregroundBlur_2_156448"/></filter><filter id="c" x="400.472" y="413.23" width="148.683" height="116.855" filterUnits="userSpaceOnUse" color-interpolation-filters="sRGB"><feFlood flood-opacity="0" result="BackgroundImageFix"/><feBlend in="SourceGraphic" in2="BackgroundImageFix" result="shape"/><feGaussianBlur stdDeviation="7" result="effect1_foregroundBlur_2_156448"/></filter><filter id="e" x="119.462" y="495.573" width="98.917" height="69.025" filterUnits="userSpaceOnUse" color-interpolation-filters="sRGB"><feFlood flood-opacity="0" result="BackgroundImageFix"/><feBlend in="SourceGraphic" in2="BackgroundImageFix" result="shape"/><feGaussianBlur stdDeviation="7" result="effect1_foregroundBlur_2_156448"/></filter><filter id="f" x="423.083" y="663.069" width="87.805" height="58.394" filterUnits="userSpaceOnUse" color-interpolation-filters="sRGB"><feFlood flood-opacity="0" result="BackgroundImageFix"/><feBlend in="SourceGraphic" in2="BackgroundImageFix" result="shape"/><feGaussianBlur stdDeviation="7" result="effect1_foregroundBlur_2_156448"/></filter><filter id="h" x="460.594" y="662.637" width="33.993" height="30.752" filterUnits="userSpaceOnUse" color-interpolation-filters="sRGB"><feFlood flood-opacity="0" result="BackgroundImageFix"/><feBlend in="SourceGraphic" in2="BackgroundImageFix" result="shape"/><feGaussianBlur stdDeviation="2" result="effect1_foregroundBlur_2_156448"/></filter><linearGradient id="d" x1="366.098" y1="135.063" x2="513.846" y2="463.905" gradientUnits="userSpaceOnUse"><stop stop-color="#E9ECF8"/><stop offset="1" stop-color="#B4BAD7"/></linearGradient></defs></svg>