<svg width="653" height="546" viewBox="0 0 653 546" fill="none" xmlns="http://www.w3.org/2000/svg">
<g opacity="0.3">
<line x1="1.04688" y1="59.5353" x2="27.4623" y2="33.1199" stroke="white" stroke-linecap="round"/>
<line x1="1.75496" y1="33.1194" x2="28.1704" y2="59.5348" stroke="white" stroke-linecap="round"/>
<line x1="1.04785" y1="134.652" x2="27.4633" y2="108.236" stroke="white" stroke-linecap="round"/>
<line x1="1.75496" y1="108.236" x2="28.1704" y2="134.651" stroke="white" stroke-linecap="round"/>
<line x1="1.04785" y1="209.767" x2="27.4633" y2="183.352" stroke="white" stroke-linecap="round"/>
<line x1="1.75496" y1="183.351" x2="28.1704" y2="209.767" stroke="white" stroke-linecap="round"/>
<line x1="1.04688" y1="284.885" x2="27.4623" y2="258.47" stroke="white" stroke-linecap="round"/>
<line x1="1.75496" y1="258.469" x2="28.1704" y2="284.885" stroke="white" stroke-linecap="round"/>
<line x1="1.04688" y1="359.999" x2="27.4623" y2="333.584" stroke="white" stroke-linecap="round"/>
<line x1="1.75593" y1="333.584" x2="28.1714" y2="360" stroke="white" stroke-linecap="round"/>
<line x1="1.04785" y1="435.115" x2="27.4633" y2="408.699" stroke="white" stroke-linecap="round"/>
<line x1="1.75496" y1="408.699" x2="28.1704" y2="435.114" stroke="white" stroke-linecap="round"/>
<line x1="1.04785" y1="510.231" x2="27.4633" y2="483.816" stroke="white" stroke-linecap="round"/>
<line x1="1.75496" y1="483.816" x2="28.1704" y2="510.232" stroke="white" stroke-linecap="round"/>
<line x1="76.1162" y1="59.5353" x2="102.532" y2="33.1199" stroke="white" stroke-linecap="round"/>
<line x1="76.8243" y1="33.1194" x2="103.24" y2="59.5348" stroke="white" stroke-linecap="round"/>
<line x1="76.1143" y1="134.653" x2="102.53" y2="108.238" stroke="white" stroke-linecap="round"/>
<line x1="76.8214" y1="108.238" x2="103.237" y2="134.653" stroke="white" stroke-linecap="round"/>
<line x1="76.1143" y1="209.769" x2="102.53" y2="183.354" stroke="white" stroke-linecap="round"/>
<line x1="76.8214" y1="183.352" x2="103.237" y2="209.768" stroke="white" stroke-linecap="round"/>
<line x1="76.1162" y1="284.884" x2="102.532" y2="258.469" stroke="white" stroke-linecap="round"/>
<line x1="76.8243" y1="258.468" x2="103.24" y2="284.884" stroke="white" stroke-linecap="round"/>
<line x1="76.1169" y1="359.998" x2="102.532" y2="333.582" stroke="white" stroke-linecap="round"/>
<line x1="76.8241" y1="333.582" x2="103.24" y2="359.997" stroke="white" stroke-linecap="round"/>
<line x1="76.1162" y1="435.115" x2="102.532" y2="408.699" stroke="white" stroke-linecap="round"/>
<line x1="76.8233" y1="408.7" x2="103.239" y2="435.115" stroke="white" stroke-linecap="round"/>
<line x1="76.1169" y1="510.232" x2="102.532" y2="483.817" stroke="white" stroke-linecap="round"/>
<line x1="76.825" y1="483.816" x2="103.24" y2="510.232" stroke="white" stroke-linecap="round"/>
<line x1="151.187" y1="59.5334" x2="177.602" y2="33.1179" stroke="white" stroke-linecap="round"/>
<line x1="151.893" y1="33.1174" x2="178.309" y2="59.5329" stroke="white" stroke-linecap="round"/>
<line x1="151.186" y1="134.652" x2="177.602" y2="108.236" stroke="white" stroke-linecap="round"/>
<line x1="151.892" y1="108.236" x2="178.308" y2="134.651" stroke="white" stroke-linecap="round"/>
<line x1="151.187" y1="209.767" x2="177.602" y2="183.352" stroke="white" stroke-linecap="round"/>
<line x1="151.893" y1="183.352" x2="178.309" y2="209.768" stroke="white" stroke-linecap="round"/>
<line x1="151.187" y1="284.883" x2="177.602" y2="258.468" stroke="white" stroke-linecap="round"/>
<line x1="151.893" y1="258.468" x2="178.309" y2="284.884" stroke="white" stroke-linecap="round"/>
<line x1="151.187" y1="359.999" x2="177.602" y2="333.583" stroke="white" stroke-linecap="round"/>
<line x1="151.893" y1="333.585" x2="178.309" y2="360" stroke="white" stroke-linecap="round"/>
<line x1="151.187" y1="435.114" x2="177.602" y2="408.698" stroke="white" stroke-linecap="round"/>
<line x1="151.893" y1="408.699" x2="178.309" y2="435.114" stroke="white" stroke-linecap="round"/>
<line x1="151.188" y1="510.23" x2="177.603" y2="483.815" stroke="white" stroke-linecap="round"/>
<line x1="151.893" y1="483.815" x2="178.309" y2="510.231" stroke="white" stroke-linecap="round"/>
<line x1="226.255" y1="59.5353" x2="252.671" y2="33.1199" stroke="white" stroke-linecap="round"/>
<line x1="226.963" y1="33.1194" x2="253.379" y2="59.5348" stroke="white" stroke-linecap="round"/>
<line x1="226.256" y1="134.652" x2="252.672" y2="108.236" stroke="white" stroke-linecap="round"/>
<line x1="226.964" y1="108.236" x2="253.38" y2="134.651" stroke="white" stroke-linecap="round"/>
<line x1="226.256" y1="209.767" x2="252.672" y2="183.352" stroke="white" stroke-linecap="round"/>
<line x1="226.962" y1="183.353" x2="253.378" y2="209.768" stroke="white" stroke-linecap="round"/>
<line x1="226.256" y1="284.884" x2="252.672" y2="258.469" stroke="white" stroke-linecap="round"/>
<line x1="226.964" y1="258.468" x2="253.38" y2="284.884" stroke="white" stroke-linecap="round"/>
<line x1="226.256" y1="359.999" x2="252.672" y2="333.584" stroke="white" stroke-linecap="round"/>
<line x1="226.964" y1="333.584" x2="253.38" y2="360" stroke="white" stroke-linecap="round"/>
<line x1="226.256" y1="435.115" x2="252.672" y2="408.699" stroke="white" stroke-linecap="round"/>
<line x1="226.964" y1="408.699" x2="253.38" y2="435.114" stroke="white" stroke-linecap="round"/>
<line x1="226.255" y1="510.231" x2="252.671" y2="483.816" stroke="white" stroke-linecap="round"/>
<line x1="226.962" y1="483.815" x2="253.378" y2="510.231" stroke="white" stroke-linecap="round"/>
<line x1="301.323" y1="59.5324" x2="327.738" y2="33.1169" stroke="white" stroke-linecap="round"/>
<line x1="302.03" y1="33.1174" x2="328.445" y2="59.5329" stroke="white" stroke-linecap="round"/>
<line x1="301.323" y1="134.651" x2="327.738" y2="108.235" stroke="white" stroke-linecap="round"/>
<line x1="302.031" y1="108.235" x2="328.446" y2="134.65" stroke="white" stroke-linecap="round"/>
<line x1="301.322" y1="209.767" x2="327.737" y2="183.352" stroke="white" stroke-linecap="round"/>
<line x1="302.029" y1="183.352" x2="328.444" y2="209.768" stroke="white" stroke-linecap="round"/>
<line x1="301.323" y1="284.884" x2="327.738" y2="258.469" stroke="white" stroke-linecap="round"/>
<line x1="302.031" y1="258.468" x2="328.446" y2="284.884" stroke="white" stroke-linecap="round"/>
<line x1="301.321" y1="359.998" x2="327.736" y2="333.582" stroke="white" stroke-linecap="round"/>
<line x1="302.029" y1="333.583" x2="328.444" y2="359.998" stroke="white" stroke-linecap="round"/>
<line x1="301.322" y1="435.115" x2="327.737" y2="408.699" stroke="white" stroke-linecap="round"/>
<line x1="302.03" y1="408.699" x2="328.445" y2="435.114" stroke="white" stroke-linecap="round"/>
<line x1="301.322" y1="510.231" x2="327.737" y2="483.816" stroke="white" stroke-linecap="round"/>
<line x1="302.03" y1="483.815" x2="328.445" y2="510.231" stroke="white" stroke-linecap="round"/>
<line x1="376.392" y1="59.5326" x2="402.807" y2="33.1172" stroke="white" stroke-linecap="round"/>
<line x1="377.101" y1="33.1167" x2="403.516" y2="59.5322" stroke="white" stroke-linecap="round"/>
<line x1="376.391" y1="134.653" x2="402.806" y2="108.238" stroke="white" stroke-linecap="round"/>
<line x1="377.099" y1="108.238" x2="403.514" y2="134.653" stroke="white" stroke-linecap="round"/>
<line x1="376.391" y1="209.767" x2="402.806" y2="183.352" stroke="white" stroke-linecap="round"/>
<line x1="377.101" y1="183.352" x2="403.516" y2="209.768" stroke="white" stroke-linecap="round"/>
<line x1="376.391" y1="284.883" x2="402.806" y2="258.468" stroke="white" stroke-linecap="round"/>
<line x1="377.1" y1="258.467" x2="403.515" y2="284.883" stroke="white" stroke-linecap="round"/>
<line x1="376.39" y1="359.998" x2="402.805" y2="333.582" stroke="white" stroke-linecap="round"/>
<line x1="377.1" y1="333.583" x2="403.515" y2="359.998" stroke="white" stroke-linecap="round"/>
<line x1="376.391" y1="435.115" x2="402.806" y2="408.699" stroke="white" stroke-linecap="round"/>
<line x1="377.1" y1="408.699" x2="403.515" y2="435.114" stroke="white" stroke-linecap="round"/>
<line x1="376.391" y1="510.232" x2="402.806" y2="483.817" stroke="white" stroke-linecap="round"/>
<line x1="377.1" y1="483.816" x2="403.515" y2="510.232" stroke="white" stroke-linecap="round"/>
<line x1="451.463" y1="59.5353" x2="477.878" y2="33.1199" stroke="white" stroke-linecap="round"/>
<line x1="452.169" y1="33.1194" x2="478.584" y2="59.5348" stroke="white" stroke-linecap="round"/>
<line x1="451.463" y1="134.652" x2="477.878" y2="108.236" stroke="white" stroke-linecap="round"/>
<line x1="452.169" y1="108.236" x2="478.584" y2="134.651" stroke="white" stroke-linecap="round"/>
<line x1="451.463" y1="209.767" x2="477.878" y2="183.352" stroke="white" stroke-linecap="round"/>
<line x1="452.169" y1="183.351" x2="478.584" y2="209.767" stroke="white" stroke-linecap="round"/>
<line x1="451.463" y1="284.884" x2="477.878" y2="258.469" stroke="white" stroke-linecap="round"/>
<line x1="452.169" y1="258.468" x2="478.584" y2="284.884" stroke="white" stroke-linecap="round"/>
<line x1="451.463" y1="359.998" x2="477.878" y2="333.582" stroke="white" stroke-linecap="round"/>
<line x1="452.169" y1="333.583" x2="478.584" y2="359.998" stroke="white" stroke-linecap="round"/>
<line x1="451.463" y1="435.115" x2="477.878" y2="408.699" stroke="white" stroke-linecap="round"/>
<line x1="452.169" y1="408.7" x2="478.584" y2="435.115" stroke="white" stroke-linecap="round"/>
<line x1="451.463" y1="510.231" x2="477.878" y2="483.816" stroke="white" stroke-linecap="round"/>
<line x1="452.169" y1="483.816" x2="478.584" y2="510.232" stroke="white" stroke-linecap="round"/>
<line x1="526.529" y1="59.5353" x2="552.945" y2="33.1199" stroke="white" stroke-linecap="round"/>
<line x1="527.239" y1="33.1194" x2="553.655" y2="59.5348" stroke="white" stroke-linecap="round"/>
<line x1="526.53" y1="134.652" x2="552.946" y2="108.236" stroke="white" stroke-linecap="round"/>
<line x1="527.24" y1="108.236" x2="553.656" y2="134.651" stroke="white" stroke-linecap="round"/>
<line x1="526.53" y1="209.767" x2="552.946" y2="183.352" stroke="white" stroke-linecap="round"/>
<line x1="527.24" y1="183.351" x2="553.656" y2="209.767" stroke="white" stroke-linecap="round"/>
<line x1="526.529" y1="284.884" x2="552.945" y2="258.469" stroke="white" stroke-linecap="round"/>
<line x1="527.237" y1="258.468" x2="553.653" y2="284.884" stroke="white" stroke-linecap="round"/>
<line x1="526.532" y1="359.999" x2="552.947" y2="333.583" stroke="white" stroke-linecap="round"/>
<line x1="527.238" y1="333.585" x2="553.654" y2="360" stroke="white" stroke-linecap="round"/>
<line x1="526.531" y1="435.115" x2="552.946" y2="408.699" stroke="white" stroke-linecap="round"/>
<line x1="527.239" y1="408.7" x2="553.655" y2="435.115" stroke="white" stroke-linecap="round"/>
<line x1="526.53" y1="510.232" x2="552.946" y2="483.816" stroke="white" stroke-linecap="round"/>
<line x1="527.239" y1="483.816" x2="553.655" y2="510.231" stroke="white" stroke-linecap="round"/>
<line x1="601.6" y1="59.5334" x2="628.016" y2="33.1179" stroke="white" stroke-linecap="round"/>
<line x1="602.308" y1="33.1174" x2="628.724" y2="59.5329" stroke="white" stroke-linecap="round"/>
<line x1="601.6" y1="134.652" x2="628.016" y2="108.236" stroke="white" stroke-linecap="round"/>
<line x1="602.308" y1="108.236" x2="628.724" y2="134.651" stroke="white" stroke-linecap="round"/>
<line x1="601.599" y1="209.767" x2="628.015" y2="183.352" stroke="white" stroke-linecap="round"/>
<line x1="602.307" y1="183.352" x2="628.723" y2="209.768" stroke="white" stroke-linecap="round"/>
<line x1="601.599" y1="284.884" x2="628.015" y2="258.469" stroke="white" stroke-linecap="round"/>
<line x1="602.307" y1="258.468" x2="628.723" y2="284.884" stroke="white" stroke-linecap="round"/>
<line x1="601.6" y1="359.999" x2="628.016" y2="333.583" stroke="white" stroke-linecap="round"/>
<line x1="602.308" y1="333.585" x2="628.724" y2="360" stroke="white" stroke-linecap="round"/>
<line x1="601.6" y1="435.115" x2="628.016" y2="408.699" stroke="white" stroke-linecap="round"/>
<line x1="602.308" y1="408.699" x2="628.724" y2="435.114" stroke="white" stroke-linecap="round"/>
<line x1="601.6" y1="510.232" x2="628.016" y2="483.817" stroke="white" stroke-linecap="round"/>
<line x1="602.308" y1="483.816" x2="628.724" y2="510.232" stroke="white" stroke-linecap="round"/>
</g>
</svg>
