<svg width="653" height="546" fill="none" xmlns="http://www.w3.org/2000/svg"><path d="M1.047 59.535L27.462 33.12m-25.707-.001L28.17 59.535M1.048 134.652l26.415-26.416m-25.708 0l26.415 26.415M1.048 209.767l26.415-26.415m-25.708-.001l26.415 26.416M1.047 284.885l26.415-26.415m-25.707-.001l26.415 26.416M1.047 359.999l26.415-26.415m-25.706 0L28.171 360M1.048 435.115l26.415-26.416m-25.708 0l26.415 26.415M1.048 510.231l26.415-26.415m-25.708 0l26.415 26.416M76.116 59.535l26.416-26.415m-25.708-.001l26.416 26.416m-27.126 75.118l26.416-26.415m-25.709 0l26.416 26.415m-27.123 75.116l26.416-26.415m-25.709-.002l26.416 26.416m-27.121 75.116l26.416-26.415m-25.708-.001l26.416 26.416m-27.123 75.114l26.415-26.416m-25.708 0l26.416 26.415m-27.124 75.118l26.416-26.416m-25.709.001l26.416 26.415m-27.122 75.117l26.415-26.415m-25.707-.001l26.415 26.416m47.947-450.699l26.415-26.415m-25.709-.001l26.416 26.416m-27.123 75.119l26.416-26.416m-25.71 0l26.416 26.415m-27.121 75.116l26.415-26.415m-25.709 0l26.416 26.416m-27.122 75.115l26.415-26.415m-25.709 0l26.416 26.416m-27.122 75.115l26.415-26.416m-25.709.002L178.309 360m-27.122 75.114l26.415-26.416m-25.709.001l26.416 26.415m-27.121 75.116l26.415-26.415m-25.71 0l26.416 26.416m47.946-450.696l26.416-26.415m-25.708-.001l26.416 26.416m-27.123 75.117l26.416-26.416m-25.708 0l26.416 26.415m-27.124 75.116l26.416-26.415m-25.71.001l26.416 26.415m-27.122 75.116l26.416-26.415m-25.708-.001l26.416 26.416m-27.124 75.115l26.416-26.415m-25.708 0L253.38 360m-27.124 75.115l26.416-26.416m-25.708 0l26.416 26.415m-27.125 75.117l26.416-26.415m-25.709-.001l26.416 26.416m47.945-450.699l26.415-26.415m-25.708 0l26.415 26.416m-27.122 75.118l26.415-26.416m-25.707 0l26.415 26.415m-27.124 75.117l26.415-26.415m-25.708 0l26.415 26.416m-27.121 75.116l26.415-26.415m-25.707-.001l26.415 26.416m-27.125 75.114l26.415-26.416m-25.707.001l26.415 26.415m-27.122 75.117l26.415-26.416m-25.707 0l26.415 26.415m-27.123 75.117l26.415-26.415m-25.707-.001l26.415 26.416m47.947-450.698l26.415-26.416m-25.706 0l26.415 26.415m-27.125 75.121l26.415-26.415m-25.707 0l26.415 26.415m-27.123 75.114l26.415-26.415m-25.705 0l26.415 26.416m-27.125 75.115l26.415-26.415m-25.706-.001l26.415 26.416m-27.125 75.115l26.415-26.416m-25.705.001l26.415 26.415m-27.124 75.117l26.415-26.416m-25.706 0l26.415 26.415m-27.124 75.118l26.415-26.415m-25.706-.001l26.415 26.416m47.948-450.697l26.415-26.415m-25.709-.001l26.415 26.416m-27.121 75.117l26.415-26.416m-25.709 0l26.415 26.415m-27.121 75.116l26.415-26.415m-25.709-.001l26.415 26.416m-27.121 75.117l26.415-26.415m-25.709-.001l26.415 26.416m-27.121 75.114l26.415-26.416m-25.709.001l26.415 26.415m-27.121 75.117l26.415-26.416m-25.709.001l26.415 26.415m-27.121 75.116l26.415-26.415m-25.709 0l26.415 26.416m47.945-450.697l26.416-26.415m-25.706-.001l26.416 26.416m-27.125 75.117l26.416-26.416m-25.706 0l26.416 26.415m-27.126 75.116l26.416-26.415m-25.706-.001l26.416 26.416m-27.127 75.117l26.416-26.415m-25.708-.001l26.416 26.416m-27.121 75.115l26.415-26.416m-25.709.002L553.654 360m-27.123 75.115l26.415-26.416m-25.707.001l26.416 26.415m-27.125 75.117l26.416-26.416m-25.707 0l26.416 26.415M601.6 59.533l26.416-26.415m-25.708-.001l26.416 26.416M601.6 134.652l26.416-26.416m-25.708 0l26.416 26.415m-27.125 75.116l26.416-26.415m-25.708 0l26.416 26.416m-27.124 75.116l26.416-26.415m-25.708-.001l26.416 26.416M601.6 359.999l26.416-26.416m-25.708.002L628.724 360M601.6 435.115l26.416-26.416m-25.708 0l26.416 26.415M601.6 510.232l26.416-26.415m-25.708-.001l26.416 26.416" opacity=".3" stroke="#fff" stroke-linecap="round"/></svg>